#N canvas 136 50 1096 933 10;
#N canvas 0 50 450 278 (subpatch) 0;
#X array \$1-array-\$3 5386 float 2;
#X coords 0 1 5386 -1 335 251 1 0 0;
#X restore 742 646 graph;
#X obj 834 394 soundfiler;
#X floatatom 834 425 10 0 0 0 - - -, f 10;
#X floatatom 834 484 10 0 0 0 - - -, f 10;
#X obj 834 453 / 44.1;
#X text 890 453 sample rate / 1000;
#X obj 7 24 inlet;
#X obj 7 90 bng 15 250 50 0 empty empty empty 17 7 0 10 -262144 -1
-1;
#X msg 124 373 0 0;
#X obj 62 637 pack 0 0;
#X obj 62 430 f;
#X obj 62 462 * 44.1;
#X obj 834 196 bng 15 250 50 0 empty empty empty 17 7 0 10 -262144
-1 -1;
#X obj 834 308 list prepend -resize;
#X obj 834 336 list prepend read;
#X obj 834 364 list trim;
#X obj 834 169 loadbang;
#X text 829 130 construct the read message using the sound file name
(\$1), f 31;
#X obj 834 244 list;
#X obj 834 275 list prepend \$1;
#X obj 62 160 stripnote;
#X obj 62 229 % 24;
#X obj 115 585 f;
#X obj 204 542 t b f;
#X obj 62 203 abs;
#X text 266 27 loads and plays sound file;
#X text 267 49 argument 1: soundfile to load;
#X text 268 70 argument 2: key number to play;
#X obj 62 182 expr if ($f1 > 59 \, $f1 - 60 \, $f1 - 12);
#X text 174 206 allow all midi notes to trigger samples...;
#X obj 460 693 vline~;
#X obj 459 723 *~;
#X obj 460 600 f 1000;
#X text 910 483 milliseconds;
#X obj 499 564 *;
#X obj 499 479 *;
#X obj 499 457 t f f;
#X obj 62 814 *~;
#X obj 460 628 pack 0 0;
#X msg 460 657 1 1 \, \$2 \$1 1;
#X obj 499 393 t f f;
#X text 549 424 if knob all the way up \, never decay;
#X text 470 341 do a simple amplitude decay;
#X obj 548 442 expr if($f1 > 0.98 \, 1 \, 0);
#X obj 63 848 hip~ 5;
#X text 143 850 cut DC;
#X obj 517 532 * 2;
#X text 282 359 scale playback speed;
#X obj 285 429 / 100;
#X obj 285 451 mtof;
#X obj 285 473 / 8.1785;
#X obj 285 404 * 2400;
#X obj 285 495 / 2;
#X obj 115 605 / 1;
#X obj 62 332 t b b b f, f 27;
#X obj 248 628 * 0.00787402;
#X obj 63 782 *~;
#X obj 62 283 route \$2;
#X obj 62 251 pack 0 0, f 9;
#X text 268 90 argument 3: Module Number;
#X text 258 605 Velocity;
#X obj 63 720 tabread4~ \$1-array-\$3;
#X obj 80 399 r \$1-duration-\$3;
#X obj 517 507 r \$1-duration-\$3;
#X obj 115 511 r \$1-duration-\$3;
#X obj 63 893 throw~ samp-voice-out-\$3;
#X obj 499 362 r ss-\$3-decay;
#X obj 62 126 r ss-\$3-notes-in;
#X obj 285 379 r knob1-\$3-detent;
#X text 134 284 second argument (key number) trigger;
#X text 31 89 manual trigger;
#X obj 834 515 s \$1-duration-\$3;
#X obj 834 222 symbol \$1-array-\$3;
#X obj 62 693 vline~;
#X connect 1 0 2 0;
#X connect 2 0 4 0;
#X connect 3 0 71 0;
#X connect 4 0 3 0;
#X connect 6 0 7 0;
#X connect 7 0 54 0;
#X connect 8 0 73 0;
#X connect 9 0 73 0;
#X connect 10 0 11 0;
#X connect 11 0 9 0;
#X connect 12 0 72 0;
#X connect 13 0 14 0;
#X connect 14 0 15 0;
#X connect 15 0 1 0;
#X connect 16 0 12 0;
#X connect 18 0 19 0;
#X connect 19 0 13 0;
#X connect 20 0 28 0;
#X connect 20 1 58 1;
#X connect 21 0 58 0;
#X connect 22 0 53 0;
#X connect 23 0 22 0;
#X connect 23 1 53 1;
#X connect 24 0 21 0;
#X connect 28 0 24 0;
#X connect 30 0 31 1;
#X connect 30 0 31 0;
#X connect 31 0 37 1;
#X connect 32 0 38 0;
#X connect 34 0 32 1;
#X connect 35 0 34 0;
#X connect 36 0 35 0;
#X connect 36 1 35 1;
#X connect 37 0 44 0;
#X connect 38 0 39 0;
#X connect 39 0 30 0;
#X connect 40 0 36 0;
#X connect 40 1 43 0;
#X connect 43 0 38 1;
#X connect 44 0 65 0;
#X connect 46 0 34 1;
#X connect 48 0 49 0;
#X connect 49 0 50 0;
#X connect 50 0 52 0;
#X connect 51 0 48 0;
#X connect 52 0 23 0;
#X connect 53 0 9 1;
#X connect 54 0 10 0;
#X connect 54 1 8 0;
#X connect 54 2 32 0;
#X connect 54 3 55 0;
#X connect 55 0 56 1;
#X connect 56 0 37 0;
#X connect 57 0 54 0;
#X connect 58 0 57 0;
#X connect 61 0 56 0;
#X connect 62 0 10 1;
#X connect 63 0 46 0;
#X connect 64 0 22 0;
#X connect 66 0 40 0;
#X connect 67 0 20 0;
#X connect 68 0 51 0;
#X connect 72 0 18 0;
#X connect 73 0 61 0;
