#N canvas 196 182 1276 698 10;
#X obj 29 87 bng 15 250 50 0 empty empty empty 17 7 0 10 -262144 -1
-1;
#X obj 429 87 bng 15 250 50 0 empty empty empty 17 7 0 10 -262144 -1
-1;
#X obj 226 86 bng 15 250 50 0 empty empty empty 17 7 0 10 -262144 -1
-1;
#X obj 621 89 bng 15 250 50 0 empty empty empty 17 7 0 10 -262144 -1
-1;
#X obj 819 88 bng 15 250 50 0 empty empty empty 17 7 0 10 -262144 -1
-1;
#X obj 1005 85 bng 15 250 50 0 empty empty empty 17 7 0 10 -262144
-1 -1;
#X obj 428 137 bng 15 250 50 0 empty empty empty 17 7 0 10 -262144
-1 -1;
#X obj 225 135 bng 15 250 50 0 empty empty empty 17 7 0 10 -262144
-1 -1;
#X obj 621 137 bng 15 250 50 0 empty empty empty 17 7 0 10 -262144
-1 -1;
#X obj 817 134 bng 15 250 50 0 empty empty empty 17 7 0 10 -262144
-1 -1;
#X obj 1007 133 bng 15 250 50 0 empty empty empty 17 7 0 10 -262144
-1 -1;
#X obj 430 185 bng 15 250 50 0 empty empty empty 17 7 0 10 -262144
-1 -1;
#X obj 225 188 bng 15 250 50 0 empty empty empty 17 7 0 10 -262144
-1 -1;
#X obj 621 186 bng 15 250 50 0 empty empty empty 17 7 0 10 -262144
-1 -1;
#X obj 817 187 bng 15 250 50 0 empty empty empty 17 7 0 10 -262144
-1 -1;
#X obj 1010 185 bng 15 250 50 0 empty empty empty 17 7 0 10 -262144
-1 -1;
#X obj 29 135 bng 15 250 50 0 empty empty empty 17 7 0 10 -262144 -1
-1;
#X obj 29 185 bng 15 250 50 0 empty empty empty 17 7 0 10 -262144 -1
-1;
#X obj 431 235 bng 15 250 50 0 empty empty empty 17 7 0 10 -262144
-1 -1;
#X obj 226 236 bng 15 250 50 0 empty empty empty 17 7 0 10 -262144
-1 -1;
#X obj 622 237 bng 15 250 50 0 empty empty empty 17 7 0 10 -262144
-1 -1;
#X obj 820 236 bng 15 250 50 0 empty empty empty 17 7 0 10 -262144
-1 -1;
#X obj 1010 239 bng 15 250 50 0 empty empty empty 17 7 0 10 -262144
-1 -1;
#X obj 29 234 bng 15 250 50 0 empty empty empty 17 7 0 10 -262144 -1
-1;
#X text 29 41 Sampler Manager;
#X text 292 10 -Each subpatch represents a key on the organelle. -Pass
the sound file name as an argument to sampler-voice \, this replaces
\$1 inside sampler-voice. -The sound files must be in the folder with
this patch.;
#X obj 718 485 *~ 1;
#X obj 362 487 i;
#X obj 362 458 * 100;
#X obj 362 431 moses 0.98;
#X msg 429 477 bang;
#X obj 62 461 bang;
#X obj 195 471 - 0.5;
#X obj 195 493 * 200;
#X obj 195 521 i;
#X obj 17 461 - 0.5;
#X obj 17 483 * 200;
#X obj 17 511 i;
#X obj 17 539 abs;
#X obj 17 399 detent 0.075;
#X msg 362 543 Decay \$1 %;
#X msg 62 488 Samp Speed ORIG;
#X msg 195 549 Samp Speed +\$1 %;
#X msg 17 564 Samp Speed -\$1 %;
#X obj 17 365 r ss-\$1-speed;
#X obj 718 456 catch~ \$1-samp-voice-out;
#X obj 36 432 s knob1-\$3-detent;
#X obj 17 605 s ss-\$1-speed-label;
#X obj 718 529 s~ ss-\$1-outR;
#X obj 820 529 s~ ss-\$1-outL;
#X obj 362 408 r ss-\$1-decay;
#X obj 362 565 s ss-\$1-decay-label;
#X msg 429 498 Decay Off;
#X obj 226 259 sampler-voice 20.wav 19 \$1;
#X obj 431 262 sampler-voice 21.wav 20 \$1;
#X obj 621 109 sampler-voice 4.wav 3 \$1;
#X obj 226 110 sampler-voice 2.wav 1 \$1;
#X obj 29 110 sampler-voice 1.wav 0 \$1;
#X obj 29 158 sampler-voice 7.wav 6 \$1;
#X obj 29 208 sampler-voice 13.wav 12 \$1;
#X obj 29 260 sampler-voice 19.wav 18 \$1;
#X obj 225 209 sampler-voice 14.wav 13 \$1;
#X obj 225 157 sampler-voice 8.wav 7 \$1;
#X obj 429 110 sampler-voice 3.wav 2 \$1;
#X obj 428 159 sampler-voice 9.wav 8 \$1;
#X obj 430 208 sampler-voice 15.wav 14 \$1;
#X obj 622 260 sampler-voice 22.wav 21 \$1;
#X obj 621 209 sampler-voice 16.wav 15 \$1;
#X obj 621 160 sampler-voice 10.wav 9 \$1;
#X obj 819 109 sampler-voice 5.wav 4 \$1;
#X obj 817 158 sampler-voice 11.wav 10 \$1;
#X obj 817 210 sampler-voice 17.wav 16 \$1;
#X obj 820 260 sampler-voice 23.wav 22 \$1;
#X obj 1010 262 sampler-voice 24.wav 23 \$1;
#X obj 1010 211 sampler-voice 18.wav 17 \$1;
#X obj 1007 157 sampler-voice 12.wav 11 \$1;
#X obj 1005 108 sampler-voice 6.wav 5 \$1;
#X connect 0 0 57 0;
#X connect 1 0 63 0;
#X connect 2 0 56 0;
#X connect 3 0 55 0;
#X connect 4 0 69 0;
#X connect 5 0 76 0;
#X connect 6 0 64 0;
#X connect 7 0 62 0;
#X connect 8 0 68 0;
#X connect 9 0 70 0;
#X connect 10 0 75 0;
#X connect 11 0 65 0;
#X connect 12 0 61 0;
#X connect 13 0 67 0;
#X connect 14 0 71 0;
#X connect 15 0 74 0;
#X connect 16 0 58 0;
#X connect 17 0 59 0;
#X connect 18 0 54 0;
#X connect 19 0 53 0;
#X connect 20 0 66 0;
#X connect 21 0 72 0;
#X connect 22 0 73 0;
#X connect 23 0 60 0;
#X connect 26 0 48 0;
#X connect 26 0 49 0;
#X connect 27 0 40 0;
#X connect 28 0 27 0;
#X connect 29 0 28 0;
#X connect 29 1 30 0;
#X connect 30 0 52 0;
#X connect 31 0 41 0;
#X connect 32 0 33 0;
#X connect 33 0 34 0;
#X connect 34 0 42 0;
#X connect 35 0 36 0;
#X connect 36 0 37 0;
#X connect 37 0 38 0;
#X connect 38 0 43 0;
#X connect 39 0 35 0;
#X connect 39 0 46 0;
#X connect 39 1 31 0;
#X connect 39 1 46 0;
#X connect 39 2 32 0;
#X connect 39 2 46 0;
#X connect 40 0 51 0;
#X connect 41 0 47 0;
#X connect 42 0 47 0;
#X connect 43 0 47 0;
#X connect 44 0 39 0;
#X connect 45 0 26 0;
#X connect 50 0 29 0;
#X connect 52 0 51 0;
