#N canvas 150 59 595 724 10;
#X msg 298 275 dry \$1;
#X msg 115 345 depth \$1;
#X obj 298 223 - 1;
#X obj 298 245 abs;
#X obj 20 427 e_bitcrusher \$0-bcwhatever 128;
#X obj 437 481 i;
#X obj 437 456 * 101;
#X obj 305 460 i;
#X text 16 18 bit-crusher effect module;
#X obj 116 88 r bc-depth;
#X obj 20 100 r~ bc-in;
#X obj 298 118 r bc-dw;
#X msg 437 509 Dry / Wet \$1 %;
#X obj 305 602 s bc-depth-label;
#X obj 437 533 s bc-dw-label;
#X obj 19 599 s~ bc-outL;
#X obj 100 599 s~ bc-outR;
#X obj 116 130 - 1;
#X obj 116 160 abs;
#X msg 305 580 Depth \$1 %;
#X obj 222 150 * 101;
#X obj 115 213 + 1.4;
#X obj 115 191 * 6.6;
#X obj 115 235 pack 0 30;
#X obj 115 256 line;
#X obj 20 449 hip~ 5;
#X connect 0 0 4 1;
#X connect 1 0 4 1;
#X connect 2 0 3 0;
#X connect 3 0 0 0;
#X connect 4 0 25 0;
#X connect 5 0 12 0;
#X connect 6 0 5 0;
#X connect 7 0 19 0;
#X connect 9 0 17 0;
#X connect 9 0 20 0;
#X connect 10 0 4 0;
#X connect 11 0 2 0;
#X connect 11 0 6 0;
#X connect 12 0 14 0;
#X connect 17 0 18 0;
#X connect 18 0 22 0;
#X connect 19 0 13 0;
#X connect 20 0 7 0;
#X connect 21 0 23 0;
#X connect 22 0 21 0;
#X connect 23 0 24 0;
#X connect 24 0 1 0;
#X connect 25 0 15 0;
#X connect 25 0 16 0;
