#N canvas 117 138 1261 584 10;
#X obj 149 238 pack f f f;
#X obj 149 263 route 1 2 3 4;
#X obj 156 208 poly 4 1;
#X obj 495 326 send~ f;
#X obj 495 217 sig~;
#X obj 494 248 lop~ 5;
#X obj 156 156 unpack 0 0;
#X obj 156 181 - 24;
#X obj 673 140 sig~;
#X obj 672 169 lop~ 5;
#X obj 672 195 send~ offset;
#X obj 673 117 * 2;
#X obj 835 141 sig~;
#X obj 835 169 lop~ 5;
#X obj 835 196 send~ resonance;
#X obj 835 118 * 4;
#X obj 1020 174 sig~;
#X obj 1019 207 lop~ 5;
#X obj 1019 232 s~ cutoff;
#X obj 1015 118 * 2000;
#X obj 1015 143 + 100;
#X obj 188 342 *~ 2;
#X obj 548 231 r fs;
#X obj 548 253 + 1;
#X floatatom 548 276 5 0 0 0 - - -, f 5;
#X obj 495 300 *~ 1;
#X obj 646 272 i;
#X obj 646 245 * 100;
#X obj 463 303 i;
#X obj 812 266 i;
#X obj 812 241 * 100;
#X obj 975 267 i;
#X obj 143 300 simple;
#X obj 495 146 / 100;
#X obj 495 168 mtof;
#X obj 495 190 / 8.1785;
#X obj 494 118 * 2400;
#X obj 494 91 r as-tune;
#X obj 835 86 r as-reso;
#X obj 1015 92 r as-cutoff;
#X obj 188 382 throw~ as-out;
#X obj 160 115 r as-notes-in;
#X obj 672 91 r as-osc-ratio;
#X obj 73 301 simple;
#X obj 213 300 simple;
#X obj 270 300 simple;
#X obj 464 376 s as-tune-label;
#X obj 646 346 s as-osc-ratio-label;
#X obj 812 341 s as-reso-label;
#X obj 975 339 s as-cutoff-label;
#X msg 462 351 Tune \$1 cents;
#X msg 646 321 Osc Ratio \$1 %;
#X msg 809 313 Resonance \$1 %;
#X msg 975 315 Cutoff \$1 Hz;
#X connect 0 0 1 0;
#X connect 1 0 43 0;
#X connect 1 1 32 0;
#X connect 1 2 44 0;
#X connect 1 3 45 0;
#X connect 2 0 0 0;
#X connect 2 1 0 1;
#X connect 2 2 0 2;
#X connect 4 0 5 0;
#X connect 5 0 25 0;
#X connect 6 0 7 0;
#X connect 6 1 2 1;
#X connect 7 0 2 0;
#X connect 8 0 9 0;
#X connect 9 0 10 0;
#X connect 11 0 8 0;
#X connect 11 0 27 0;
#X connect 12 0 13 0;
#X connect 13 0 14 0;
#X connect 15 0 12 0;
#X connect 16 0 17 0;
#X connect 17 0 18 0;
#X connect 19 0 20 0;
#X connect 20 0 16 0;
#X connect 20 0 31 0;
#X connect 21 0 40 0;
#X connect 22 0 23 0;
#X connect 23 0 24 0;
#X connect 24 0 25 1;
#X connect 25 0 3 0;
#X connect 26 0 51 0;
#X connect 27 0 26 0;
#X connect 28 0 50 0;
#X connect 29 0 52 0;
#X connect 30 0 29 0;
#X connect 31 0 53 0;
#X connect 32 0 21 0;
#X connect 33 0 34 0;
#X connect 34 0 35 0;
#X connect 35 0 4 0;
#X connect 36 0 28 0;
#X connect 36 0 33 0;
#X connect 37 0 36 0;
#X connect 38 0 15 0;
#X connect 38 0 30 0;
#X connect 39 0 19 0;
#X connect 41 0 6 0;
#X connect 42 0 11 0;
#X connect 43 0 21 0;
#X connect 44 0 21 0;
#X connect 45 0 21 0;
#X connect 50 0 46 0;
#X connect 51 0 47 0;
#X connect 52 0 48 0;
#X connect 53 0 49 0;
