#N canvas 641 263 612 663 10;
#X obj 89 32 unpack 0 0;
#X obj 89 4 inlet;
#X obj 89 600 outlet;
#X obj 293 362 r master-beats;
#X obj 293 388 bng 15 250 50 0 empty empty empty 17 7 0 10 -262144
-1 -1;
#X obj 89 553 makenote 100 100;
#X obj 89 575 pack 0 0;
#X obj 89 527 spigot;
#X obj 121 308 qlist;
#X msg 24 261 tempo \$1;
#X obj 360 489 r what;
#X msg 261 168 1;
#X msg 128 251 0;
#X obj 160 251 t b b;
#X msg 192 273 1;
#X obj 156 102 sel 0, f 8;
#X obj 156 59 t f f;
#X obj 208 208 bng 15 250 50 0 empty empty empty 17 7 0 10 -262144
-1 -1;
#X obj 360 511 print haha;
#X floatatom 34 233 5 0 0 0 - - -, f 5;
#X msg 131 471 next;
#X msg 154 405 rewind;
#X obj 131 439 t b a;
#X obj 154 379 b;
#X obj 128 273 t f b;
#X connect 0 1 16 0;
#X connect 1 0 0 0;
#X connect 3 0 4 0;
#X connect 4 0 20 0;
#X connect 5 0 6 0;
#X connect 5 1 6 1;
#X connect 6 0 2 0;
#X connect 7 0 5 0;
#X connect 8 1 23 0;
#X connect 9 0 8 0;
#X connect 10 0 18 0;
#X connect 12 0 24 0;
#X connect 13 0 8 0;
#X connect 13 1 14 0;
#X connect 15 0 12 0;
#X connect 15 1 13 0;
#X connect 16 0 15 0;
#X connect 17 0 13 0;
#X connect 19 0 9 0;
#X connect 20 0 8 0;
#X connect 21 0 22 0;
#X connect 22 0 20 0;
#X connect 22 1 8 0;
#X connect 23 0 21 0;
#X connect 24 1 21 0;
