#N canvas 141 224 604 460 10;
#X obj 16 23 r \$1-\$2-notes-in;
#X obj 16 87 pack 0 0 0, f 11;
#X obj 16 113 route 1 2 3 4 5 6 7 8 9 10, f 51;
#X obj 16 60 poly 10, f 11;
#X obj 72 159 arp-voice;
#X obj 16 135 arp-voice;
#X obj 86 135 arp-voice;
#X obj 141 159 arp-voice;
#X obj 156 135 arp-voice;
#X obj 211 159 arp-voice;
#X obj 227 135 arp-voice;
#X obj 281 159 arp-voice;
#X obj 297 135 arp-voice;
#X obj 351 159 arp-voice;
#X connect 0 0 3 0;
#X connect 1 0 2 0;
#X connect 2 0 5 0;
#X connect 2 1 4 0;
#X connect 2 2 6 0;
#X connect 2 3 7 0;
#X connect 2 4 8 0;
#X connect 2 5 9 0;
#X connect 2 6 10 0;
#X connect 2 7 11 0;
#X connect 2 8 12 0;
#X connect 2 9 13 0;
#X connect 3 0 1 0;
#X connect 3 1 1 1;
#X connect 3 2 1 2;
