#N canvas 60 183 828 686 10;
#X msg 536 401 \$1 10;
#X obj 81 458 c_xfade, f 9;
#X obj 510 183 * 100;
#X obj 510 205 i;
#X obj 66 158 int;
#X obj 122 82 t f f;
#X obj 122 104 *;
#X msg 66 180 Time \$1 Ms;
#X obj 596 401 * 101;
#X obj 596 423 int;
#X msg 596 445 Dry / Wet \$1 %;
#X msg 510 227 Feedback \$1 %;
#X obj 122 132 * 3000;
#X text 33 2 Simple 3 sec Delay Module with a hi-pass filter;
#X obj 22 347 delay3sec 5, f 22;
#X obj 162 458 c_xfade, f 9;
#X obj 162 377 delay3sec 5, f 26;
#X obj 212 82 t f f;
#X obj 212 104 *;
#X obj 122 60 r sdly-time;
#X obj 212 60 r sdly-spread;
#X obj 82 589 s~ sdly-outL;
#X obj 173 590 s~ sdly-outR;
#X obj 536 364 r sdly-dw;
#X obj 596 467 s sdly-dw-label;
#X obj 510 249 s sdly-fb-label;
#X obj 490 151 r sdly-fb;
#X obj 262 169 t b f;
#X obj 262 232 -;
#X obj 202 169 t b f;
#X obj 202 232 +;
#X floatatom 202 254 5 0 0 0 - - -, f 5;
#X floatatom 262 254 5 0 0 0 - - -, f 5;
#X obj 202 204 f;
#X obj 262 202 f;
#X obj 66 202 s sdly-time-label;
#X obj 316 111 * 100;
#X obj 316 133 i;
#X msg 316 155 Spread \$1 %;
#X obj 316 177 s sdly-spread-label;
#X obj 212 126 * 10;
#X obj 81 480 hip~ 5;
#X obj 162 480 hip~ 5;
#X obj 60 75 hip~ 20;
#X obj 22 30 r~ sdly-in;
#X connect 0 0 1 2;
#X connect 0 0 15 2;
#X connect 1 0 41 0;
#X connect 2 0 3 0;
#X connect 3 0 11 0;
#X connect 4 0 7 0;
#X connect 5 0 6 0;
#X connect 5 1 6 1;
#X connect 6 0 12 0;
#X connect 7 0 35 0;
#X connect 8 0 9 0;
#X connect 9 0 10 0;
#X connect 10 0 24 0;
#X connect 11 0 25 0;
#X connect 12 0 4 0;
#X connect 12 0 33 0;
#X connect 12 0 34 0;
#X connect 14 0 1 1;
#X connect 15 0 42 0;
#X connect 16 0 15 1;
#X connect 17 0 18 0;
#X connect 17 1 18 1;
#X connect 18 0 40 0;
#X connect 19 0 5 0;
#X connect 20 0 17 0;
#X connect 20 0 36 0;
#X connect 23 0 0 0;
#X connect 23 0 8 0;
#X connect 26 0 2 0;
#X connect 26 0 14 2;
#X connect 26 0 16 2;
#X connect 27 0 34 0;
#X connect 27 1 28 1;
#X connect 28 0 16 1;
#X connect 28 0 32 0;
#X connect 29 0 33 0;
#X connect 29 1 30 1;
#X connect 30 0 14 1;
#X connect 30 0 31 0;
#X connect 33 0 30 0;
#X connect 34 0 28 0;
#X connect 36 0 37 0;
#X connect 37 0 38 0;
#X connect 38 0 39 0;
#X connect 40 0 27 0;
#X connect 40 0 29 0;
#X connect 41 0 21 0;
#X connect 42 0 22 0;
#X connect 43 0 14 0;
#X connect 43 0 16 0;
#X connect 44 0 43 0;
#X connect 44 0 1 0;
#X connect 44 0 15 0;
