#N canvas 841 220 894 726 10;
#X obj 189 160 *~;
#X obj 206 102 vline~;
#X obj 206 124 *~;
#X obj 109 31 loadbang;
#X obj 109 75 mtof;
#X obj 201 23 tgl 15 0 empty empty empty 17 7 0 10 -262144 -1 -1 0
1;
#X obj 29 304 throw~ outL;
#X obj 138 303 throw~ outR;
#X obj 362 287 r knob1;
#X obj 468 280 r knob2;
#X obj 286 416 s screenLine1;
#X obj 422 416 s screenLine2;
#X floatatom 44 35 5 0 0 0 - - -, f 5;
#X obj 117 107 blsaw;
#X obj 542 287 r knob3;
#X obj 532 416 s screenLine3;
#X obj 682 416 s screenLine4;
#X obj 648 280 r knob4;
#X obj 203 58 metro 250;
#X msg 207 80 1 5 \, 0 0 125;
#X floatatom 303 41 5 0 0 0 - - -, f 5;
#X obj 364 311 s sdly-time;
#X obj 291 395 r sdly-time-label;
#X obj 423 395 r sdly-fb-label;
#X obj 474 311 s sdly-fb;
#X obj 544 311 s sdly-spread;
#X obj 537 395 r sdly-spread-label;
#X obj 655 311 s sdly-dw;
#X obj 683 395 r sdly-dw-label;
#X obj 189 190 s~ sdly-in;
#X obj 139 281 r~ sdly-outR;
#X obj 29 282 r~ sdly-outL;
#X obj 462 33 StereoDelay;
#X obj 16 72 loadbang;
#X msg 16 94 56;
#X obj 16 116 mtof;
#X obj 24 148 blsaw;
#X msg 109 53 51;
#X connect 0 0 29 0;
#X connect 1 0 2 0;
#X connect 1 0 2 1;
#X connect 2 0 0 1;
#X connect 3 0 37 0;
#X connect 4 0 13 0;
#X connect 5 0 18 0;
#X connect 8 0 21 0;
#X connect 9 0 24 0;
#X connect 12 0 4 0;
#X connect 13 0 0 0;
#X connect 14 0 25 0;
#X connect 17 0 27 0;
#X connect 18 0 19 0;
#X connect 19 0 1 0;
#X connect 20 0 18 1;
#X connect 22 0 10 0;
#X connect 23 0 11 0;
#X connect 26 0 15 0;
#X connect 28 0 16 0;
#X connect 30 0 7 0;
#X connect 31 0 6 0;
#X connect 33 0 34 0;
#X connect 34 0 35 0;
#X connect 35 0 36 0;
#X connect 36 0 0 0;
#X connect 37 0 4 0;
