#N canvas 958 110 946 777 10;
#X obj 52 540 bonk~;
#X msg 121 393 learn 0;
#X msg 128 446 forget;
#X msg 196 491 read DrumTrigger.txt;
#X obj 196 467 loadbang;
#N canvas 7 50 450 300 init 0;
#X msg 81 103 mask 4 0.7, f 11;
#X msg 95 128 attack-frames 1;
#X msg 104 151 minvel 7;
#X obj 73 45 loadbang;
#X obj 73 253 outlet;
#X msg 122 178 debounce 0;
#X msg 73 81 thresh 2.5 8;
#X connect 0 0 4 0;
#X connect 1 0 4 0;
#X connect 2 0 4 0;
#X connect 3 0 6 0;
#X connect 3 0 0 0;
#X connect 3 0 1 0;
#X connect 3 0 2 0;
#X connect 3 0 5 0;
#X connect 5 0 4 0;
#X connect 6 0 4 0;
#X restore 64 398 pd init;
#X obj 52 663 makenote 100 100;
#X obj 571 233 r drum-length;
#X obj 571 255 * 1001;
#X obj 571 277 int;
#X obj 571 329 s drum-length-label;
#X msg 571 306 Note Length \$1 ms;
#X obj 52 564 unpack 0 0;
#X obj 52 685 pack 0 0;
#X obj 52 707 s drum-notes-out;
#X obj 52 121 r~ drum-in;
#X obj 52 616 % 24;
#X obj 52 586 +;
#X obj 369 224 r drum-offset;
#X obj 369 268 int;
#X msg 368 300 Offset Note \$1;
#X obj 368 321 s drum-offset-label;
#X obj 96 144 r drum-learn;
#X obj 96 191 sel 1;
#X obj 96 347 tgl 15 0 empty empty empty 17 7 0 10 -262144 -1 -1 0
1;
#X obj 96 367 sel 1 0;
#X msg 96 469 learn 10;
#X obj 96 424 t b b;
#X obj 368 248 * 25;
#X obj 175 335 s drum-learn-label;
#X text 617 271 Length of Notes sent out;
#X text 298 206 Offset the triggers' MIDI notes;
#X obj 52 638 + 1;
#X text 142 191 Drum-learn: toggle learn mode off and on;
#X obj 175 212 sel 0 1;
#X obj 175 234 symbol off;
#X obj 208 281 symbol on;
#X msg 175 308 Learn Mode: \$1;
#X msg 256 406 write DrumTrigger.txt;
#X text 416 406 NOTE: add the object to write when patch is saved;
#X text 41 9 DrumTrigger listens to audio attacks and assigns them
to 1-24 MIDI notes. Ideal for Percussion. With Learn mode on play each
control note/drum 10 times each. Than turn learn mode off. The DrumTrigger
will learn each attack. This is a Module;
#X connect 0 1 12 0;
#X connect 1 0 0 0;
#X connect 2 0 0 0;
#X connect 3 0 0 0;
#X connect 4 0 3 0;
#X connect 5 0 0 0;
#X connect 6 0 13 0;
#X connect 7 0 8 0;
#X connect 8 0 9 0;
#X connect 9 0 6 2;
#X connect 9 0 11 0;
#X connect 11 0 10 0;
#X connect 12 0 17 0;
#X connect 12 1 6 1;
#X connect 13 0 14 0;
#X connect 15 0 0 0;
#X connect 16 0 32 0;
#X connect 17 0 16 0;
#X connect 18 0 28 0;
#X connect 19 0 17 1;
#X connect 19 0 20 0;
#X connect 20 0 21 0;
#X connect 22 0 23 0;
#X connect 23 0 24 0;
#X connect 24 0 25 0;
#X connect 24 0 34 0;
#X connect 25 0 27 0;
#X connect 25 1 1 0;
#X connect 26 0 0 0;
#X connect 27 0 26 0;
#X connect 27 1 2 0;
#X connect 28 0 19 0;
#X connect 32 0 6 0;
#X connect 34 0 35 0;
#X connect 34 1 36 0;
#X connect 35 0 37 0;
#X connect 36 0 37 0;
#X connect 37 0 29 0;
#X connect 38 0 0 0;
