#N canvas 36 96 854 916 10;
#X obj 14 732 bob~, f 21;
#X obj 157 707 line~;
#X obj 157 682 pack 0 50;
#X obj 157 651 * 3.8;
#X obj 282 343 i;
#X obj 168 527 * 101;
#X obj 168 548 i;
#X obj 14 810 *~ 1;
#X obj 148 808 *~ 1;
#X msg 168 573 Resonance \$1 %;
#X msg 282 364 Cutoff \$1 Hz;
#X obj 14 89 r~ moogOscil-in;
#X obj 157 482 r moogOscil-res;
#X obj 168 595 s moogOscil-res-label;
#X obj 282 385 s moogOscil-cut-label;
#X obj 148 837 s~ moogOscil-outR;
#X obj 15 837 s~ moogOscil-outL;
#X obj 85 206 pack 0 50;
#X obj 85 233 line~;
#X obj 85 172 mtof;
#X obj 85 147 * 120;
#X obj 173 335 osc~;
#X obj 172 367 *~, f 10;
#X obj 173 285 line~;
#X obj 173 261 pack 0 50;
#X obj 173 214 *;
#X obj 173 187 t f f;
#X obj 85 404 +~, f 13;
#X obj 257 275 line~;
#X obj 257 250 pack 0 50;
#X obj 85 122 r moogOscil-cut;
#X obj 238 335 *~;
#X obj 173 236 * 10;
#X obj 437 385 s moogOscil-rate-label;
#X msg 438 364 Rate \$1 Hz;
#X obj 607 343 i;
#X obj 606 385 s moogOscil-depth-label;
#X obj 257 220 r moogOscil-depth;
#X obj 173 163 r moogOscil-rate;
#X msg 606 364 Depth \$1 %;
#X obj 607 321 * 101;
#X text 6 5 Moog Resonant Filter effect module \, with LFO oscillation
;
#X connect 0 0 7 0;
#X connect 0 0 8 0;
#X connect 1 0 0 2;
#X connect 2 0 1 0;
#X connect 3 0 2 0;
#X connect 4 0 10 0;
#X connect 5 0 6 0;
#X connect 6 0 9 0;
#X connect 7 0 16 0;
#X connect 8 0 15 0;
#X connect 9 0 13 0;
#X connect 10 0 14 0;
#X connect 11 0 0 0;
#X connect 12 0 5 0;
#X connect 12 0 3 0;
#X connect 17 0 18 0;
#X connect 18 0 27 0;
#X connect 18 0 31 0;
#X connect 19 0 17 0;
#X connect 19 0 4 0;
#X connect 20 0 19 0;
#X connect 21 0 22 0;
#X connect 22 0 27 1;
#X connect 23 0 21 0;
#X connect 24 0 23 0;
#X connect 25 0 32 0;
#X connect 26 0 25 0;
#X connect 26 1 25 1;
#X connect 27 0 0 1;
#X connect 28 0 31 1;
#X connect 29 0 28 0;
#X connect 30 0 20 0;
#X connect 31 0 22 1;
#X connect 32 0 24 0;
#X connect 32 0 34 0;
#X connect 34 0 33 0;
#X connect 35 0 39 0;
#X connect 37 0 29 0;
#X connect 37 0 40 0;
#X connect 38 0 26 0;
#X connect 39 0 36 0;
#X connect 40 0 35 0;
