#N canvas 452 50 1062 818 10;
#X obj 462 533 i;
#X obj 628 477 * 100;
#X obj 628 505 i;
#X obj 815 492 * 101;
#X obj 815 524 i;
#X msg 382 314 wet \$1;
#X msg 489 305 dry \$1;
#X obj 130 452 freeverb~;
#X msg 382 254 \$1 40;
#X msg 489 244 \$1 40;
#X obj 489 274 line 0 1;
#X obj 382 282 line 0 1;
#X obj 489 184 - 1;
#X obj 489 211 abs;
#X msg 257 244 \$1 40;
#X obj 257 272 line 0 1;
#X msg 258 311 roomsize \$1;
#X obj 256 216 * 0.9;
#X msg 603 236 \$1 40;
#X obj 603 264 line 0 1;
#X msg 601 304 damping \$1;
#X obj 456 491 + 1;
#X obj 458 461 * 100;
#X obj 123 83 r~ rev-in;
#X obj 257 177 r rev-size;
#X obj 489 117 r rev-drywet;
#X obj 603 169 r rev-damp;
#X msg 628 534 Dry / Wet \$1 %;
#X msg 810 554 Damping \$1 %;
#X obj 463 607 s rev-size-label;
#X obj 626 609 s rev-drywet-label;
#X obj 804 608 s rev-damp-label;
#X obj 131 642 s~ rev-outL;
#X obj 226 642 s~ rev-outR;
#X obj 489 151 * 0.5;
#X msg 463 558 Room Size \$1;
#X connect 0 0 35 0;
#X connect 1 0 2 0;
#X connect 2 0 27 0;
#X connect 3 0 4 0;
#X connect 4 0 28 0;
#X connect 5 0 7 0;
#X connect 6 0 7 0;
#X connect 7 0 32 0;
#X connect 7 1 33 0;
#X connect 8 0 11 0;
#X connect 9 0 10 0;
#X connect 10 0 6 0;
#X connect 11 0 5 0;
#X connect 12 0 13 0;
#X connect 13 0 9 0;
#X connect 14 0 15 0;
#X connect 15 0 16 0;
#X connect 16 0 7 0;
#X connect 17 0 14 0;
#X connect 18 0 19 0;
#X connect 19 0 20 0;
#X connect 20 0 7 0;
#X connect 21 0 0 0;
#X connect 22 0 21 0;
#X connect 23 0 7 0;
#X connect 23 0 7 1;
#X connect 24 0 17 0;
#X connect 24 0 22 0;
#X connect 25 0 1 0;
#X connect 25 0 34 0;
#X connect 26 0 18 0;
#X connect 26 0 3 0;
#X connect 27 0 30 0;
#X connect 28 0 31 0;
#X connect 34 0 12 0;
#X connect 34 0 8 0;
#X connect 35 0 29 0;
