#N canvas 6 209 1069 693 10;
#X text 3 34 Argument 2: Instance Number;
#X text 3 13 Argument 1: Shortcut Name;
#X obj 170 110 r mix2s-\$1-level1;
#X obj 22 302 *~;
#X obj 230 152 * 101;
#X obj 230 174 int;
#X obj 230 218 s mix2s-\$1-level1-label;
#X obj 532 302 *~;
#X obj 750 133 * 101;
#X obj 750 155 int;
#X obj 710 110 r mix2s-\$1-level2;
#X obj 750 200 s mix2s-\$1-level2-label;
#X msg 230 196 Level 1: \$1%;
#X msg 750 177 Level 2: \$1%;
#X obj 22 510 s~ mix2s-\$1-outL;
#X obj 530 509 s~ mix2s-\$1-outR;
#X obj 900 110 r mix2s-\$1-pan2;
#X obj 900 259 int;
#X obj 981 265 int;
#X msg 942 346 Center;
#X msg 900 286 Left \$1%;
#X msg 981 296 Right \$1%;
#X obj 900 149 detent 0.005;
#X obj 981 213 - 0.5;
#X obj 900 175 expr 0.5 - $f1;
#X obj 900 197 * 201;
#X obj 981 241 * 201;
#X obj 900 368 s mix2s-\$1-pan2-label;
#X obj 361 252 int;
#X obj 442 258 int;
#X msg 403 339 Center;
#X msg 361 279 Left \$1%;
#X msg 442 289 Right \$1%;
#X obj 442 206 - 0.5;
#X obj 361 168 expr 0.5 - $f1;
#X obj 361 190 * 201;
#X obj 442 234 * 201;
#X obj 361 110 r mix2s-\$1-pan1;
#X obj 361 361 s mix2s-\$1-pan1-label;
#X obj 361 142 detent 0.005;
#X text 265 11 Module that mixes and pans two stereo Inputs.;
#X obj 22 80 r~ mix2s-\$1-in1L;
#X obj 122 302 *~;
#X obj 533 372 e_pan 0.5;
#X obj 631 301 *~;
#X obj 122 80 r~ mix2s-\$1-in1R;
#X obj 531 79 r~ mix2s-\$1-in2L;
#X obj 631 79 r~ mix2s-\$1-in2R;
#X obj 170 267 lop~ 5;
#X obj 710 237 lop~ 5;
#X obj 23 372 e_pan 0.5;
#X connect 2 0 4 0;
#X connect 2 0 48 0;
#X connect 3 0 50 0;
#X connect 4 0 5 0;
#X connect 5 0 12 0;
#X connect 7 0 43 0;
#X connect 8 0 9 0;
#X connect 9 0 13 0;
#X connect 10 0 8 0;
#X connect 10 0 49 0;
#X connect 12 0 6 0;
#X connect 13 0 11 0;
#X connect 16 0 22 0;
#X connect 16 0 43 2;
#X connect 17 0 20 0;
#X connect 18 0 21 0;
#X connect 19 0 27 0;
#X connect 20 0 27 0;
#X connect 21 0 27 0;
#X connect 22 0 24 0;
#X connect 22 1 19 0;
#X connect 22 2 23 0;
#X connect 23 0 26 0;
#X connect 24 0 25 0;
#X connect 25 0 17 0;
#X connect 26 0 18 0;
#X connect 28 0 31 0;
#X connect 29 0 32 0;
#X connect 30 0 38 0;
#X connect 31 0 38 0;
#X connect 32 0 38 0;
#X connect 33 0 36 0;
#X connect 34 0 35 0;
#X connect 35 0 28 0;
#X connect 36 0 29 0;
#X connect 37 0 39 0;
#X connect 37 0 50 2;
#X connect 39 0 34 0;
#X connect 39 1 30 0;
#X connect 39 2 33 0;
#X connect 41 0 3 0;
#X connect 42 0 50 1;
#X connect 43 0 14 0;
#X connect 43 1 15 0;
#X connect 44 0 43 1;
#X connect 45 0 42 0;
#X connect 46 0 7 0;
#X connect 47 0 44 0;
#X connect 48 0 3 1;
#X connect 48 0 42 1;
#X connect 49 0 7 1;
#X connect 49 0 44 1;
#X connect 50 0 14 0;
#X connect 50 1 15 0;
