#N canvas 4 50 684 850 10;
#X obj 145 263 +~ 1;
#X obj 145 290 *~ 0.5;
#X obj 373 555 delwrite~ \$0-delay1 5000;
#X obj 145 586 vd~ \$0-delay1, f 16;
#N canvas 10 50 450 300 rep 0;
#X obj 119 16 inlet~;
#X obj 164 96 tgl 15 0 empty empty empty 17 7 0 10 -262144 -1 -1 0
1;
#X obj 164 45 loadbang;
#X obj 119 149 tabwrite~ \$0-LFO1;
#X obj 164 119 metro 100;
#X obj 236 15 block~ 4096 1 0.125;
#X obj 164 70 f 0;
#X connect 0 0 3 0;
#X connect 1 0 4 0;
#X connect 2 0 6 0;
#X connect 4 0 3 0;
#X connect 6 0 1 0;
#X restore 159 317 pd rep;
#N canvas 0 50 450 300 (subpatch) 0;
#X array \$0-LFO1 4096 float 0;
#X coords 0 1 4095 0 150 98 2 0 0;
#X restore 336 720 graph;
#X text 89 210 Low Frequency Oscillator;
#X text 281 586 x[n-t];
#X text 396 695 t (ms);
#X text 339 184 Depth (ms);
#X text 40 656 x[n];
#X obj 373 498 *~ 1;
#X text 158 684 y[n] = x[n] + ax[n-t];
#X text 411 421 Feedback (0-1);
#X obj 145 236 osc~ 1;
#X text 211 656 ax[n-t];
#X text 228 95 Rate (Hz);
#X text 398 362 Shift (ms);
#X obj 36 683 +~, f 16;
#X obj 145 349 *~ 1, f 9;
#X obj 145 118 t f f;
#X obj 145 142 *;
#X obj 145 164 * 10;
#X obj 145 405 +~, f 11;
#X obj 392 306 sig~;
#X obj 392 328 lop~ 10;
#X obj 220 383 +~ 1;
#X obj 392 282 * 10;
#X obj 35 775 *~ 1;
#X obj 128 775 *~ 1;
#X obj 35 37 r~ flan-in;
#X text 2 4 Flange effect module;
#X obj 145 92 r flan-rate;
#X obj 370 160 r flan-depth;
#X obj 392 251 r flan-shift;
#X obj 398 396 r flan-feedback;
#X msg 209 142 Rate \$1 Hz;
#X obj 209 163 s flan-rate-label;
#X obj 503 281 s flan-depth-label;
#X obj 503 213 * 101;
#X obj 503 235 int;
#X msg 503 259 Depth \$1 %;
#X msg 503 329 Shift \$1 Hz;
#X obj 503 351 s flan-shift-label;
#X text 210 319 turn on to see LFO;
#X obj 34 804 s~ flan-outL;
#X obj 128 804 s~ flan-outR;
#X obj 494 473 int;
#X obj 494 451 * 100;
#X msg 494 497 Feedback \$1 %;
#X obj 494 519 s flan-feedback-label;
#X text 395 30 Rate;
#X text 450 30 Depth;
#X text 512 31 Shift;
#X text 578 31 Feedback;
#X connect 0 0 1 0;
#X connect 1 0 19 0;
#X connect 1 0 4 0;
#X connect 3 0 11 0;
#X connect 3 0 18 1;
#X connect 11 0 2 0;
#X connect 14 0 0 0;
#X connect 18 0 28 0;
#X connect 18 0 29 0;
#X connect 19 0 23 0;
#X connect 20 0 21 0;
#X connect 20 1 21 1;
#X connect 21 0 22 0;
#X connect 22 0 14 0;
#X connect 22 0 36 0;
#X connect 23 0 3 0;
#X connect 24 0 25 0;
#X connect 25 0 26 0;
#X connect 26 0 23 1;
#X connect 27 0 24 0;
#X connect 27 0 42 0;
#X connect 28 0 45 0;
#X connect 29 0 46 0;
#X connect 30 0 2 0;
#X connect 30 0 18 0;
#X connect 32 0 20 0;
#X connect 33 0 19 1;
#X connect 33 0 39 0;
#X connect 34 0 27 0;
#X connect 35 0 11 1;
#X connect 35 0 48 0;
#X connect 36 0 37 0;
#X connect 39 0 40 0;
#X connect 40 0 41 0;
#X connect 41 0 38 0;
#X connect 42 0 43 0;
#X connect 47 0 49 0;
#X connect 48 0 47 0;
#X connect 49 0 50 0;
