#N canvas 21 157 571 693 10;
#N canvas 7 50 612 483 crossfade 0;
#X obj 33 48 inlet~;
#X obj 211 67 inlet;
#X obj 39 327 outlet~;
#X obj 49 194 expr cos($f1 * 3.14159 / 2);
#X obj 244 194 expr sin($f1 * 3.14159 / 2);
#X obj 211 143 clip 0 1;
#N canvas 7 50 594 632 pan_core 0;
#X obj 21 106 inlet~;
#X obj 226 126 inlet;
#X obj 59 259 *~;
#X obj 123 303 outlet~;
#X obj 189 258 *~;
#X obj 205 234 line~;
#X obj 75 234 line~;
#X obj 96 127 inlet;
#X obj 179 104 inlet~;
#X text 223 350 comment;
#X obj 75 195 pack f 5;
#X obj 205 195 pack f 5;
#X text 202 346 Hans-Christoph Steiner \, 2004;
#X text 202 332 Adapted from [pan_core~];
#X connect 0 0 2 0;
#X connect 1 0 11 0;
#X connect 2 0 3 0;
#X connect 4 0 3 0;
#X connect 5 0 4 1;
#X connect 6 0 2 1;
#X connect 7 0 10 0;
#X connect 8 0 4 0;
#X connect 10 0 6 0;
#X connect 11 0 5 0;
#X restore 39 266 pd pan_core;
#X text 165 300 Adapted from [equal_power_pan~] \, Hans-Christoph Steiner
\, 2004;
#X text 320 312 comment;
#X obj 128 46 inlet~;
#X connect 0 0 6 0;
#X connect 1 0 5 0;
#X connect 3 0 6 1;
#X connect 4 0 6 3;
#X connect 5 0 3 0;
#X connect 5 0 4 0;
#X connect 6 0 2 0;
#X connect 9 0 6 2;
#X restore 154 550 pd crossfade;
#X obj 273 461 i;
#X obj 273 438 * 101;
#X obj 195 322 bob~, f 21;
#X obj 225 262 pack 0 50;
#X obj 225 287 line~;
#X obj 376 287 line~;
#X obj 376 262 pack 0 50;
#X obj 376 231 * 3.8;
#X obj 225 117 mtof;
#X obj 225 92 * 120;
#X obj 236 138 i;
#X obj 387 107 * 101;
#X obj 387 128 i;
#X obj 155 620 *~ 1;
#X obj 249 618 *~ 1;
#X msg 387 153 Resonance \$1 %;
#X obj 376 62 r moog-res, f 11;
#X obj 387 175 s moog-res-label;
#X msg 236 159 Cutoff \$1 Hz;
#X obj 225 56 r moog-cut;
#X obj 273 408 r moog-dw;
#X obj 273 506 s moog-dw-label;
#X msg 273 484 Dry / Wet \$1 %;
#X obj 155 29 r~ moog-in;
#X obj 156 647 s~ moog-outL;
#X obj 249 647 s~ moog-outR;
#X text 6 6 Moog Resonant Filter effect module;
#X obj 236 181 s moog-cut-label;
#X connect 0 0 14 0;
#X connect 0 0 15 0;
#X connect 1 0 23 0;
#X connect 2 0 1 0;
#X connect 3 0 0 1;
#X connect 4 0 5 0;
#X connect 5 0 3 1;
#X connect 6 0 3 2;
#X connect 7 0 6 0;
#X connect 8 0 7 0;
#X connect 9 0 4 0;
#X connect 9 0 11 0;
#X connect 10 0 9 0;
#X connect 11 0 19 0;
#X connect 12 0 13 0;
#X connect 13 0 16 0;
#X connect 14 0 25 0;
#X connect 15 0 26 0;
#X connect 16 0 18 0;
#X connect 17 0 12 0;
#X connect 17 0 8 0;
#X connect 19 0 28 0;
#X connect 20 0 10 0;
#X connect 21 0 0 2;
#X connect 21 0 2 0;
#X connect 23 0 22 0;
#X connect 24 0 0 0;
#X connect 24 0 3 0;
