#N canvas 571 132 1345 775 10;
#N canvas 0 50 612 483 equal_power_crossfade 0;
#X obj 33 48 inlet~;
#X obj 244 58 inlet;
#X obj 33 332 outlet~;
#X obj 319 54 loadbang;
#X msg 319 74 0.5;
#X obj 49 194 expr cos($f1 * 3.14159 / 2);
#X obj 244 194 expr sin($f1 * 3.14159 / 2);
#X obj 244 134 clip 0 1;
#N canvas 0 50 450 300 pan_core 0;
#X obj 21 106 inlet~;
#X obj 226 126 inlet;
#X obj 80 453 *~;
#X obj 144 497 outlet~;
#X obj 210 452 *~;
#X obj 226 428 line~;
#X obj 96 428 line~;
#X obj 96 127 inlet;
#X obj 179 104 inlet~;
#X text 244 544 comment;
#X obj 96 389 pack f 5;
#X obj 226 389 pack f 5;
#X text 223 540 Hans-Christoph Steiner \, 2004;
#X text 223 526 Adapted from [pan_core~];
#X connect 0 0 2 0;
#X connect 1 0 11 0;
#X connect 2 0 3 0;
#X connect 4 0 3 0;
#X connect 5 0 4 1;
#X connect 6 0 2 1;
#X connect 7 0 10 0;
#X connect 8 0 4 0;
#X connect 10 0 6 0;
#X connect 11 0 5 0;
#X restore 39 266 pd pan_core;
#X text 256 437 Adapted from [equal_power_pan~] \, Hans-Christoph Steiner
\, 2004;
#X text 411 449 comment;
#X obj 128 46 inlet~;
#X connect 0 0 8 0;
#X connect 1 0 7 0;
#X connect 3 0 4 0;
#X connect 4 0 7 0;
#X connect 5 0 8 1;
#X connect 6 0 8 3;
#X connect 7 0 5 0;
#X connect 7 0 6 0;
#X connect 8 0 2 0;
#X connect 11 0 8 2;
#X restore 6 620 pd equal_power_crossfade;
#X obj 150 572 hsl 128 25 0 1 0 0 empty crossfade Dry_---_Wet_(crossfade)
-2 -8 0 10 -4034 -1 -1 4403 1;
#X obj 62 573 *~ 10;
#N canvas 9 50 450 300 init 0;
#X obj 214 41 loadbang;
#X msg 217 77 \; del-sin 1 \; fb-sin 1 \; gain-flat 1 \; lp-freq 220
\; slope -0.04 \; crossfade 0.5 \;;
#X connect 0 0 1 0;
#X restore 168 48 pd init;
#X obj 644 366 *;
#X obj 644 340 t f f;
#X obj 644 393 * 127;
#X obj 644 415 s del-sin;
#X obj 778 369 *;
#X obj 778 343 t f f;
#X obj 778 396 * 127;
#X obj 778 460 s fb-sin;
#X obj 1026 364 s crossfade;
#X obj 889 427 s fbscale;
#X obj 778 433 f;
#X obj 857 401 t b f;
#X obj 642 617 i;
#X obj 733 475 * 100;
#X obj 733 503 i;
#X obj 1064 459 * 101;
#X obj 1064 481 i;
#X obj 895 459 * 101;
#X obj 895 491 i;
#X obj 5 673 *~ 1;
#X obj 128 673 *~ 1;
#X obj 4 702 s~ specdel-outL;
#X obj 128 702 s~ specdel-outR;
#X obj 644 318 r specdel-time;
#X obj 777 321 r specdel-fb;
#X obj 1026 342 r specdel-dw;
#X obj 849 350 r specdel-fbscale;
#X obj 7 46 r~ specdel-in;
#X text 0 3 Spectral Delay Effect Moduled;
#X obj 642 589 * 101;
#X msg 733 527 Fbk Spectrum \$1;
#X msg 643 641 Dly Spectrum \$1;
#X msg 895 524 Fbk Scale \$1;
#X msg 1068 522 Dry / Wet \$1 %;
#X obj 643 663 s specdel-time-label;
#X obj 730 549 s specdel-fb-label;
#X obj 895 545 s specdel-fbscale-label;
#X obj 1068 544 s specdel-dw-label;
#X obj 63 186 Guitar_specdelay~;
#X connect 0 0 23 0;
#X connect 0 0 24 0;
#X connect 1 0 0 2;
#X connect 2 0 0 1;
#X connect 4 0 6 0;
#X connect 5 0 4 0;
#X connect 5 1 4 1;
#X connect 6 0 7 0;
#X connect 8 0 10 0;
#X connect 9 0 8 0;
#X connect 9 1 8 1;
#X connect 10 0 14 0;
#X connect 14 0 11 0;
#X connect 15 0 14 0;
#X connect 15 1 13 0;
#X connect 16 0 35 0;
#X connect 17 0 18 0;
#X connect 18 0 34 0;
#X connect 19 0 20 0;
#X connect 20 0 37 0;
#X connect 21 0 22 0;
#X connect 22 0 36 0;
#X connect 23 0 25 0;
#X connect 24 0 26 0;
#X connect 27 0 5 0;
#X connect 27 0 33 0;
#X connect 28 0 9 0;
#X connect 28 0 17 0;
#X connect 29 0 12 0;
#X connect 29 0 19 0;
#X connect 30 0 15 0;
#X connect 30 0 21 0;
#X connect 31 0 0 0;
#X connect 31 0 42 0;
#X connect 33 0 16 0;
#X connect 34 0 39 0;
#X connect 35 0 38 0;
#X connect 36 0 40 0;
#X connect 37 0 41 0;
#X connect 42 0 2 0;
