#N canvas 640 165 1176 722 10;
#X obj 189 160 *~;
#X obj 206 102 vline~;
#X obj 206 124 *~;
#X obj 109 31 loadbang;
#X msg 109 53 56;
#X obj 109 75 mtof;
#X obj 201 23 tgl 15 0 empty empty empty 17 7 0 10 -262144 -1 -1 0
1;
#X obj 29 304 throw~ outL;
#X obj 148 305 throw~ outR;
#X floatatom 44 35 5 0 0 0 - - -, f 5;
#X obj 462 33 SpectralDelay;
#X obj 117 107 blsaw;
#X obj 189 191 s~ specdel-in;
#X obj 29 284 r~ specdel-outL;
#X obj 149 283 r~ specdel-outR;
#X obj 329 182 s specdel-time;
#X obj 462 185 s specdel-fb;
#X obj 534 214 s specdel-fbscale;
#X obj 711 206 s specdel-dw;
#X obj 415 413 r specdel-fb-label;
#X obj 580 409 r specdel-fbscale-label;
#X obj 753 408 r specdel-dw-label;
#X obj 239 421 r specdel-time-label;
#X obj 334 145 r knob1;
#X obj 440 138 r knob2;
#X obj 549 159 r knob3;
#X obj 653 152 r knob4;
#X obj 240 467 s screenLine1;
#X obj 414 447 s screenLine2;
#X obj 583 444 s screenLine3;
#X obj 753 430 s screenLine4;
#X obj 203 58 metro 250;
#X msg 207 80 1 5 \, 0 0 200;
#X connect 0 0 12 0;
#X connect 1 0 2 0;
#X connect 1 0 2 1;
#X connect 2 0 0 1;
#X connect 3 0 4 0;
#X connect 4 0 5 0;
#X connect 5 0 11 0;
#X connect 6 0 31 0;
#X connect 9 0 5 0;
#X connect 11 0 0 0;
#X connect 13 0 7 0;
#X connect 14 0 8 0;
#X connect 19 0 28 0;
#X connect 20 0 29 0;
#X connect 21 0 30 0;
#X connect 22 0 27 0;
#X connect 23 0 15 0;
#X connect 24 0 16 0;
#X connect 25 0 17 0;
#X connect 26 0 18 0;
#X connect 31 0 32 0;
#X connect 32 0 1 0;
