#N canvas 538 50 1371 914 10;
#X obj 197 355 expr 1000 / $f1;
#X obj 197 438 *, f 6;
#X obj 209 406 t b f;
#X obj 75 251 array size;
#X obj 142 227 route list;
#X obj 43 -63 inlet;
#X obj 75 -19 unpack 0 0, f 54;
#X obj 432 192 sel 0, f 17;
#X obj 531 465 vline~;
#X obj 531 495 *~;
#X obj 531 368 * 0.00787402;
#X obj 196 792 *~, f 27;
#X text 663 9 plays a sound file;
#X obj 196 648 *~ 140688, f 12;
#X obj 196 735 *~, f 20;
#X obj 331 648 *~ 22016;
#X text 222 737 clickless window;
#X obj 196 697 tabread4~;
#X obj 690 588 switch~;
#X msg 471 390 0 \$1;
#X obj 471 363 f;
#X obj 432 365 del;
#X obj 447 326 + 4;
#X obj 432 234 t b b, f 7;
#X msg 690 283 1;
#X msg 432 387 0;
#X obj 197 822 hip~ 5;
#X text 246 821 cut DC;
#X text 728 280 turn on dsp;
#X text 513 340 Velocity Relative Trigger;
#X text 414 411 turn dsp off;
#X obj 531 237 t f b b, f 27;
#X obj 257 543 f;
#X text 155 254 get size of chosen array;
#X text 59 648 point to new array;
#X text 580 256 reset phasor;
#X obj 257 441 t b b;
#X obj 432 126 f;
#X text 273 793 release envelope;
#X obj 196 762 *~, f 24;
#X text 263 763 decay envelope;
#X msg 531 428 \$1 4;
#X text 546 629 re-trigger for decay;
#N canvas 680 68 609 653 decay 0;
#X obj 82 486 outlet~;
#X obj 19 2 inlet;
#X obj 82 453 *~;
#X obj 81 422 vline~;
#X obj 81 329 f 1000;
#X obj 121 293 *;
#X obj 81 357 pack 0 0;
#X obj 121 122 t f f;
#X text 191 143 if knob all the way up \, never decay;
#X text 273 91 do a simple amplitude decay;
#X obj 190 171 expr if($f1 > 0.98 \, 1 \, 0);
#X obj 19 234 t b b;
#X msg 81 386 1 1 \, \$2 \$1 1;
#X text 35 26 trigger;
#X obj 139 258 * 4;
#X msg 39 354 0;
#X obj 139 8 inlet;
#X text 155 29 duration;
#X obj 1079 360 s s24-\$1-decay-local;
#X obj 121 90 r s24-\$1-decay-local;
#X connect 1 0 11 0;
#X connect 2 0 0 0;
#X connect 3 0 2 0;
#X connect 3 0 2 1;
#X connect 4 0 6 0;
#X connect 5 0 4 1;
#X connect 6 0 12 0;
#X connect 7 0 5 0;
#X connect 7 1 10 0;
#X connect 10 0 6 1;
#X connect 11 0 4 0;
#X connect 11 1 15 0;
#X connect 12 0 3 0;
#X connect 14 0 5 1;
#X connect 15 0 3 0;
#X connect 16 0 14 0;
#X connect 19 0 7 0;
#X restore 499 698 pd decay;
#X obj 499 647 threshold~ 0.0001 0 0.9999 0;
#X obj 42 336 s \$0-duration;
#X obj 75 311 s \$0-duration-ms;
#X obj 75 285 / 44.1;
#X obj 277 595 r \$0-duration;
#X obj 332 697 tabread4~ s24-\$1-crown;
#X obj 486 293 r s24-\$1-release-local;
#X obj 209 380 r s24-\$1-speed-local;
#X obj 275 507 r s24-\$1-start-local;
#X obj 197 850 throw~ s24-\$1-voice-out;
#X obj 142 200 list prepend symbol;
#X text 661 31 Argument1: Module Shortcut Name;
#X text 663 51 Argument2: Module Number;
#X obj 197 599 s_vphasor;
#X obj 221 493 f;
#X obj 197 326 r \$0-duration-ms;
#X obj 552 672 r \$0-duration-ms;
#X obj 75 33 f;
#X obj 43 -41 t b l;
#X obj 43 11 t b b;
#X msg 197 460 \$1 20;
#X obj 197 529 vline~;
#X obj 41 577 route list;
#X obj 41 550 list prepend set;
#X obj 75 174 t b a a, f 12;
#X obj 75 125 pack 0 \$1;
#X msg 75 149 \$1.wav-s24-array-\$2;
#X connect 0 0 1 0;
#X connect 1 0 64 0;
#X connect 1 0 58 1;
#X connect 2 0 1 0;
#X connect 2 1 1 1;
#X connect 3 0 45 0;
#X connect 3 0 47 0;
#X connect 4 0 3 1;
#X connect 5 0 62 0;
#X connect 6 0 61 1;
#X connect 6 1 37 1;
#X connect 7 0 23 0;
#X connect 7 1 31 0;
#X connect 8 0 9 1;
#X connect 8 0 9 0;
#X connect 9 0 11 1;
#X connect 10 0 41 0;
#X connect 11 0 26 0;
#X connect 13 0 17 0;
#X connect 14 0 39 0;
#X connect 15 0 49 0;
#X connect 17 0 14 0;
#X connect 19 0 8 0;
#X connect 20 0 19 0;
#X connect 21 0 25 0;
#X connect 22 0 21 1;
#X connect 23 0 21 0;
#X connect 23 1 20 0;
#X connect 24 0 18 0;
#X connect 25 0 18 0;
#X connect 26 0 53 0;
#X connect 31 0 10 0;
#X connect 31 1 36 0;
#X connect 31 2 24 0;
#X connect 32 0 57 1;
#X connect 36 0 58 0;
#X connect 36 1 32 0;
#X connect 37 0 7 0;
#X connect 39 0 11 0;
#X connect 41 0 8 0;
#X connect 43 0 39 1;
#X connect 44 0 43 0;
#X connect 47 0 46 0;
#X connect 48 0 13 1;
#X connect 49 0 14 1;
#X connect 50 0 22 0;
#X connect 50 0 20 1;
#X connect 51 0 2 0;
#X connect 52 0 32 1;
#X connect 54 0 4 0;
#X connect 57 0 13 0;
#X connect 57 0 15 0;
#X connect 57 0 44 0;
#X connect 58 0 65 0;
#X connect 59 0 0 0;
#X connect 60 0 43 1;
#X connect 61 0 69 0;
#X connect 62 0 63 0;
#X connect 62 1 6 0;
#X connect 63 0 37 0;
#X connect 63 1 61 0;
#X connect 64 0 65 0;
#X connect 65 0 57 0;
#X connect 66 0 17 0;
#X connect 67 0 66 0;
#X connect 68 0 3 0;
#X connect 68 1 54 0;
#X connect 68 2 67 0;
#X connect 69 0 70 0;
#X connect 70 0 68 0;
