#N canvas 281 103 1185 798 10;
#X declare -path sounds;
#X obj 635 334 f;
#X obj 635 454 int;
#X obj 772 430 int;
#X obj 772 386 * 4.48;
#X obj 772 408 * 100;
#X obj 635 404 * -1;
#X obj 635 434 * 100;
#X obj 635 382 * 4.46;
#X obj 485 510 f;
#X msg 672 485 Samp Speed 0%;
#X msg 771 522 Samp Speed \$1%;
#X obj 635 360 detent 0.05;
#N canvas 1098 512 415 316 load 0;
#X obj 158 6 declare -path sounds;
#X obj 38 51 load-24 1.wav s24 \$1;
#X obj 38 71 load-24 2.wav s24 \$1;
#X obj 38 91 load-24 3.wav s24 \$1;
#X obj 38 111 load-24 4.wav s24 \$1;
#X obj 38 131 load-24 5.wav s24 \$1;
#X obj 38 151 load-24 6.wav s24 \$1;
#X obj 39 171 load-24 7.wav s24 \$1;
#X obj 38 191 load-24 8.wav s24 \$1;
#X obj 38 211 load-24 9.wav s24 \$1;
#X obj 38 231 load-24 10.wav s24 \$1;
#X obj 38 251 load-24 11.wav s24 \$1;
#X obj 38 271 load-24 12.wav s24 \$1;
#X obj 190 271 load-24 24.wav s24 \$1;
#X obj 191 251 load-24 23.wav s24 \$1;
#X obj 191 211 load-24 21.wav s24 \$1;
#X obj 189 191 load-24 20.wav s24 \$1;
#X obj 191 231 load-24 22.wav s24 \$1;
#X obj 191 171 load-24 19.wav s24 \$1;
#X obj 191 151 load-24 18.wav s24 \$1;
#X obj 192 131 load-24 17.wav s24 \$1;
#X obj 191 111 load-24 16.wav s24 \$1;
#X obj 191 91 load-24 15.wav s24 \$1;
#X obj 191 71 load-24 14.wav s24 \$1;
#X obj 191 51 load-24 13.wav s24 \$1;
#X restore 4 33 pd load sounds;
#X obj 4 260 % 24;
#X obj 4 234 abs;
#X obj 4 193 expr if ($f1 > 59 \, $f1 - 60 \, $f1 - 12);
#X text 10 213 allow all midi notes to trigger samples...;
#X obj 4 312 pack 0 0, f 10;
#X obj 4 151 unpack 0 0;
#X text 99 294 Notes in to Sampler Player;
#X text 116 33 Loads samples to Ram;
#X obj 12 430 int;
#X msg 105 475 Release \$1 ms;
#X obj 296 481 int;
#X obj 296 372 t f f;
#X obj 296 394 *;
#X obj 4 282 + 1;
#X msg 635 521 Samp Speed \$1%;
#X msg 296 536 Start \$1 %;
#N canvas 110 50 1608 372 Battleship 0;
#X obj 24 103 poly 24 1, f 10;
#X obj 24 125 pack 0 0 0;
#X obj 24 166 route 1 2 3 4 5 6 7 8 9 10 11 12 13 14 15 16 17 18 19
20 21 22 23 24, f 221;
#X obj 24 52 inlet;
#X obj 274 271 s24-voice \$1 \$2;
#X obj 802 291 s24-voice \$1 \$2;
#X obj 542 291 s24-voice \$1 \$2;
#X obj 672 291 s24-voice \$1 \$2;
#X obj 524 271 s24-voice \$1 \$2;
#X obj 1437 288 s24-voice \$1 \$2;
#X obj 24 231 s24-voice \$1 \$2;
#X obj 927 288 s24-voice \$1 \$2;
#X obj 42 251 s24-voice \$1 \$2;
#X obj 144 281 s24-voice \$1 \$2;
#X obj 162 301 s24-voice \$1 \$2;
#X obj 293 291 s24-voice \$1 \$2;
#X obj 394 271 s24-voice \$1 \$2;
#X obj 412 291 s24-voice \$1 \$2;
#X obj 654 271 s24-voice \$1 \$2;
#X obj 784 271 s24-voice \$1 \$2;
#X obj 1039 268 s24-voice \$1 \$2;
#X obj 1057 288 s24-voice \$1 \$2;
#X obj 1159 268 s24-voice \$1 \$2;
#X obj 1177 288 s24-voice \$1 \$2;
#X obj 1307 288 s24-voice \$1 \$2;
#X obj 1289 268 s24-voice \$1 \$2;
#X obj 1420 268 s24-voice \$1 \$2;
#X obj 909 268 s24-voice \$1 \$2;
#X connect 0 0 1 0;
#X connect 0 1 1 1;
#X connect 0 2 1 2;
#X connect 1 0 2 0;
#X connect 2 0 10 0;
#X connect 2 1 12 0;
#X connect 2 2 13 0;
#X connect 2 3 14 0;
#X connect 2 4 4 0;
#X connect 2 5 15 0;
#X connect 2 6 16 0;
#X connect 2 7 17 0;
#X connect 2 8 8 0;
#X connect 2 9 6 0;
#X connect 2 10 18 0;
#X connect 2 11 7 0;
#X connect 2 12 19 0;
#X connect 2 13 5 0;
#X connect 2 14 27 0;
#X connect 2 15 11 0;
#X connect 2 16 20 0;
#X connect 2 17 21 0;
#X connect 2 18 22 0;
#X connect 2 19 23 0;
#X connect 2 20 25 0;
#X connect 2 21 24 0;
#X connect 2 22 26 0;
#X connect 2 23 9 0;
#X connect 3 0 0 0;
#X restore 4 342 pd Battleship;
#X obj 12 408 * 1002;
#X text 147 75 clickless looping;
#X obj 923 499 i;
#X obj 923 443 moses 0.98, f 12;
#X msg 1004 489 bang;
#X msg 923 560 Decay \$1%;
#X msg 1004 560 Decay Off;
#X obj 485 563 s s24-\$1-speed-local;
#X obj 923 608 s s24-\$1-decay-label;
#X obj 635 297 r s24-\$1-speed;
#X obj 296 299 r s24-\$1-start;
#X obj 14 594 catch~ s24-\$1-voice-out;
#X obj 124 646 s~ s24-\$1-outR;
#X obj 14 646 s~ s24-\$1-outL;
#X obj 12 386 r s24-\$1-release;
#X obj 105 500 s s24-\$1-release-label;
#X obj 12 530 s s24-\$1-release-local;
#X obj 4 124 r s24-\$1-notes-in;
#X obj 296 561 s s24-\$1-start-label;
#X obj 313 428 s s24-\$1-start-local;
#X obj 296 325 t f f;
#X obj 296 347 *;
#X obj 296 459 * 1001;
#X obj 296 503 * 0.1;
#X obj 923 346 t f f;
#X obj 923 368 *;
#X obj 923 299 t f f;
#X obj 923 321 *;
#X obj 923 273 r s24-\$1-decay;
#X obj 962 420 s s24-\$1-decay-local;
#X obj 923 470 * 1001;
#X obj 923 521 * 0.1;
#X text 437 88 Argument1: Module Instance Number;
#X text 403 16 A Sampler Module that keeps looping until note off is
recieved.;
#X obj 635 563 s s24-\$1-speed-label;
#X obj 3 75 crown-window s24 \$1;
#X connect 0 0 11 0;
#X connect 1 0 27 0;
#X connect 2 0 10 0;
#X connect 3 0 4 0;
#X connect 3 0 8 0;
#X connect 4 0 2 0;
#X connect 5 0 6 0;
#X connect 5 0 8 0;
#X connect 6 0 1 0;
#X connect 7 0 5 0;
#X connect 8 0 37 0;
#X connect 9 0 64 0;
#X connect 10 0 64 0;
#X connect 11 0 7 0;
#X connect 11 1 9 0;
#X connect 11 1 8 0;
#X connect 11 2 3 0;
#X connect 13 0 26 0;
#X connect 14 0 13 0;
#X connect 15 0 14 0;
#X connect 17 0 29 0;
#X connect 18 0 15 0;
#X connect 18 1 17 1;
#X connect 21 0 22 0;
#X connect 21 0 46 0;
#X connect 22 0 45 0;
#X connect 23 0 53 0;
#X connect 24 0 25 0;
#X connect 24 1 25 1;
#X connect 25 0 49 0;
#X connect 25 0 52 0;
#X connect 26 0 17 0;
#X connect 27 0 64 0;
#X connect 28 0 48 0;
#X connect 30 0 21 0;
#X connect 32 0 61 0;
#X connect 33 0 60 0;
#X connect 33 1 34 0;
#X connect 34 0 36 0;
#X connect 35 0 38 0;
#X connect 36 0 38 0;
#X connect 39 0 0 0;
#X connect 40 0 50 0;
#X connect 41 0 42 0;
#X connect 41 0 43 0;
#X connect 44 0 30 0;
#X connect 47 0 18 0;
#X connect 50 0 51 0;
#X connect 50 1 51 1;
#X connect 51 0 24 0;
#X connect 52 0 23 0;
#X connect 53 0 28 0;
#X connect 54 0 55 0;
#X connect 54 1 55 1;
#X connect 55 0 33 0;
#X connect 55 0 59 0;
#X connect 56 0 57 0;
#X connect 56 1 57 1;
#X connect 57 0 54 0;
#X connect 58 0 56 0;
#X connect 60 0 32 0;
#X connect 61 0 35 0;
