#N canvas 779 207 920 751 10;
#X obj 32 63 r punch4-\$1-seq;
#X obj 32 286 unpack, f 11;
#X obj 32 308 - 60;
#X obj 32 330 +, f 7;
#X obj 32 352 pack 0 0, f 11;
#X obj 150 58 unpack 0 0;
#X obj 32 554 outlet to Notes Out;
#X obj 150 6 inlet from diff-modes;
#X text 110 331 set root;
#X text 449 184 the qlist is always running;
#X obj 217 89 sel 0, f 8;
#X msg 217 111 0;
#X obj 32 225 spigot 0;
#X obj 270 114 t b b;
#X msg 270 136 1;
#N canvas 754 239 450 300 eighth-sync 0;
#X obj 112 42 r master-ticks;
#N canvas 1093 223 450 300 eighths 0;
#X obj 73 61 inlet;
#X obj 73 124 outlet;
#X obj 73 90 sel 0 12;
#X text 130 63 master-ticks in;
#X connect 0 0 2 0;
#X connect 2 0 1 0;
#X connect 2 1 1 0;
#X restore 112 78 pd eighths;
#X obj 112 146 t b b;
#X msg 112 168 0;
#X obj 112 124 spigot 0;
#X msg 165 98 1;
#X obj 55 3 inlet;
#X obj 55 25 b;
#X obj 144 198 outlet;
#X connect 0 0 1 0;
#X connect 1 0 4 0;
#X connect 2 0 3 0;
#X connect 2 1 8 0;
#X connect 3 0 4 1;
#X connect 4 0 2 0;
#X connect 5 0 4 1;
#X connect 6 0 7 0;
#X connect 7 0 5 0;
#X restore 302 228 pd eighth-sync;
#X obj 302 299 s punch4-\$1-qlist;
#X msg 302 260 rewind \, bang;
#X connect 0 0 12 0;
#X connect 1 0 2 0;
#X connect 1 1 4 1;
#X connect 2 0 3 0;
#X connect 3 0 4 0;
#X connect 4 0 6 0;
#X connect 5 0 3 1;
#X connect 5 1 10 0;
#X connect 7 0 5 0;
#X connect 10 0 11 0;
#X connect 10 1 13 0;
#X connect 11 0 12 1;
#X connect 12 0 1 0;
#X connect 13 0 14 0;
#X connect 13 1 15 0;
#X connect 14 0 12 1;
#X connect 15 0 17 0;
#X connect 17 0 16 0;
