#N canvas 43 50 1125 894 10;
#X obj 785 236 i;
#X obj 756 188 * 2000;
#X obj 756 210 + 10;
#X obj 731 528 loadbang;
#X obj 864 506 t f b;
#X obj 879 536 f;
#X obj 879 559 == 1;
#X obj 879 583 sel 1;
#X text 925 532 when done recording;
#X obj 262 779 makenote 100 100;
#X text 528 11 states are: 0 = play mode \, 1 = punch in \, 2 = play
w latch, f 70;
#X text 758 440 seq saving and recalling;
#X obj 262 741 unpack, f 8;
#X obj 262 811 pack, f 16;
#X msg 879 607 write ./seq.txt;
#X msg 731 553 read seq.txt;
#X msg 22 420 tempo \$1;
#X floatatom 22 205 5 0 0 0 - - -, f 5;
#X obj 22 228 expr $f1 / 120;
#X obj 22 376 *;
#X obj 38 324 t b f;
#X obj 22 350 f;
#X obj 538 148 r punch4-\$1-velo;
#X obj 570 236 s punch4-\$1-velo-local;
#X obj 538 288 s punch4-\$1-velo-label;
#X obj 538 170 * 128;
#X obj 538 192 int;
#X obj 538 214 t f f;
#X obj 262 842 s punch4-\$1-notes-out;
#X obj 24 50 sel 0 1 2;
#X obj 24 112 s led;
#X obj 24 21 r punch4-\$1-state-local;
#N canvas 179 209 1208 666 states 0;
#X obj 209 229 f;
#X obj 209 176 sel 1;
#X floatatom 101 211 5 0 0 0 - - -, f 5;
#X obj 101 242 sel 1;
#X obj 101 268 bng 15 250 50 0 empty empty empty 17 7 0 10 -262144
-1 -1;
#X obj 209 146 t f f, f 10;
#X obj 209 255 sel 1;
#X text 537 82 Controls LED & Screen Infomation:;
#X obj 209 201 del 500;
#X text 74 74 Controls State With Aux Button;
#X text 95 10 uses the aux button to control states;
#X msg 209 289 1;
#X msg 163 417 0;
#X obj 411 77 loadbang;
#X msg 411 99 0;
#X obj 101 384 sel 0 1 2, f 27;
#X text 528 11 states are: 0 = play mode \, 1 = punch in \, 2 = play
w latch, f 70;
#X obj 587 172 sel 0 1 2;
#X msg 101 417 2;
#X msg 225 422 0;
#X msg 701 250 Aux: Punch Mode;
#X obj 587 130 r punch4-\$1-state-local;
#X obj 411 125 s punch4-\$1-state-local;
#X obj 209 316 s punch4-\$1-state-local;
#X obj 402 220 v punch4-\$1-state-local;
#X obj 402 199 r punch4-\$1-state-local;
#X obj 101 348 v punch4-\$1-state-local;
#X obj 101 520 s punch4-\$1-state-local;
#X obj 163 490 s punch4-\$1-state-local;
#X obj 225 457 s punch4-\$1-state-local;
#X obj 587 349 s punch4-\$1-state-label;
#X obj 101 97 r punch4-\$1-aux;
#X msg 587 250 Aux: Play Mode;
#X msg 822 250 Aux: Latch Mode;
#X connect 0 0 6 0;
#X connect 1 0 8 0;
#X connect 2 0 3 0;
#X connect 3 0 4 0;
#X connect 4 0 26 0;
#X connect 5 0 1 0;
#X connect 5 1 0 1;
#X connect 6 0 11 0;
#X connect 8 0 0 0;
#X connect 11 0 23 0;
#X connect 12 0 28 0;
#X connect 13 0 14 0;
#X connect 14 0 22 0;
#X connect 15 0 18 0;
#X connect 15 1 12 0;
#X connect 15 2 19 0;
#X connect 17 0 32 0;
#X connect 17 1 20 0;
#X connect 17 2 33 0;
#X connect 18 0 27 0;
#X connect 19 0 29 0;
#X connect 20 0 30 0;
#X connect 21 0 17 0;
#X connect 25 0 24 0;
#X connect 26 0 15 0;
#X connect 31 0 2 0;
#X connect 31 0 5 0;
#X connect 32 0 30 0;
#X connect 33 0 30 0;
#X restore 675 37 pd states;
#X msg 56 78 1;
#X obj 756 155 r punch4-\$1-length;
#X obj 785 288 s punch4-\$1-length-label;
#X obj 756 316 s punch4-\$1-length-local;
#X obj 864 479 r punch4-\$1-state-local;
#X obj 22 183 r master-bpm;
#N canvas 113 144 1509 756 diff-modes 0;
#X obj 749 266 stripnote;
#X obj 749 288 t f b;
#X obj 802 309 f;
#X obj 749 340 pack 0 0;
#X msg 820 167 clear;
#X obj 788 139 t b b;
#X msg 788 167 1;
#X obj 749 34 r punch4-\$1-notes-in;
#X obj 820 281 r punch4-\$1-velo-local;
#X obj 749 216 spigot;
#X obj 788 72 r punch4-\$1-state-local;
#X obj 788 97 sel 1, f 19;
#X msg 918 132 0;
#X msg 515 183 1;
#X obj 476 84 r punch4-\$1-notes-in;
#X obj 476 230 spigot;
#X obj 515 122 r punch4-\$1-state-local;
#X msg 645 190 0;
#X obj 515 147 sel 2, f 19;
#X obj 476 252 stripnote;
#X obj 476 274 pack 0 100;
#X msg 241 176 1;
#X obj 202 77 r punch4-\$1-notes-in;
#X obj 202 259 spigot;
#X obj 241 115 r punch4-\$1-state-local;
#X msg 371 175 0;
#X obj 645 169 t b b;
#X obj 533 344 bag;
#X msg 545 304 flush;
#X obj 533 366 list append 0;
#X obj 533 388 route list, f 13;
#X obj 815 480 list prepend add;
#X obj 815 502 route list;
#X obj 815 436 list prepend punch4-\$1-seq;
#X obj 815 458 list prepend 250;
#X obj 241 140 sel 0, f 19;
#X obj 202 439 outlet to sequncer;
#X obj 749 362 outlet to notes out, f 29;
#X obj 815 527 s punch4-\$1-qlist;
#X obj 820 192 s punch4-\$1-qlist;
#X obj 601 526 qlist;
#X text 590 551 loop;
#X obj 601 497 r punch4-\$1-qlist;
#X obj 633 552 b;
#X connect 0 0 1 0;
#X connect 1 0 3 0;
#X connect 1 1 2 0;
#X connect 2 0 3 1;
#X connect 3 0 33 0;
#X connect 3 0 37 0;
#X connect 4 0 39 0;
#X connect 5 0 6 0;
#X connect 5 1 4 0;
#X connect 6 0 9 1;
#X connect 7 0 9 0;
#X connect 8 0 2 1;
#X connect 9 0 0 0;
#X connect 10 0 11 0;
#X connect 11 0 5 0;
#X connect 11 1 12 0;
#X connect 12 0 9 1;
#X connect 13 0 15 1;
#X connect 14 0 15 0;
#X connect 15 0 19 0;
#X connect 16 0 18 0;
#X connect 17 0 15 1;
#X connect 18 0 13 0;
#X connect 18 1 26 0;
#X connect 19 0 20 0;
#X connect 20 0 27 0;
#X connect 20 0 36 0;
#X connect 21 0 23 1;
#X connect 22 0 23 0;
#X connect 23 0 36 0;
#X connect 24 0 35 0;
#X connect 25 0 23 1;
#X connect 26 0 17 0;
#X connect 26 1 28 0;
#X connect 27 0 29 0;
#X connect 28 0 27 0;
#X connect 29 0 30 0;
#X connect 30 0 36 0;
#X connect 31 0 32 0;
#X connect 32 0 38 0;
#X connect 33 0 34 0;
#X connect 34 0 31 0;
#X connect 35 0 21 0;
#X connect 35 1 25 0;
#X connect 40 1 43 0;
#X connect 42 0 40 0;
#X connect 43 0 40 0;
#X restore 262 472 pd diff-modes;
#X msg 87 78 5;
#X msg 24 79 3;
#X obj 371 742 r punch4-\$1-length-local;
#X text 754 130 Note Length;
#X text 537 127 Punch Note Velocity;
#X msg 538 256 Punch Velo: \$1;
#X msg 785 261 Duration: \$1 ms;
#X text 305 718 NOTES OUT, f 18;
#X obj 262 527 pack 0 0 0, f 11;
#X obj 262 501 poly 4 1, f 11;
#X obj 262 553 route 1 2 3 4, f 35;
#X obj 280 606 punchy-voice \$1 \$2 3;
#X obj 731 580 s punch4-\$1-qlist;
#X obj 879 631 s punch4-\$1-qlist;
#X obj 22 449 s punch4-\$1-qlist;
#X obj 433 606 punchy-voice \$1 \$2 4;
#X obj 262 580 punchy-voice \$1 \$2 1;
#X obj 415 580 punchy-voice \$1 \$2 2;
#X obj 294 134 r punch4-\$1-beat;
#X text 282 119 Beat division of BPM;
#X obj 294 156 * 20;
#X obj 294 228 * 0.25;
#X obj 294 178 + 1;
#X obj 294 206 int;
#X obj 294 296 s punch4-\$1-beat-label;
#X msg 294 264 Rel. Speed: \$1x;
#X connect 0 0 46 0;
#X connect 1 0 2 0;
#X connect 2 0 0 0;
#X connect 2 0 36 0;
#X connect 3 0 15 0;
#X connect 4 0 5 1;
#X connect 4 1 5 0;
#X connect 5 0 6 0;
#X connect 6 0 7 0;
#X connect 7 0 14 0;
#X connect 9 0 13 0;
#X connect 9 1 13 1;
#X connect 12 0 9 0;
#X connect 12 1 9 1;
#X connect 13 0 28 0;
#X connect 14 0 53 0;
#X connect 15 0 52 0;
#X connect 16 0 54 0;
#X connect 17 0 18 0;
#X connect 18 0 21 0;
#X connect 19 0 16 0;
#X connect 20 0 21 0;
#X connect 20 1 19 1;
#X connect 21 0 19 0;
#X connect 22 0 25 0;
#X connect 25 0 26 0;
#X connect 26 0 27 0;
#X connect 27 0 45 0;
#X connect 27 1 23 0;
#X connect 29 0 41 0;
#X connect 29 1 33 0;
#X connect 29 2 40 0;
#X connect 31 0 29 0;
#X connect 33 0 30 0;
#X connect 34 0 1 0;
#X connect 37 0 4 0;
#X connect 38 0 17 0;
#X connect 39 0 49 0;
#X connect 39 1 12 0;
#X connect 40 0 30 0;
#X connect 41 0 30 0;
#X connect 42 0 9 2;
#X connect 45 0 24 0;
#X connect 46 0 35 0;
#X connect 48 0 50 0;
#X connect 49 0 48 0;
#X connect 49 1 48 1;
#X connect 49 2 48 2;
#X connect 50 0 56 0;
#X connect 50 1 51 0;
#X connect 50 2 57 0;
#X connect 50 3 55 0;
#X connect 51 0 12 0;
#X connect 55 0 12 0;
#X connect 56 0 12 0;
#X connect 57 0 12 0;
#X connect 58 0 60 0;
#X connect 60 0 62 0;
#X connect 61 0 20 0;
#X connect 61 0 65 0;
#X connect 62 0 63 0;
#X connect 63 0 61 0;
#X connect 65 0 64 0;
