#N canvas 35 53 1569 907 10;
#X text 3 34 Argument 2: Instance Number;
#X text 3 13 Argument 1: Shortcut Name;
#X obj 130 110 r mix4-\$1-level1;
#X obj 22 302 *~;
#X obj 170 152 * 101;
#X obj 170 174 int;
#X obj 170 218 s mix4-\$1-level1-label;
#X obj 329 297 *~;
#X obj 477 128 * 101;
#X obj 477 150 int;
#X obj 437 105 r mix4-\$1-level2;
#X obj 477 195 s mix4-\$1-level2-label;
#X msg 170 196 Level 1: \$1%;
#X msg 477 172 Level 2: \$1%;
#X obj 22 110 r~ mix4-\$1-in1;
#X obj 328 104 r~ mix4-\$1-in2;
#X obj 22 510 s~ mix4-\$1-outL;
#X obj 124 510 s~ mix4-\$1-outR;
#X obj 632 302 *~;
#X obj 780 152 * 101;
#X obj 780 174 int;
#X obj 939 297 *~;
#X obj 1087 128 * 101;
#X obj 1087 150 int;
#X obj 23 414 *~ 1;
#X obj 632 110 r~ mix4-\$1-in3;
#X obj 740 110 r mix4-\$1-level3;
#X obj 938 104 r~ mix4-\$1-in4;
#X obj 1047 105 r mix4-\$1-level4;
#X obj 780 218 s mix4-\$1-level3-label;
#X obj 1087 195 s mix4-\$1-level4-label;
#X text 265 11 Module that mixes four stereo Inputs.;
#X msg 780 196 Level 3: \$1%;
#X msg 1087 172 Level 4: \$1%;
#X obj 437 232 lop~ 5;
#X obj 740 267 lop~ 5;
#X obj 1047 232 lop~ 5;
#X obj 130 267 lop~ 5;
#X connect 2 0 4 0;
#X connect 2 0 37 0;
#X connect 3 0 24 0;
#X connect 4 0 5 0;
#X connect 5 0 12 0;
#X connect 7 0 24 0;
#X connect 8 0 9 0;
#X connect 9 0 13 0;
#X connect 10 0 8 0;
#X connect 10 0 34 0;
#X connect 12 0 6 0;
#X connect 13 0 11 0;
#X connect 14 0 3 0;
#X connect 15 0 7 0;
#X connect 18 0 24 0;
#X connect 19 0 20 0;
#X connect 20 0 32 0;
#X connect 21 0 24 0;
#X connect 22 0 23 0;
#X connect 23 0 33 0;
#X connect 24 0 16 0;
#X connect 24 0 17 0;
#X connect 25 0 18 0;
#X connect 26 0 19 0;
#X connect 26 0 35 0;
#X connect 27 0 21 0;
#X connect 28 0 22 0;
#X connect 28 0 36 0;
#X connect 32 0 29 0;
#X connect 33 0 30 0;
#X connect 34 0 7 1;
#X connect 35 0 18 1;
#X connect 36 0 21 1;
#X connect 37 0 3 1;
