#N canvas 272 275 531 477 10;
#X obj 42 175 one-knob-filter~;
#X obj 151 106 r lohi-oneknob;
#X obj 42 247 s~ lohi-outL;
#X obj 152 247 s~ lohi-outR;
#X obj 42 70 r~ lohi-inL;
#X obj 142 70 r~ lohi-inR;
#X obj 305 218 int;
#X obj 379 219 int;
#X obj 379 196 * 224.222;
#X obj 305 196 * 224.222;
#X obj 305 174 detent 0.05;
#X text 61 18 One-Knob Stereo LowPass and HiPass Filter Module;
#X obj 341 347 s lohi-oneknob-label;
#X msg 424 280 Hi-Pass \$1%;
#X msg 251 281 Lo-Pass \$1%;
#X msg 341 281 Filter 0%;
#X connect 0 0 2 0;
#X connect 0 1 3 0;
#X connect 1 0 0 2;
#X connect 1 0 10 0;
#X connect 4 0 0 0;
#X connect 5 0 0 1;
#X connect 6 0 14 0;
#X connect 7 0 13 0;
#X connect 8 0 7 0;
#X connect 9 0 6 0;
#X connect 10 0 9 0;
#X connect 10 1 15 0;
#X connect 10 2 8 0;
#X connect 13 0 12 0;
#X connect 14 0 12 0;
#X connect 15 0 12 0;
