#N canvas 647 209 649 655 10;
#X obj 80 425 vcf~, f 11;
#X obj 192 311 mtof;
#X obj 192 333 lop~ 5;
#X obj 80 525 outlet~;
#X obj 441 172 detent 0.05;
#X msg 471 197 0;
#X msg 265 319 \$1 50;
#X obj 265 341 line;
#X obj 80 56 inlet~;
#X text 156 451 lo-pass;
#X text 14 450 bandpass;
#X obj 128 450 *~;
#X obj 384 339 lop~ 5;
#X msg 523 243 0;
#X msg 447 247 1;
#X obj 80 447 *~ 1;
#X obj 500 63 inlet;
#X obj 340 425 vcf~, f 11;
#X obj 340 525 outlet~;
#X obj 339 55 inlet~;
#X text 416 451 lo-pass;
#X text 274 450 bandpass;
#X obj 388 450 *~;
#X obj 340 447 *~ 1;
#X obj 441 215 * 22.222;
#X obj 504 214 * 44.444;
#X obj 395 109 * 88;
#X obj 395 131 + 40;
#X connect 0 0 15 0;
#X connect 0 1 11 0;
#X connect 1 0 2 0;
#X connect 2 0 0 1;
#X connect 2 0 17 1;
#X connect 4 0 14 0;
#X connect 4 0 24 0;
#X connect 4 1 5 0;
#X connect 4 1 13 0;
#X connect 4 2 13 0;
#X connect 4 2 25 0;
#X connect 5 0 6 0;
#X connect 6 0 7 0;
#X connect 7 0 0 2;
#X connect 7 0 17 2;
#X connect 8 0 0 0;
#X connect 11 0 3 0;
#X connect 12 0 11 1;
#X connect 12 0 22 1;
#X connect 13 0 12 0;
#X connect 14 0 12 0;
#X connect 15 0 3 0;
#X connect 16 0 4 0;
#X connect 16 0 26 0;
#X connect 17 0 23 0;
#X connect 17 1 22 0;
#X connect 19 0 17 0;
#X connect 22 0 18 0;
#X connect 23 0 18 0;
#X connect 24 0 6 0;
#X connect 25 0 6 0;
#X connect 26 0 27 0;
#X connect 27 0 1 0;
