#N canvas 659 173 894 726 10;
#X obj 189 160 *~;
#X obj 206 102 vline~;
#X obj 206 124 *~;
#X obj 109 31 loadbang;
#X msg 109 53 56;
#X obj 109 75 mtof;
#X obj 201 23 tgl 15 0 empty empty empty 17 7 0 10 -262144 -1 -1 1
1;
#X obj 29 304 throw~ outL;
#X obj 158 303 throw~ outR;
#X obj 362 287 r knob1;
#X obj 514 275 r knob2;
#X obj 206 416 s screenLine1;
#X obj 514 355 s screenLine2;
#X floatatom 44 35 5 0 0 0 - - -, f 5;
#X obj 117 107 blsaw;
#X obj 628 282 r knob3;
#X obj 648 355 s screenLine3;
#X obj 794 355 s screenLine4;
#X obj 734 275 r knob4;
#X obj 203 58 metro 250;
#X msg 207 80 1 5 \, 0 0 125;
#X floatatom 303 41 5 0 0 0 - - -, f 5;
#X obj 462 33 LoHiFilter;
#X obj 189 190 s~ lohi-inL;
#X obj 290 168 *~;
#X obj 403 51 loadbang;
#X obj 403 95 mtof;
#X floatatom 338 55 5 0 0 0 - - -, f 5;
#X obj 411 127 blsaw;
#X obj 289 190 s~ lohi-inR;
#X msg 403 73 60;
#X obj 29 282 r~ lohi-outL;
#X obj 159 281 r~ lohi-outR;
#X obj 364 311 s lohi-oneknob;
#X obj 211 396 r lohi-oneknob-label;
#X obj 515 334 r;
#X obj 653 334 r;
#X obj 795 334 r;
#X obj 741 306 s;
#X obj 630 306 s;
#X obj 520 306 s;
#X connect 0 0 23 0;
#X connect 1 0 2 0;
#X connect 1 0 2 1;
#X connect 2 0 0 1;
#X connect 2 0 24 1;
#X connect 3 0 4 0;
#X connect 4 0 5 0;
#X connect 5 0 14 0;
#X connect 6 0 19 0;
#X connect 9 0 33 0;
#X connect 10 0 40 0;
#X connect 13 0 5 0;
#X connect 14 0 0 0;
#X connect 15 0 39 0;
#X connect 18 0 38 0;
#X connect 19 0 20 0;
#X connect 20 0 1 0;
#X connect 21 0 19 1;
#X connect 24 0 29 0;
#X connect 25 0 30 0;
#X connect 26 0 28 0;
#X connect 27 0 26 0;
#X connect 28 0 24 0;
#X connect 30 0 26 0;
#X connect 31 0 7 0;
#X connect 32 0 8 0;
#X connect 34 0 11 0;
#X connect 35 0 12 0;
#X connect 36 0 16 0;
#X connect 37 0 17 0;
