#N canvas 154 92 1702 873 10;
#X obj 964 259 catch~ samp_voice_out;
#X obj 557 340 i;
#X obj 556 313 * 100;
#X obj 556 286 moses 0.98;
#X msg 630 333 bang;
#X obj 1134 429 i;
#X obj 773 336 i;
#X obj 773 288 * 100;
#X obj 772 316 + 0;
#X obj 318 377 bang;
#X obj 341 455 - 0.5;
#X obj 341 477 * 200;
#X obj 341 505 i;
#X obj 275 437 - 0.5;
#X obj 275 459 * 200;
#X obj 275 487 i;
#X obj 275 515 abs;
#X obj 309 305 detent 0.075;
#X obj 1003 521 bob~;
#X floatatom 1030 341 5 0 150 0 - - -, f 5;
#X obj 1030 361 mtof;
#X obj 1030 436 pack 0 50;
#X obj 1030 461 line~;
#X floatatom 1030 384 7 0 0 0 - - -, f 7;
#X obj 1076 460 sig~ 2;
#X obj 1030 315 * 110;
#N canvas 7 50 612 483 crossfade 0;
#X obj 33 48 inlet~;
#X obj 211 67 inlet;
#X obj 39 327 outlet~;
#X obj 49 194 expr cos($f1 * 3.14159 / 2);
#X obj 244 194 expr sin($f1 * 3.14159 / 2);
#X obj 211 143 clip 0 1;
#N canvas 8 50 594 632 pan_core 0;
#X obj 21 106 inlet~;
#X obj 226 126 inlet;
#X obj 59 259 *~;
#X obj 123 303 outlet~;
#X obj 189 258 *~;
#X obj 205 234 line~;
#X obj 75 234 line~;
#X obj 96 127 inlet;
#X obj 179 104 inlet~;
#X text 223 350 comment;
#X obj 75 195 pack f 5;
#X obj 205 195 pack f 5;
#X text 202 346 Hans-Christoph Steiner \, 2004;
#X text 202 332 Adapted from [pan_core~];
#X connect 0 0 2 0;
#X connect 1 0 11 0;
#X connect 2 0 3 0;
#X connect 4 0 3 0;
#X connect 5 0 4 1;
#X connect 6 0 2 1;
#X connect 7 0 10 0;
#X connect 8 0 4 0;
#X connect 10 0 6 0;
#X connect 11 0 5 0;
#X restore 39 266 pd pan_core;
#X text 165 300 Adapted from [equal_power_pan~] \, Hans-Christoph Steiner
\, 2004;
#X text 320 312 comment;
#X obj 128 46 inlet~;
#X connect 0 0 6 0;
#X connect 1 0 5 0;
#X connect 3 0 6 1;
#X connect 4 0 6 3;
#X connect 5 0 3 0;
#X connect 5 0 4 0;
#X connect 6 0 2 0;
#X connect 9 0 6 2;
#X restore 965 592 pd crossfade;
#X obj 1004 551 *~ 1.8;
#X text 88 46 each key of the organelle. first argument is the folder
where the sampler for that key searchs for .wav files. these get played
randomly for each key. second argument is the key number starting from
0 for some reason.;
#X obj 29 109 sampler-voice 1 0;
#X msg 1135 476 Cutoff \$1 Hz;
#X msg 630 354 Decay Off;
#X msg 557 404 Decay \$1 %;
#X msg 774 383 Dry / Wet \$1 %;
#X obj 773 406 s hr-drywet-label;
#X obj 556 425 s hr-decay-label;
#X obj 309 271 r hr-samp-speed;
#X obj 557 262 r hr-decay;
#X obj 773 257 r hr-drywet;
#X obj 1030 290 r hr-cutoff;
#X obj 1074 565 r hr-cutoff;
#X obj 1134 499 s hr-cutoff-label;
#X obj 966 675 throw~ hr-outL;
#X obj 1088 676 throw~ hr-outR;
#X obj 342 341 s hr-knob-detent;
#X obj 397 457 s hr-samp-speed-label;
#X msg 338 406 Samp Speed ORIG %;
#X msg 342 531 Samp Speed +\$1 % \;;
#X msg 266 570 Samp Speed -\$1 % \;;
#X obj 249 620 s hr-samp-speed-label;
#X obj 444 602 s hr-samp-speed-label;
#X obj 646 391 s hr-decay-label;
#X msg 110 296 Sample Speed;
#X obj 110 268 r get-hr-samp-speed-name;
#X obj 110 324 s hr-samp-speed-name;
#X obj 176 110 sampler-voice 2 1;
#X obj 29 132 sampler-voice 7 6;
#X obj 29 154 sampler-voice 13 12;
#X obj 29 176 sampler-voice 19 18;
#X obj 175 132 sampler-voice 8 7;
#X obj 175 157 sampler-voice 14 13;
#X obj 176 179 sampler-voice 20 19;
#X obj 319 110 sampler-voice 3 2;
#X obj 471 109 sampler-voice 4 3;
#X obj 619 109 sampler-voice 5 4;
#X obj 765 108 sampler-voice 6 5;
#X obj 318 132 sampler-voice 9 8;
#X obj 471 133 sampler-voice 10 9;
#X obj 617 131 sampler-voice 11 10;
#X obj 767 130 sampler-voice 12 11;
#X obj 320 151 sampler-voice 15 14;
#X obj 471 152 sampler-voice 16 15;
#X obj 617 153 sampler-voice 17 16;
#X obj 770 154 sampler-voice 18 17;
#X obj 770 176 sampler-voice 24 23;
#X obj 622 174 sampler-voice 23 22;
#X obj 472 174 sampler-voice 22 21;
#X obj 321 176 sampler-voice 21 20;
#X connect 0 0 18 0;
#X connect 0 0 26 0;
#X connect 1 0 32 0;
#X connect 2 0 1 0;
#X connect 3 0 2 0;
#X connect 3 1 4 0;
#X connect 4 0 31 0;
#X connect 5 0 30 0;
#X connect 6 0 33 0;
#X connect 7 0 8 0;
#X connect 8 0 6 0;
#X connect 9 0 46 0;
#X connect 10 0 11 0;
#X connect 11 0 12 0;
#X connect 12 0 47 0;
#X connect 13 0 14 0;
#X connect 14 0 15 0;
#X connect 15 0 16 0;
#X connect 16 0 48 0;
#X connect 17 0 13 0;
#X connect 17 0 44 0;
#X connect 17 1 9 0;
#X connect 17 1 44 0;
#X connect 17 2 10 0;
#X connect 17 2 44 0;
#X connect 18 0 27 0;
#X connect 19 0 20 0;
#X connect 20 0 23 0;
#X connect 21 0 22 0;
#X connect 22 0 18 1;
#X connect 23 0 21 0;
#X connect 23 0 5 0;
#X connect 24 0 18 2;
#X connect 25 0 19 0;
#X connect 26 0 42 0;
#X connect 26 0 43 0;
#X connect 27 0 26 1;
#X connect 30 0 41 0;
#X connect 31 0 51 0;
#X connect 32 0 35 0;
#X connect 33 0 34 0;
#X connect 36 0 17 0;
#X connect 37 0 3 0;
#X connect 38 0 7 0;
#X connect 39 0 25 0;
#X connect 40 0 26 2;
#X connect 46 0 45 0;
#X connect 47 0 50 0;
#X connect 48 0 49 0;
#X connect 52 0 54 0;
#X connect 53 0 52 0;
