#N canvas 155 150 616 692 10;
#X obj 16 502 *~ 1;
#X obj 276 291 i;
#X msg 276 312 Depth \$1 %;
#X obj 276 269 * 101;
#X obj 56 292 e_phaser \$0-ph0, f 16;
#X obj 242 158 t f f;
#X obj 242 180 *, f 5;
#X msg 242 234 freq \$1;
#X msg 165 234 depth \$1;
#X obj 165 184 t f f;
#X obj 165 206 *, f 5;
#X obj 14 52 r~ phaser-in;
#X obj 276 333 s phaser-depth-label;
#X obj 125 629 s~ phaser-outR;
#X obj 17 629 s~ phaser-outL;
#X obj 435 333 s phaser-freq-label;
#X obj 165 96 r phaser-depth;
#X obj 242 126 r phaser-freq;
#X obj 435 265 i;
#X obj 435 287 / 10;
#X text 475 258 just to knock off some decimal places, f 15;
#N canvas 6 50 612 483 crossfade 0;
#X obj 33 48 inlet~;
#X obj 211 67 inlet;
#X obj 39 327 outlet~;
#X obj 49 194 expr cos($f1 * 3.14159 / 2);
#X obj 244 194 expr sin($f1 * 3.14159 / 2);
#X obj 211 143 clip 0 1;
#N canvas 7 50 594 632 pan_core 0;
#X obj 21 106 inlet~;
#X obj 226 126 inlet;
#X obj 59 259 *~;
#X obj 123 303 outlet~;
#X obj 189 258 *~;
#X obj 205 234 line~;
#X obj 75 234 line~;
#X obj 96 127 inlet;
#X obj 179 104 inlet~;
#X text 223 350 comment;
#X obj 75 195 pack f 5;
#X obj 205 195 pack f 5;
#X text 202 346 Hans-Christoph Steiner \, 2004;
#X text 202 332 Adapted from [pan_core~];
#X connect 0 0 2 0;
#X connect 1 0 11 0;
#X connect 2 0 3 0;
#X connect 4 0 3 0;
#X connect 5 0 4 1;
#X connect 6 0 2 1;
#X connect 7 0 10 0;
#X connect 8 0 4 0;
#X connect 10 0 6 0;
#X connect 11 0 5 0;
#X restore 39 266 pd pan_core;
#X text 165 300 Adapted from [equal_power_pan~] \, Hans-Christoph Steiner
\, 2004;
#X text 320 312 comment;
#X obj 128 46 inlet~;
#X connect 0 0 6 0;
#X connect 1 0 5 0;
#X connect 3 0 6 1;
#X connect 4 0 6 3;
#X connect 5 0 3 0;
#X connect 5 0 4 0;
#X connect 6 0 2 0;
#X connect 9 0 6 2;
#X restore 15 465 pd crossfade;
#X obj 125 462 i;
#X obj 125 439 * 101;
#X msg 125 487 Dry / Wet \$1 %;
#X obj 96 397 r phaser-dw;
#X obj 125 510 s phaser-dw-label;
#X msg 435 312 Freq \$1 Hz, f 12;
#X text 58 13 Phaser Effect Module;
#X obj 242 204 * 9;
#X obj 435 243 * 11;
#X connect 0 0 13 0;
#X connect 0 0 14 0;
#X connect 1 0 2 0;
#X connect 2 0 12 0;
#X connect 3 0 1 0;
#X connect 4 0 21 1;
#X connect 5 0 6 0;
#X connect 5 1 6 1;
#X connect 6 0 29 0;
#X connect 7 0 4 1;
#X connect 8 0 4 1;
#X connect 9 0 10 0;
#X connect 9 1 10 1;
#X connect 10 0 8 0;
#X connect 10 0 3 0;
#X connect 11 0 4 0;
#X connect 11 0 21 0;
#X connect 16 0 9 0;
#X connect 17 0 5 0;
#X connect 18 0 19 0;
#X connect 19 0 27 0;
#X connect 21 0 0 0;
#X connect 22 0 24 0;
#X connect 23 0 22 0;
#X connect 24 0 26 0;
#X connect 25 0 21 2;
#X connect 25 0 23 0;
#X connect 27 0 15 0;
#X connect 29 0 7 0;
#X connect 29 0 30 0;
#X connect 30 0 18 0;
