#N canvas 748 158 894 726 10;
#X obj 117 107 blsaw;
#X obj 189 160 *~;
#X obj 206 102 vline~;
#X obj 206 124 *~;
#X obj 109 31 loadbang;
#X msg 109 53 56;
#X obj 109 75 mtof;
#X obj 201 23 tgl 15 0 empty empty empty 17 7 0 10 -262144 -1 -1 0
1;
#X obj 29 304 throw~ outL;
#X obj 138 303 throw~ outR;
#X obj 362 287 r knob1;
#X obj 326 416 s screenLine1;
#X obj 511 526 s screenLine2;
#X floatatom 44 35 5 0 0 0 - - -, f 5;
#X msg 207 80 1 5 \, 0 0 900;
#X obj 203 58 metro 1000;
#X obj 462 33 Phaser;
#X obj 29 282 r~ phaser-outL;
#X obj 139 281 r~ phaser-outR;
#X obj 364 311 s phaser-depth;
#X obj 580 303 s phaser-dw;
#X obj 573 272 r knob3;
#X obj 483 306 s phaser-freq;
#X obj 644 424 r phaser-dw-label;
#X obj 512 505 r phaser-freq-label;
#X obj 326 394 r phaser-depth-label;
#X obj 190 190 s~ phaser-in;
#X obj 476 275 r knob2;
#X obj 643 445 s screenLine3;
#X connect 0 0 1 0;
#X connect 1 0 26 0;
#X connect 2 0 3 0;
#X connect 2 0 3 1;
#X connect 3 0 1 1;
#X connect 4 0 5 0;
#X connect 5 0 6 0;
#X connect 6 0 0 0;
#X connect 7 0 15 0;
#X connect 10 0 19 0;
#X connect 13 0 6 0;
#X connect 14 0 2 0;
#X connect 15 0 14 0;
#X connect 17 0 8 0;
#X connect 18 0 9 0;
#X connect 21 0 20 0;
#X connect 23 0 28 0;
#X connect 24 0 12 0;
#X connect 25 0 11 0;
#X connect 27 0 22 0;
