#N canvas 4 50 1513 835 10;
#X obj 886 322 sel 1;
#X obj 671 595 s route-key-rec-select;
#X obj 543 344 r rec-state;
#X msg 671 572 1;
#X msg 605 602 0;
#X obj 605 625 s route-key-rec-select;
#X obj 715 571 s disable-key-rec-trigger;
#X obj 543 466 sel 0 1 2 3 4, f 30;
#X text 527 249 record states are 0=play mode \, 1=select key \, 2=wait
for trig \, 3= recording \, 4=finishing up;
#X obj 543 403 v rec-state;
#X obj 592 434 hradio 15 1 0 5 empty empty empty 0 -8 0 10 -262144
-1 -1 0;
#X obj 886 348 v rec-state;
#X obj 474 311 loadbang;
#X msg 474 333 0;
#X obj 886 376 sel 0 1 2 3 4, f 30;
#X msg 886 403 \; rec-state 1 \;;
#X obj 543 371 t b f;
#X msg 927 440 \; rec-state 0 \;;
#X msg 968 476 \; rec-state 0 \;;
#X obj 196 299 s sample-play;
#X obj 75 300 s sample-recsel;
#X msg 493 660 \; sampler-status Play Mode \;;
#X msg 536 704 \; sampler-status Select a Key \;;
#X msg 745 704 \; sampler-status Recording \;;
#X msg 683 656 \; sampler-status Waiting for Sound \;;
#X msg 957 707 \; sampler-status Writing \;;
#X msg 360 517 \; sampler-led 0;
#X msg 466 516 \; sampler-led 5;
#X msg 577 513 \; sampler-led 6;
#X msg 685 511 \; sampler-led 1;
#X msg 794 510 \; sampler-led 7;
#X obj 886 300 r sampler-button-control;
#X obj 106 252 r sampler-notes;
#X obj 829 189 sampler-voice-rec 23.wav 22;
#X obj 25 190 sampler-voice-rec 19.wav 18;
#X obj 29 109 sampler-voice-rec 1.wav 0;
#X obj 429 110 sampler-voice-rec 3.wav 2;
#X obj 226 109 sampler-voice-rec 2.wav 1;
#X obj 634 107 sampler-voice-rec 4.wav 3;
#X obj 832 107 sampler-voice-rec 5.wav 4;
#X obj 1049 106 sampler-voice-rec 6.wav 5;
#X obj 29 134 sampler-voice-rec 7.wav 6;
#X obj 225 133 sampler-voice-rec 8.wav 7;
#X obj 428 135 sampler-voice-rec 9.wav 8;
#X obj 634 134 sampler-voice-rec 10.wav 9;
#X obj 830 132 sampler-voice-rec 11.wav 10;
#X obj 1051 131 sampler-voice-rec 12.wav 11;
#X obj 25 159 sampler-voice-rec 13.wav 12;
#X obj 221 160 sampler-voice-rec 14.wav 13;
#X obj 426 159 sampler-voice-rec 15.wav 14;
#X obj 630 158 sampler-voice-rec 16.wav 15;
#X obj 826 159 sampler-voice-rec 17.wav 16;
#X obj 1050 160 sampler-voice-rec 18.wav 17;
#X obj 222 190 sampler-voice-rec 20.wav 19;
#X obj 427 193 sampler-voice-rec 21.wav 20;
#X obj 631 189 sampler-voice-rec 22.wav 21;
#X obj 1050 191 sampler-voice-rec 24.wav 23;
#X text 573 42 !! not FINISHED!!;
#X connect 0 0 11 0;
#X connect 2 0 16 0;
#X connect 3 0 1 0;
#X connect 4 0 5 0;
#X connect 7 0 26 0;
#X connect 7 0 6 0;
#X connect 7 0 4 0;
#X connect 7 0 21 0;
#X connect 7 1 27 0;
#X connect 7 1 3 0;
#X connect 7 1 22 0;
#X connect 7 2 28 0;
#X connect 7 2 4 0;
#X connect 7 2 24 0;
#X connect 7 3 29 0;
#X connect 7 3 6 0;
#X connect 7 3 23 0;
#X connect 7 4 30 0;
#X connect 7 4 25 0;
#X connect 9 0 7 0;
#X connect 9 0 10 0;
#X connect 11 0 14 0;
#X connect 12 0 13 0;
#X connect 13 0 16 0;
#X connect 14 0 15 0;
#X connect 14 1 17 0;
#X connect 14 2 18 0;
#X connect 16 0 9 0;
#X connect 16 1 9 0;
#X connect 31 0 0 0;
#X connect 32 0 19 0;
#X connect 32 0 20 0;
