#N canvas 796 293 996 693 10;
#X text 3 34 Argument 2: Instance Number;
#X text 3 13 Argument 1: Shortcut Name;
#X obj 130 110 r mix2-\$1-level1;
#X obj 22 302 *~;
#X obj 170 152 * 101;
#X obj 170 174 int;
#X obj 170 218 s mix2-\$1-level1-label;
#X obj 532 302 *~;
#X obj 680 133 * 101;
#X obj 680 155 int;
#X obj 640 110 r mix2-\$1-level2;
#X obj 680 200 s mix2-\$1-level2-label;
#X msg 170 196 Level 1: \$1%;
#X msg 680 177 Level 2: \$1%;
#X obj 22 110 r~ mix2-\$1-in1;
#X obj 531 109 r~ mix2-\$1-in2;
#X obj 23 372 e_pan 0.5;
#X obj 533 372 e_pan 0.5;
#X text 265 11 Module that mixes and pans two mono Inputs.;
#X obj 22 510 s~ mix2-\$1-outL;
#X obj 530 509 s~ mix2-\$1-outR;
#X obj 860 110 r mix2-\$1-pan2;
#X obj 860 259 int;
#X obj 941 265 int;
#X msg 902 346 Center;
#X msg 860 286 Left \$1%;
#X msg 941 296 Right \$1%;
#X obj 941 213 - 0.5;
#X obj 860 175 expr 0.5 - $f1;
#X obj 860 197 * 201;
#X obj 941 241 * 201;
#X obj 860 368 s mix2-\$1-pan2-label;
#X obj 331 252 int;
#X obj 412 258 int;
#X msg 373 339 Center;
#X msg 331 279 Left \$1%;
#X msg 412 289 Right \$1%;
#X obj 412 206 - 0.5;
#X obj 331 168 expr 0.5 - $f1;
#X obj 331 190 * 201;
#X obj 412 234 * 201;
#X obj 331 110 r mix2-\$1-pan1;
#X obj 331 361 s mix2-\$1-pan1-label;
#X obj 331 142 detentPan 0.005;
#X obj 860 149 detentPan 0.005;
#X obj 97 237 lop~ 5;
#X obj 640 237 lop~ 5;
#X connect 2 0 4 0;
#X connect 2 0 45 0;
#X connect 3 0 16 0;
#X connect 4 0 5 0;
#X connect 5 0 12 0;
#X connect 7 0 17 0;
#X connect 8 0 9 0;
#X connect 9 0 13 0;
#X connect 10 0 8 0;
#X connect 10 0 46 0;
#X connect 12 0 6 0;
#X connect 13 0 11 0;
#X connect 14 0 3 0;
#X connect 15 0 7 0;
#X connect 16 0 19 0;
#X connect 16 1 20 0;
#X connect 17 0 19 0;
#X connect 17 1 20 0;
#X connect 21 0 17 1;
#X connect 21 0 44 0;
#X connect 22 0 25 0;
#X connect 23 0 26 0;
#X connect 24 0 31 0;
#X connect 25 0 31 0;
#X connect 26 0 31 0;
#X connect 27 0 30 0;
#X connect 28 0 29 0;
#X connect 29 0 22 0;
#X connect 30 0 23 0;
#X connect 32 0 35 0;
#X connect 33 0 36 0;
#X connect 34 0 42 0;
#X connect 35 0 42 0;
#X connect 36 0 42 0;
#X connect 37 0 40 0;
#X connect 38 0 39 0;
#X connect 39 0 32 0;
#X connect 40 0 33 0;
#X connect 41 0 16 1;
#X connect 41 0 43 0;
#X connect 43 0 38 0;
#X connect 43 1 34 0;
#X connect 43 2 37 0;
#X connect 44 0 28 0;
#X connect 44 1 24 0;
#X connect 44 2 27 0;
#X connect 45 0 3 1;
#X connect 46 0 7 1;
