#N canvas 4 50 714 688 10;
#X obj 16 532 *~ 1;
#X obj 15 502 e_repeater repea;
#X msg 124 420 feedback \$1;
#X msg 522 413 dry \$1;
#X msg 334 427 num \$1;
#X obj 32 128 r repeat-time;
#X obj 32 220 * 1001;
#X obj 14 82 r~ repeat-in;
#X obj 17 660 s~ repeat-outL;
#X obj 126 659 s~ repeat-outR;
#X obj 221 127 r repeat-fb;
#X obj 238 212 i;
#X obj 238 189 * 100;
#X msg 238 233 Feedback \$1 %;
#X obj 238 256 s repeat-fb-label;
#X msg 32 274 Time \$1 ms;
#X obj 32 295 s repeat-time-label;
#X obj 32 242 i;
#X text 8 3 Repeater Effect Module;
#X obj 570 214 i;
#X obj 544 120 r repeat-dw;
#X obj 570 258 s repeat-dw-label;
#X obj 570 191 * 101;
#X msg 570 235 Dry / Wet \$1 %;
#X obj 544 151 expr 1 - $f1;
#X obj 377 154 i;
#X obj 377 110 r repeat-num;
#X obj 377 252 s repeat-num-label;
#X msg 377 229 Repeat \$1 x;
#X text 373 92 number of repititons;
#X text 22 110 initial time (max 1000);
#X text 219 106 Feedback;
#X text 564 95 Dry/Wet;
#X obj 114 60 r repeat-trigger;
#X text 239 61 trigger Repeater;
#X obj 114 85 b;
#X obj 374 133 * 33;
#X obj 32 150 t f f;
#X obj 32 172 *, f 5;
#X connect 0 0 8 0;
#X connect 0 0 9 0;
#X connect 1 0 0 0;
#X connect 2 0 1 1;
#X connect 3 0 1 1;
#X connect 4 0 1 1;
#X connect 5 0 37 0;
#X connect 6 0 17 0;
#X connect 7 0 1 0;
#X connect 10 0 2 0;
#X connect 10 0 12 0;
#X connect 11 0 13 0;
#X connect 12 0 11 0;
#X connect 13 0 14 0;
#X connect 15 0 16 0;
#X connect 17 0 1 1;
#X connect 17 0 15 0;
#X connect 19 0 23 0;
#X connect 20 0 22 0;
#X connect 20 0 24 0;
#X connect 22 0 19 0;
#X connect 23 0 21 0;
#X connect 24 0 3 0;
#X connect 25 0 4 0;
#X connect 25 0 28 0;
#X connect 26 0 36 0;
#X connect 28 0 27 0;
#X connect 33 0 35 0;
#X connect 35 0 17 0;
#X connect 36 0 25 0;
#X connect 37 0 38 0;
#X connect 37 1 38 1;
#X connect 38 0 6 0;
