#N canvas 750 411 933 538 10;
#X obj 117 107 blsaw;
#X obj 189 160 *~;
#X obj 206 58 metro 250;
#X msg 206 80 1 5 \, 0 0 200;
#X obj 206 102 vline~;
#X obj 206 124 *~;
#X obj 109 31 loadbang;
#X msg 109 53 56;
#X obj 109 75 mtof;
#X obj 201 23 tgl 15 0 empty empty empty 17 7 0 10 -262144 -1 -1 0
1;
#X obj 189 190 s~ repeat-in;
#X obj 29 282 r~ repeat-outL;
#X obj 138 281 r~ repeat-outR;
#X obj 29 304 throw~ outL;
#X obj 138 303 throw~ outR;
#X obj 364 311 s repeat-time;
#X obj 475 311 s repeat-fb;
#X obj 572 313 s repeat-num;
#X obj 672 310 s repeat-dw;
#X obj 362 287 r knob1;
#X obj 655 275 r knob4;
#X obj 550 282 r knob3;
#X obj 468 280 r knob2;
#X obj 100 386 r repeat-time-label;
#X obj 306 417 r repeat-fb-label;
#X obj 445 413 r repeat-num-label;
#X obj 638 419 r repeat-dw-label;
#X obj 100 408 s screenLine1;
#X obj 305 439 s screenLine2;
#X obj 445 435 s screenLine3;
#X obj 638 441 s screenLine4;
#X obj 462 34 Repeater;
#X floatatom 44 35 5 0 0 0 - - -, f 5;
#X obj 373 140 s repeat-trigger;
#X obj 373 116 bng 15 250 50 0 empty empty empty 17 7 0 10 -262144
-1 -1;
#X obj 32 160 blsaw;
#X obj 24 128 mtof;
#X floatatom 25 91 5 0 0 0 - - -, f 5;
#X obj 102 210 blsaw;
#X obj 94 178 mtof;
#X floatatom 95 141 5 0 0 0 - - -, f 5;
#X obj 102 232 *~ 0.25;
#X obj 33 182 *~ 0.666;
#X connect 0 0 1 0;
#X connect 1 0 10 0;
#X connect 2 0 3 0;
#X connect 3 0 4 0;
#X connect 4 0 5 0;
#X connect 4 0 5 1;
#X connect 5 0 1 1;
#X connect 6 0 7 0;
#X connect 7 0 8 0;
#X connect 8 0 0 0;
#X connect 9 0 2 0;
#X connect 11 0 13 0;
#X connect 12 0 14 0;
#X connect 19 0 15 0;
#X connect 20 0 18 0;
#X connect 21 0 17 0;
#X connect 22 0 16 0;
#X connect 23 0 27 0;
#X connect 24 0 28 0;
#X connect 25 0 29 0;
#X connect 26 0 30 0;
#X connect 32 0 8 0;
#X connect 34 0 33 0;
#X connect 35 0 42 0;
#X connect 36 0 35 0;
#X connect 37 0 36 0;
#X connect 38 0 41 0;
#X connect 39 0 38 0;
#X connect 40 0 39 0;
#X connect 41 0 1 0;
#X connect 42 0 1 0;
