#N canvas 1179 324 737 600 10;
#X obj 116 315 *~ 0.7;
#X obj 95 126 r~ ps-in;
#X obj 94 407 s~ ps-out;
#X obj 197 77 r ps-pitch;
#X obj 222 177 int;
#X obj 222 221 s ps-pitch-label;
#X obj 94 370 c_xfade;
#X obj 281 317 * 101;
#X obj 281 339 int;
#X msg 281 361 Dry / Wet \$1 %;
#X obj 221 281 r ps-dw;
#X obj 281 383 s ps-dw-label;
#X obj 221 303 lop~ 5;
#X obj 116 283 e_forcepitch 1;
#X obj 197 99 * 128;
#X msg 222 199 Pitch \$1 Note;
#X connect 0 0 6 1;
#X connect 1 0 6 0;
#X connect 1 0 13 0;
#X connect 3 0 14 0;
#X connect 4 0 15 0;
#X connect 6 0 2 0;
#X connect 7 0 8 0;
#X connect 8 0 9 0;
#X connect 9 0 11 0;
#X connect 10 0 7 0;
#X connect 10 0 12 0;
#X connect 12 0 6 2;
#X connect 13 0 0 0;
#X connect 14 0 13 1;
#X connect 14 0 4 0;
#X connect 15 0 5 0;
