#N canvas 707 152 894 726 10;
#X obj 189 160 *~;
#X obj 206 102 vline~;
#X obj 206 124 *~;
#X obj 109 31 loadbang;
#X msg 109 53 56;
#X obj 109 75 mtof;
#X obj 201 23 tgl 15 0 empty empty empty 17 7 0 10 -262144 -1 -1 0
1;
#X obj 29 304 throw~ outL;
#X obj 158 303 throw~ outR;
#X obj 275 287 r knob1;
#X obj 359 280 r knob2;
#X obj 206 416 s screenLine1;
#X obj 362 416 s screenLine2;
#X floatatom 44 35 5 0 0 0 - - -, f 5;
#X obj 117 107 blsaw;
#X obj 602 287 r knob3;
#X obj 593 410 s screenLine3;
#X obj 723 408 s screenLine4;
#X obj 708 280 r knob4;
#X obj 203 58 metro 250;
#X msg 207 80 1 5 \, 0 0 125;
#X floatatom 303 41 5 0 0 0 - - -, f 5;
#X obj 241 191 r~ inL;
#X obj 462 33 PitchShift;
#X obj 214 222 s~ ps-in;
#X obj 182 387 r ps-pitch-label;
#X obj 276 312 s ps-pitch;
#X obj 365 312 s ps-dw;
#X obj 363 395 r ps-dw-label;
#X obj 29 282 r~ ps-out;
#X connect 1 0 2 0;
#X connect 1 0 2 1;
#X connect 2 0 0 1;
#X connect 3 0 4 0;
#X connect 4 0 5 0;
#X connect 5 0 14 0;
#X connect 6 0 19 0;
#X connect 9 0 26 0;
#X connect 10 0 27 0;
#X connect 13 0 5 0;
#X connect 14 0 0 0;
#X connect 19 0 20 0;
#X connect 20 0 1 0;
#X connect 21 0 19 1;
#X connect 22 0 24 0;
#X connect 25 0 11 0;
#X connect 28 0 12 0;
#X connect 29 0 7 0;
#X connect 29 0 8 0;
