#N canvas 482 74 951 875 10;
#X obj 510 621 int;
#X obj 683 622 int;
#X obj 581 569 * 224.222;
#X obj 510 569 * 224.222;
#X msg 683 651 Hi-Pass \$1%;
#X msg 510 652 Lo-Pass \$1%;
#X msg 600 652 Filter 0%;
#X obj 510 357 detent 0.05, f 21;
#X obj 510 718 s lohiQ-oneknob-label;
#X obj 510 289 r lohiQ-oneknob;
#X obj 113 265 e_beequad, f 11;
#X obj 215 175 mtof;
#X obj 215 233 u_lowpassq;
#X obj 207 782 s~ lohiQ-out;
#X obj 364 198 mtof;
#X obj 364 236 u_highpassq;
#X obj 24 165 r~ lohiQ-in;
#X obj 524 490 expr 120 - $f1;
#X msg 524 512 \$1 20;
#X obj 524 534 line;
#X msg 654 511 \$1 20;
#X obj 654 533 line;
#X obj 151 667 *~;
#X obj 170 637 vline~;
#X obj 256 677 *~;
#X obj 295 651 vline~;
#X text 133 34 One-Knob LowPass and HiPass Resonant Filter Module;
#X obj 654 487 * 280;
#X obj 524 467 * 224;
#X obj 592 133 r lohiQ-rez;
#X obj 657 169 * 101;
#X obj 657 191 int;
#X msg 657 213 Resonance \$1%;
#X obj 657 235 s lohiQ-rez-label;
#X obj 592 177 + 0.1;
#X msg 188 143 interp \$1;
#X obj 592 155 * 20;
#X obj 246 270 e_beequad, f 11;
#X obj 412 676 *~;
#X obj 431 646 vline~;
#X obj 295 591 tgl 15 0 empty empty empty 17 7 0 10 -262144 -1 -1 0
1;
#X obj 170 584 tgl 15 0 empty empty empty 17 7 0 10 -262144 -1 -1 1
1;
#X obj 432 592 tgl 15 0 empty empty empty 17 7 0 10 -262144 -1 -1 0
1;
#X obj 188 75 loadbang;
#X msg 188 97 40;
#X msg 393 415 1;
#X msg 439 417 2;
#X msg 476 418 3;
#X obj 393 450 f;
#X obj 245 500 sel 1 2 3, f 25;
#X obj 247 443 t f b;
#X msg 279 469 0;
#X msg 170 607 \$1 50;
#X msg 295 621 \$1 50;
#X msg 432 616 \$1 50;
#X connect 0 0 5 0;
#X connect 1 0 4 0;
#X connect 2 0 1 0;
#X connect 3 0 0 0;
#X connect 4 0 8 0;
#X connect 5 0 8 0;
#X connect 6 0 8 0;
#X connect 7 0 3 0;
#X connect 7 0 28 0;
#X connect 7 0 45 0;
#X connect 7 1 6 0;
#X connect 7 1 46 0;
#X connect 7 2 2 0;
#X connect 7 2 27 0;
#X connect 7 2 47 0;
#X connect 9 0 7 0;
#X connect 10 0 22 0;
#X connect 11 0 12 0;
#X connect 12 0 10 1;
#X connect 14 0 15 0;
#X connect 15 0 37 1;
#X connect 16 0 10 0;
#X connect 16 0 24 0;
#X connect 16 0 37 0;
#X connect 17 0 18 0;
#X connect 18 0 19 0;
#X connect 19 0 11 0;
#X connect 20 0 21 0;
#X connect 21 0 14 0;
#X connect 22 0 13 0;
#X connect 23 0 22 1;
#X connect 24 0 13 0;
#X connect 25 0 24 1;
#X connect 27 0 20 0;
#X connect 28 0 17 0;
#X connect 29 0 30 0;
#X connect 29 0 36 0;
#X connect 30 0 31 0;
#X connect 31 0 32 0;
#X connect 32 0 33 0;
#X connect 34 0 15 1;
#X connect 34 0 12 1;
#X connect 35 0 10 1;
#X connect 35 0 37 1;
#X connect 36 0 34 0;
#X connect 37 0 38 0;
#X connect 38 0 13 0;
#X connect 39 0 38 1;
#X connect 40 0 53 0;
#X connect 41 0 52 0;
#X connect 42 0 54 0;
#X connect 43 0 44 0;
#X connect 44 0 35 0;
#X connect 45 0 48 0;
#X connect 46 0 48 0;
#X connect 47 0 48 0;
#X connect 48 0 50 0;
#X connect 49 0 41 0;
#X connect 49 1 40 0;
#X connect 49 2 42 0;
#X connect 50 0 49 0;
#X connect 50 1 51 0;
#X connect 51 0 40 0;
#X connect 51 0 41 0;
#X connect 51 0 42 0;
#X connect 52 0 23 0;
#X connect 53 0 25 0;
#X connect 54 0 39 0;
