#N canvas 639 168 894 726 10;
#X obj 189 160 *~;
#X obj 206 102 vline~;
#X obj 206 124 *~;
#X obj 109 31 loadbang;
#X msg 109 53 56;
#X obj 109 75 mtof;
#X obj 201 23 tgl 15 0 empty empty empty 17 7 0 10 -262144 -1 -1 1
1;
#X obj 29 304 throw~ outL;
#X obj 138 303 throw~ outR;
#X obj 332 310 r knob1;
#X obj 487 278 r knob2;
#X obj 326 416 s screenLine1;
#X obj 531 447 s screenLine2;
#X floatatom 44 35 5 0 0 0 - - -, f 5;
#X msg 207 80 1 5 \, 0 0 900;
#X obj 203 58 metro 1000;
#X obj 462 33 LoHiQ;
#X obj 332 333 s lohiQ-oneknob;
#X obj 29 262 r~ lohiQ-out;
#X obj 189 190 s~ lohiQ-in;
#X obj 487 309 s lohiQ-rez;
#X obj 532 426 r lohiQ-rez-label;
#X obj 117 107 blsaw;
#X obj 326 394 r lohiQ-oneknob-label;
#X connect 0 0 19 0;
#X connect 1 0 2 0;
#X connect 1 0 2 1;
#X connect 2 0 0 1;
#X connect 3 0 4 0;
#X connect 4 0 5 0;
#X connect 5 0 22 0;
#X connect 6 0 15 0;
#X connect 9 0 17 0;
#X connect 10 0 20 0;
#X connect 13 0 5 0;
#X connect 14 0 1 0;
#X connect 15 0 14 0;
#X connect 18 0 7 0;
#X connect 18 0 8 0;
#X connect 21 0 12 0;
#X connect 22 0 0 0;
#X connect 23 0 11 0;
