#N canvas 577 88 1083 860 10;
#X obj 182 739 route;
#X obj 182 770 pack 0 0;
#X obj 214 657 spigot;
#X obj 182 159 stripnote;
#X obj 182 181 pack 0 0;
#X obj 44 344 swap, f 9;
#X obj 44 391 route 0;
#X obj 44 413 list append 0;
#X obj 44 320 unpack 0 0;
#X text 44 295 all note offs;
#X text 205 138 note-ons;
#X obj 44 366 pack 0 0;
#X obj 182 103 r midig-notes-in;
#X obj 182 810 s midig-notes-out;
#X obj 398 173 s midig-notes-in;
#X msg 414 125 50 69;
#X msg 472 126 52 69;
#X msg 547 122 49 100;
#X obj 253 614 tgl 30 0 empty empty empty 17 7 0 10 -262144 -1 -1 0
1;
#X msg 353 98 3 57;
#X obj 284 657 sel 0;
#X msg 284 679 0;
#X obj 677 265 expr if($f1 == 1 \, 0 \, 1);
#X text 854 267 only odd notes after a even;
#X text 151 30 A MIDI Gate that uses logic to determine to pass next
note;
#X obj 677 240 % 2;
#X text 295 617 1/on = dont pass note \, 0/off = pass note;
#X obj 672 399 expr if($f1 == 1 \, 0 \, 1);
#X obj 672 374 % 2;
#X obj 672 343 f;
#X obj 706 344 + 1;
#X obj 672 313 b;
#X text 747 346 every other note;
#X obj 674 451 % 4;
#X obj 674 476 expr if($f1 >= 2 \, 0 \, 1);
#X text 851 478 if not is modulo by 2 or 3 pass;
#X obj 521 78 r notes;
#X text 277 261 test logic for note;
#X obj 214 257 t f f;
#X obj 182 229 t f f;
#X obj 182 205 list split 1;
#X obj 718 69 f;
#X obj 793 84 + 1;
#X obj 718 91 % 4;
#X obj 718 113 + 1;
#X obj 734 19 bng 15 250 50 0 empty empty empty 17 7 0 10 -262144 -1
-1;
#X msg 646 126 \$1 100;
#X obj 718 47 metro 200;
#X msg 783 19 0;
#X obj 333 417 % 4;
#X obj 333 442 expr if($f1 >= 2 \, 0 \, 1);
#X connect 0 1 1 0;
#X connect 1 0 13 0;
#X connect 2 0 0 1;
#X connect 3 0 4 0;
#X connect 3 1 4 1;
#X connect 4 0 40 0;
#X connect 5 0 11 0;
#X connect 5 1 11 1;
#X connect 6 0 7 0;
#X connect 7 0 13 0;
#X connect 8 0 5 0;
#X connect 8 1 5 1;
#X connect 11 0 6 0;
#X connect 12 0 8 0;
#X connect 12 0 3 0;
#X connect 15 0 14 0;
#X connect 16 0 14 0;
#X connect 17 0 14 0;
#X connect 18 0 2 1;
#X connect 18 0 20 0;
#X connect 19 0 14 0;
#X connect 20 0 21 0;
#X connect 21 0 0 1;
#X connect 25 0 22 0;
#X connect 28 0 27 0;
#X connect 29 0 30 0;
#X connect 29 0 28 0;
#X connect 30 0 29 1;
#X connect 31 0 29 0;
#X connect 33 0 34 0;
#X connect 36 0 14 0;
#X connect 38 0 2 0;
#X connect 38 1 49 0;
#X connect 39 0 0 0;
#X connect 39 1 38 0;
#X connect 40 0 39 0;
#X connect 40 1 1 1;
#X connect 41 0 42 0;
#X connect 41 0 43 0;
#X connect 42 0 41 1;
#X connect 43 0 44 0;
#X connect 44 0 46 0;
#X connect 45 0 47 0;
#X connect 46 0 14 0;
#X connect 47 0 41 0;
#X connect 48 0 47 0;
#X connect 49 0 50 0;
#X connect 50 0 18 0;
