#N canvas 212 50 1267 684 10;
#X obj 16 108 pack 0 0 0, f 11;
#X obj 16 134 route 1 2 3 4 5 6 7 8, f 81;
#X obj 670 483 lop~ 5;
#X obj 863 423 lop~ 5;
#X obj 627 505 i;
#X obj 840 535 i;
#X obj 840 510 * 100;
#X obj 1049 469 i;
#X obj 627 481 * 50;
#X obj 1049 447 + 5;
#X obj 1049 425 * 2000;
#X text 597 345 smooth knobs 1-3 \, send param updates to screen;
#X obj 150 468 sel 0 1 2 3, f 60;
#X msg 254 504 Aux: Square Wave;
#X msg 150 560 Aux: Sine Wave;
#X msg 358 566 Aux: Sawtooth Wave;
#X msg 462 498 Aux: Triangle Wave;
#X text 15 18 basic polyphonic patch with 8 voices;
#X text 365 112 aircraft carrier;
#X obj 627 426 t f f;
#X obj 627 448 *;
#X obj 232 233 *~ 0.3;
#X obj 16 55 r bp-\$1-notes-in;
#X obj 627 384 r bp-\$1-vrate;
#X obj 671 505 s~ bp-\$1-vrate-local;
#X msg 627 555 Vibrato Rate \$1 Hz;
#X obj 627 581 s bp-\$1-vrate-label;
#X msg 840 565 Vibrato Depth \$1 %;
#X obj 840 591 s bp-\$1-vdepth-label;
#X obj 863 379 r bp-\$1-vdepth;
#X obj 863 445 s~ bp-\$1-vdepth-local;
#X msg 1049 518 Decay Time \$1 ms;
#X obj 1049 376 r bp-\$1-decay;
#X obj 1049 545 s bp-\$1-decay-label;
#X obj 1069 491 s bp-\$1-decay-local;
#X obj 150 360 r bp-\$1-wave;
#X obj 150 382 * 4;
#X obj 150 404 int;
#X obj 150 426 t f f;
#X obj 10 518 s bp-\$1-wave-local;
#X obj 150 586 s bp-\$1-wave-label;
#X obj 254 530 s bp-\$1-wave-label;
#X obj 358 592 s bp-\$1-wave-label;
#X obj 462 523 s bp-\$1-wave-label;
#X text 291 374 Waveform Select;
#X obj 195 268 s~ bp-\$1-out;
#X obj 10 492 change -1;
#X obj 16 81 poly 8 1, f 11;
#X obj 16 162 voice \$1;
#X obj 86 199 voice \$1;
#X obj 158 163 voice \$1;
#X obj 228 188 voice \$1;
#X obj 296 162 voice \$1;
#X obj 368 194 voice \$1;
#X obj 439 166 voice \$1;
#X obj 509 193 voice \$1;
#X connect 0 0 1 0;
#X connect 1 0 48 0;
#X connect 1 1 49 0;
#X connect 1 2 50 0;
#X connect 1 3 51 0;
#X connect 1 4 52 0;
#X connect 1 5 53 0;
#X connect 1 6 54 0;
#X connect 1 7 55 0;
#X connect 2 0 24 0;
#X connect 3 0 30 0;
#X connect 4 0 25 0;
#X connect 5 0 27 0;
#X connect 6 0 5 0;
#X connect 7 0 31 0;
#X connect 7 0 34 0;
#X connect 8 0 4 0;
#X connect 9 0 7 0;
#X connect 10 0 9 0;
#X connect 12 0 14 0;
#X connect 12 1 13 0;
#X connect 12 2 15 0;
#X connect 12 3 16 0;
#X connect 13 0 41 0;
#X connect 14 0 40 0;
#X connect 15 0 42 0;
#X connect 16 0 43 0;
#X connect 19 0 20 0;
#X connect 19 1 20 1;
#X connect 20 0 8 0;
#X connect 20 0 2 0;
#X connect 21 0 45 0;
#X connect 22 0 47 0;
#X connect 23 0 19 0;
#X connect 25 0 26 0;
#X connect 27 0 28 0;
#X connect 29 0 6 0;
#X connect 29 0 3 0;
#X connect 31 0 33 0;
#X connect 32 0 10 0;
#X connect 35 0 36 0;
#X connect 36 0 37 0;
#X connect 37 0 38 0;
#X connect 38 0 12 0;
#X connect 38 1 46 0;
#X connect 46 0 39 0;
#X connect 47 0 0 0;
#X connect 47 1 0 1;
#X connect 47 2 0 2;
#X connect 48 0 21 0;
#X connect 49 0 21 0;
#X connect 50 0 21 0;
#X connect 51 0 21 0;
#X connect 52 0 21 0;
#X connect 53 0 21 0;
#X connect 54 0 21 0;
#X connect 55 0 21 0;
