#N canvas 785 189 920 751 10;
#X obj 32 63 r punch-\$1-seq;
#X obj 32 286 unpack, f 11;
#X obj 32 308 - 60;
#X obj 32 330 +, f 7;
#X obj 32 352 pack 0 0, f 11;
#X obj 32 554 outlet to Notes Out;
#X obj 150 6 inlet from diff-modes;
#X text 112 331 set root;
#N canvas 754 239 450 300 eighth-sync 0;
#X obj 112 42 r master-ticks;
#N canvas 1093 223 450 300 eighths 0;
#X obj 73 61 inlet;
#X obj 73 124 outlet;
#X obj 73 90 sel 0 12;
#X text 130 63 master-ticks in;
#X connect 0 0 2 0;
#X connect 2 0 1 0;
#X connect 2 1 1 0;
#X restore 112 78 pd eighths;
#X obj 112 146 t b b;
#X msg 112 168 0;
#X obj 112 124 spigot 0;
#X msg 165 98 1;
#X obj 55 3 inlet;
#X obj 55 25 b;
#X obj 144 198 outlet;
#X connect 0 0 1 0;
#X connect 1 0 4 0;
#X connect 2 0 3 0;
#X connect 2 1 8 0;
#X connect 3 0 4 1;
#X connect 4 0 2 0;
#X connect 5 0 4 1;
#X connect 6 0 7 0;
#X connect 7 0 5 0;
#X restore 277 139 pd eighth-sync;
#X obj 277 210 s punch-\$1-qlist;
#X obj 32 225 spigot 0;
#X msg 210 115 1;
#X obj 210 93 t b b, f 10;
#X msg 277 171 rewind \, bang;
#X obj 150 33 stripnote;
#X obj 150 58 t f b, f 9;
#X text 370 171 rewind the sequence and play;
#X connect 0 0 10 0;
#X connect 1 0 2 0;
#X connect 1 1 4 1;
#X connect 2 0 3 0;
#X connect 3 0 4 0;
#X connect 4 0 5 0;
#X connect 6 0 14 0;
#X connect 8 0 13 0;
#X connect 10 0 1 0;
#X connect 11 0 10 1;
#X connect 12 0 11 0;
#X connect 12 1 8 0;
#X connect 13 0 9 0;
#X connect 14 0 15 0;
#X connect 15 0 3 1;
#X connect 15 1 12 0;
