#N canvas 33 50 772 763 10;
#X obj 47 325 *~, f 7;
#X obj 92 184 lop~ 8;
#X obj 93 218 *~, f 5;
#X obj 92 292 +~ 1;
#X obj 92 270 *~ 200;
#X msg 142 138 Distort Amt. \$1 %;
#X obj 142 88 * 101;
#X obj 142 110 int;
#X text 47 17 Simple Distort Module using clip~;
#X obj 46 508 clip~ -1 1, f 40;
#X obj 47 44 r~ dclip-in;
#X obj 142 66 r dclip-level;
#X obj 142 160 s dclip-level-label;
#X obj 12 731 s~ dclip-outL;
#X obj 122 731 s~ dclip-outR;
#X obj 184 287 - 1;
#X msg 210 359 Bottom Clip \$1;
#X obj 210 381 s dclip-bott-label;
#X obj 354 381 s dclip-top-label;
#X msg 354 359 Top Clip \$1;
#X obj 184 265 r dclip-bott;
#X obj 323 265 r dclip-top;
#X msg 494 285 \$1 10;
#X obj 12 617 c_xfade, f 65;
#X obj 554 285 * 101;
#X obj 554 307 int;
#X msg 554 329 Dry / Wet \$1 %;
#X obj 12 679 *~ 0.6;
#X obj 494 249 r dclip-dw;
#X obj 554 351 s dclip-dw-label;
#X obj 12 639 hip~ 5;
#X obj 354 308 int;
#X obj 354 330 * 0.001;
#X obj 240 308 int;
#X obj 240 330 * 0.001;
#X obj 240 286 * 1000;
#X obj 354 286 * 1002;
#X msg 181 432 \$1 20;
#X obj 321 445 line;
#X msg 322 409 $ 20;
#X obj 181 454 line;
#X connect 0 0 9 0;
#X connect 1 0 2 0;
#X connect 1 0 2 1;
#X connect 2 0 4 0;
#X connect 3 0 0 1;
#X connect 4 0 3 0;
#X connect 5 0 12 0;
#X connect 6 0 7 0;
#X connect 7 0 5 0;
#X connect 9 0 23 1;
#X connect 10 0 0 0;
#X connect 10 0 23 0;
#X connect 11 0 1 0;
#X connect 11 0 6 0;
#X connect 15 0 35 0;
#X connect 15 0 37 0;
#X connect 16 0 17 0;
#X connect 19 0 18 0;
#X connect 20 0 15 0;
#X connect 21 0 36 0;
#X connect 21 0 39 0;
#X connect 22 0 23 2;
#X connect 23 0 30 0;
#X connect 24 0 25 0;
#X connect 25 0 26 0;
#X connect 26 0 29 0;
#X connect 27 0 13 0;
#X connect 27 0 14 0;
#X connect 28 0 22 0;
#X connect 28 0 24 0;
#X connect 30 0 27 0;
#X connect 31 0 32 0;
#X connect 32 0 19 0;
#X connect 33 0 34 0;
#X connect 34 0 16 0;
#X connect 35 0 33 0;
#X connect 36 0 31 0;
#X connect 37 0 40 0;
#X connect 38 0 9 2;
#X connect 39 0 38 0;
#X connect 40 0 9 1;
