#N canvas 439 50 647 833 10;
#X obj 47 94 r~ dtanh-in;
#X obj 46 358 tanh~;
#X obj 47 325 *~, f 7;
#X obj 92 184 lop~ 8;
#X obj 93 218 *~, f 5;
#X obj 92 292 +~ 1;
#X obj 92 270 *~ 200;
#X obj 162 144 r dtanh-level;
#X msg 162 216 Distort Amt. \$1 %;
#X obj 162 166 * 101;
#X obj 162 188 int;
#X obj 162 238 s dtanh-level-label;
#X text 47 17 Simple Distort Module using tanh~;
#X obj 128 707 s~ dtanh-outL;
#X obj 249 707 s~ dtanh-outR;
#X obj 129 629 hip~ 5;
#X msg 324 183 \$1 10;
#X obj 129 597 c_xfade, f 22;
#X obj 384 183 * 101;
#X obj 384 205 int;
#X msg 384 227 Dry / Wet \$1 %;
#X obj 129 659 *~ 0.6;
#X obj 324 146 r dtanh-dw;
#X obj 384 249 s dtanh-dw-label;
#X connect 0 0 2 0;
#X connect 0 0 17 0;
#X connect 1 0 17 1;
#X connect 2 0 1 0;
#X connect 3 0 4 0;
#X connect 3 0 4 1;
#X connect 4 0 6 0;
#X connect 5 0 2 1;
#X connect 6 0 5 0;
#X connect 7 0 3 0;
#X connect 7 0 9 0;
#X connect 8 0 11 0;
#X connect 9 0 10 0;
#X connect 10 0 8 0;
#X connect 15 0 21 0;
#X connect 16 0 17 2;
#X connect 17 0 15 0;
#X connect 18 0 19 0;
#X connect 19 0 20 0;
#X connect 20 0 23 0;
#X connect 21 0 13 0;
#X connect 21 0 14 0;
#X connect 22 0 16 0;
#X connect 22 0 18 0;
