#N canvas 774 119 797 838 10;
#X obj 182 489 route;
#X obj 182 457 list split 1, f 15;
#X obj 182 520 pack 0 0;
#X obj 182 259 t a a;
#X obj 214 285 list split 1;
#X obj 214 407 spigot;
#X obj 296 349 metro 700;
#X obj 296 327 tgl 15 0 empty empty empty 17 7 0 10 -262144 -1 -1 0
1;
#X obj 296 374 tgl 15 0 empty empty empty 17 7 0 10 -262144 -1 -1 0
1;
#X obj 182 209 stripnote;
#X obj 182 231 pack 0 0;
#X obj 74 224 swap, f 9;
#X obj 74 271 route 0;
#X obj 74 293 list append 0;
#X obj 74 200 unpack 0 0;
#X text 74 175 all note offs;
#X text 193 183 note-ons;
#X obj 74 246 pack 0 0;
#X obj 383 302 t f f;
#X obj 415 350 >= 0.01;
#X obj 383 324 * 3000;
#X obj 381 395 int;
#X obj 415 372 sel 0 1;
#X msg 381 435 Tempo \$1 ms;
#X msg 417 404 0;
#X msg 458 404 1;
#X text 151 30 MIDI Gate relative to tempo \, Module;
#X obj 182 103 r \$1-\$2-notes-in;
#X obj 182 590 s \$1-\$2-notes-out;
#X obj 381 465 s \$1-\$2-tempo-label;
#X obj 383 280 r \$1-\$2-tempo;
#X connect 0 1 2 0;
#X connect 1 0 0 0;
#X connect 1 1 2 1;
#X connect 2 0 28 0;
#X connect 3 0 1 0;
#X connect 3 1 4 0;
#X connect 4 0 5 0;
#X connect 5 0 0 1;
#X connect 6 0 8 0;
#X connect 7 0 6 0;
#X connect 8 0 5 1;
#X connect 9 0 10 0;
#X connect 9 1 10 1;
#X connect 10 0 3 0;
#X connect 11 0 17 0;
#X connect 11 1 17 1;
#X connect 12 0 13 0;
#X connect 13 0 28 0;
#X connect 14 0 11 0;
#X connect 14 1 11 1;
#X connect 17 0 12 0;
#X connect 18 0 20 0;
#X connect 18 1 19 0;
#X connect 19 0 22 0;
#X connect 20 0 6 1;
#X connect 20 0 21 0;
#X connect 21 0 23 0;
#X connect 22 0 24 0;
#X connect 22 1 25 0;
#X connect 23 0 29 0;
#X connect 24 0 7 0;
#X connect 25 0 7 0;
#X connect 27 0 9 0;
#X connect 27 0 14 0;
#X connect 30 0 18 0;
