#N canvas 1114 129 726 704 10;
#X obj 25 389 AudioPan, f 28;
#X obj 5 680 s~ pan-outL;
#X obj 174 681 s~ pan-outR;
#X obj 217 243 +~ 0.5;
#X obj 217 221 *~ 0.5;
#X obj 24 71 r~ pan-in;
#X obj 216 192 *~ 0.1, f 16;
#X obj 217 271 clip~ 0 1;
#X obj 216 164 osc~ 0.01;
#X obj 331 51 r pan-depth;
#X obj 216 83 t f f;
#X obj 216 105 *, f 5;
#X obj 351 149 * 100;
#X obj 351 171 int;
#X msg 351 196 Depth \$1 %;
#X obj 351 218 s pan-depth-label;
#X obj 309 243 * 1001;
#X obj 309 266 int;
#X obj 309 287 * 0.001;
#X msg 309 309 Rate \$1 Hz;
#X obj 174 654 hip~ 5;
#X obj 5 650 hip~ 5;
#X obj 216 127 * 20;
#X msg 536 91 \$1 10;
#X obj 596 91 * 101;
#X obj 596 113 int;
#X msg 596 135 Dry / Wet \$1 %;
#X obj 6 620 c_xfade, f 11;
#X obj 173 624 c_xfade, f 9;
#X obj 536 55 r pan-dw;
#X obj 596 157 s pan-dw-label;
#X obj 536 453 f;
#X obj 216 51 r pan-rate;
#X obj 309 332 s pan-rate-label;
#X connect 0 0 27 1;
#X connect 0 1 28 1;
#X connect 3 0 7 0;
#X connect 4 0 3 0;
#X connect 5 0 0 0;
#X connect 5 0 27 0;
#X connect 5 0 28 0;
#X connect 6 0 4 0;
#X connect 7 0 0 1;
#X connect 8 0 6 0;
#X connect 9 0 6 1;
#X connect 9 0 12 0;
#X connect 10 0 11 0;
#X connect 10 1 11 1;
#X connect 11 0 22 0;
#X connect 12 0 13 0;
#X connect 13 0 14 0;
#X connect 14 0 15 0;
#X connect 16 0 17 0;
#X connect 17 0 18 0;
#X connect 18 0 19 0;
#X connect 19 0 33 0;
#X connect 20 0 2 0;
#X connect 21 0 1 0;
#X connect 22 0 8 0;
#X connect 22 0 16 0;
#X connect 23 0 31 0;
#X connect 24 0 25 0;
#X connect 25 0 26 0;
#X connect 26 0 30 0;
#X connect 27 0 21 0;
#X connect 28 0 20 0;
#X connect 29 0 23 0;
#X connect 29 0 24 0;
#X connect 31 0 27 2;
#X connect 31 0 28 2;
#X connect 32 0 10 0;
