#N canvas 635 65 631 889 10;
#X msg 362 214 depth \$1;
#N canvas 7 50 612 483 crossfade 0;
#X obj 33 48 inlet~;
#X obj 211 67 inlet;
#X obj 39 327 outlet~;
#X obj 49 194 expr cos($f1 * 3.14159 / 2);
#X obj 244 194 expr sin($f1 * 3.14159 / 2);
#X obj 211 143 clip 0 1;
#N canvas 7 50 594 632 pan_core 0;
#X obj 21 106 inlet~;
#X obj 226 126 inlet;
#X obj 59 259 *~;
#X obj 123 303 outlet~;
#X obj 189 258 *~;
#X obj 205 234 line~;
#X obj 75 234 line~;
#X obj 96 127 inlet;
#X obj 179 104 inlet~;
#X text 223 350 comment;
#X obj 75 195 pack f 5;
#X obj 205 195 pack f 5;
#X text 202 346 Hans-Christoph Steiner \, 2004;
#X text 202 332 Adapted from [pan_core~];
#X connect 0 0 2 0;
#X connect 1 0 11 0;
#X connect 2 0 3 0;
#X connect 4 0 3 0;
#X connect 5 0 4 1;
#X connect 6 0 2 1;
#X connect 7 0 10 0;
#X connect 8 0 4 0;
#X connect 10 0 6 0;
#X connect 11 0 5 0;
#X restore 39 266 pd pan_core;
#X text 165 300 Adapted from [equal_power_pan~] \, Hans-Christoph Steiner
\, 2004;
#X text 320 312 comment;
#X obj 128 46 inlet~;
#X connect 0 0 6 0;
#X connect 1 0 5 0;
#X connect 3 0 6 1;
#X connect 4 0 6 3;
#X connect 5 0 3 0;
#X connect 5 0 4 0;
#X connect 6 0 2 0;
#X connect 9 0 6 2;
#X restore 154 760 pd crossfade;
#X obj 273 671 i;
#X obj 273 648 * 101;
#X obj 195 582 bob~, f 21;
#X obj 225 522 pack 0 50;
#X obj 225 547 line~;
#X obj 376 547 line~;
#X obj 376 522 pack 0 50;
#X obj 376 484 * 3.8;
#X obj 225 377 mtof;
#X obj 225 352 * 120;
#X obj 236 398 i;
#X obj 387 367 * 101;
#X obj 387 388 i;
#X obj 155 830 *~ 1;
#X obj 269 824 *~ 1;
#X msg 387 413 Resonance \$1 %;
#X msg 236 419 Cutoff \$1 Hz;
#X text 8 35 Moog Resonant Filter effect module;
#X obj 155 237 e_bitcrusher \$0-bcwhatever 128;
#X obj 154 60 r~ moogBC-in;
#X obj 362 61 r moogBC-depth;
#X obj 376 322 r moogBC-res;
#X obj 225 317 r moogBC-cut;
#X text 9 13 Bitcrusher than:;
#X obj 273 716 s moogBC-xfade-label;
#X msg 273 694 Bits / Filt \$1 %;
#X obj 454 202 i;
#X obj 454 251 s moogBC-depth-label;
#X msg 454 227 Depth \$1;
#X obj 236 440 s moogBC-cut-label;
#X obj 387 434 s moogBC-res-label;
#X obj 156 856 s~ moogBC-outL;
#X obj 269 856 s~ moogBC-outR;
#X obj 273 617 r moogBC-xfade;
#X obj 362 83 - 1, f 7;
#X obj 362 105 abs;
#X obj 362 127 * 6.6;
#X obj 362 149 + 1.4;
#X obj 362 172 pack 0 30;
#X obj 362 193 line;
#X obj 455 172 * 101;
#X connect 0 0 20 1;
#X connect 1 0 15 0;
#X connect 1 0 16 0;
#X connect 2 0 27 0;
#X connect 3 0 2 0;
#X connect 4 0 1 1;
#X connect 5 0 6 0;
#X connect 6 0 4 1;
#X connect 7 0 4 2;
#X connect 8 0 7 0;
#X connect 9 0 8 0;
#X connect 10 0 5 0;
#X connect 10 0 12 0;
#X connect 11 0 10 0;
#X connect 12 0 18 0;
#X connect 13 0 14 0;
#X connect 14 0 17 0;
#X connect 15 0 33 0;
#X connect 16 0 34 0;
#X connect 17 0 32 0;
#X connect 18 0 31 0;
#X connect 20 0 4 0;
#X connect 20 0 1 0;
#X connect 21 0 20 0;
#X connect 22 0 36 0;
#X connect 22 0 42 0;
#X connect 23 0 13 0;
#X connect 23 0 9 0;
#X connect 24 0 11 0;
#X connect 27 0 26 0;
#X connect 28 0 30 0;
#X connect 30 0 29 0;
#X connect 35 0 1 2;
#X connect 35 0 3 0;
#X connect 36 0 37 0;
#X connect 37 0 38 0;
#X connect 38 0 39 0;
#X connect 39 0 40 0;
#X connect 40 0 41 0;
#X connect 41 0 0 0;
#X connect 42 0 28 0;
