#N canvas 6 50 747 562 10;
#X obj 202 193 throw~ outL;
#X obj 292 193 throw~ outR;
#X obj 237 48 r notes;
#X obj 237 70 s wavs-1-notes-in;
#X obj 202 151 r~ wavs-1-out;
#X obj 94 81 Wavescanner 1;
#X floatatom 593 221 5 0 0 0 - - -, f 5;
#X obj 593 240 * 0.1;
#X obj 593 262 +;
#X obj 633 262 * 0.9;
#X floatatom 593 284 5 0 0 0 - - -, f 5;
#X obj 590 317 int;
#X floatatom 590 339 5 0 0 0 - - -, f 5;
#X connect 2 0 3 0;
#X connect 4 0 0 0;
#X connect 4 0 1 0;
#X connect 6 0 7 0;
#X connect 7 0 8 0;
#X connect 8 0 9 0;
#X connect 8 0 10 0;
#X connect 9 0 8 1;
#X connect 10 0 11 0;
#X connect 11 0 12 0;
