#N canvas 460 213 984 831 10;
#X msg 495 213 read -resize \$1 wavs-\$2-array;
#X obj 495 183 pack sym \$1;
#X obj 495 235 soundfiler;
#N canvas 0 50 450 250 (subpatch) 0;
#X array wavs-\$1-array 88200 float 2;
#X coords 0 1 88200 -1 200 140 1;
#X restore 731 56 graph;
#X obj 9 10 r wavs-\$1-notes-in;
#X obj 776 446 mtof;
#X obj 791 476 s wavs-\$1-vcf-local;
#X obj 79 572 mtof;
#X obj 79 601 s wavs-\$1-width-local;
#X obj 734 619 hsl 128 15 0 2000 0 0 empty empty empty -2 -8 0 10 -262144
-1 -1 0 1;
#X obj 583 626 hsl 128 15 0 4 0 0 empty empty empty -2 -8 0 10 -262144
-1 -1 0 1;
#X obj 564 699 s wavs-\$1-rate-local;
#X obj 715 699 s wavs-\$1-depth-local;
#X obj 15 363 s~ wavs-\$1-out;
#X obj 9 37 poly 8 1, f 10;
#X obj 9 59 pack 0 0 0;
#X obj 9 81 route 1 2 3 4 5 6 7 8, f 60;
#X obj 15 181 catch~ wavs-\$1-voice-out;
#X obj 16 313 vcf~ 1 2;
#X obj 69 263 loadbang;
#X msg 69 285 2;
#X obj 42 238 lop~ 10;
#X obj 42 213 r wavs-\$1-vcf-local;
#X obj 525 277 s wavs-\$1-filesize;
#X obj 79 524 * 105;
#X obj 79 546 + 40;
#X obj 495 305 int \$1;
#X msg 495 329 \; wavs-\$1-array normalize;
#X obj 495 277 b;
#X floatatom 580 646 5 0 0 0 - - -, f 5;
#X floatatom 731 639 5 0 0 0 - - -, f 5;
#X obj 790 639 loadbang;
#X obj 642 650 loadbang;
#X msg 642 672 0;
#X msg 790 661 300;
#X obj 518 431 * 1501;
#X obj 518 453 int;
#X msg 518 545 Decay \$1 ms;
#X obj 518 567 s wavs-\$1-decay-label;
#X obj 518 409 r wavs-\$1-decay;
#X obj 544 503 s wavs-\$1-decay-local;
#X obj 117 110 wavs-voice \$1;
#X obj 29 492 r wavs-\$1-width;
#X obj 29 514 * 101;
#X obj 29 536 int;
#X obj 29 660 s wavs-\$1-width-label;
#X obj 255 467 * 101;
#X obj 255 489 int;
#X obj 255 613 s wavs-\$1-position-label;
#X msg 255 591 Position \$1%;
#X obj 255 414 r wavs-\$1-position;
#X obj 776 399 * 108;
#X obj 776 421 + 20;
#X obj 776 377 r wavs-\$1-vcf;
#X msg 783 528 LowPass \$1 hz;
#X msg 29 638 Width \$1%;
#X obj 781 558 s wavs-\$1-vcf-label;
#X obj 779 497 int;
#X obj 42 138 wavs-voice \$1;
#X obj 9 111 wavs-voice \$1;
#X obj 150 137 wavs-voice \$1;
#X obj 250 137 wavs-voice \$1;
#X obj 217 110 wavs-voice \$1;
#X obj 325 109 wavs-voice \$1;
#X obj 358 136 wavs-voice \$1;
#X obj 301 491 s wavs-\$1-position-local;
#X obj 301 467 + 0.001;
#X obj 15 333 *~ 1;
#X obj 495 99 loadbang;
#X obj 495 128 bng 15 250 50 0 empty empty empty 17 7 0 10 -262144
-1 -1;
#X obj 495 148 symbol wave.wav;
#X text 289 10 A Module that loads a wav file named wave.wav and scans
through it to create a 'waveform'. position sets the point and width
sets how wide the loop is. The wider the loop the more 'partials' and
noise. A lowpass filter is added at the end.;
#X connect 0 0 2 0;
#X connect 1 0 0 0;
#X connect 2 0 23 0;
#X connect 2 0 28 0;
#X connect 4 0 14 0;
#X connect 5 0 6 0;
#X connect 5 0 57 0;
#X connect 7 0 8 0;
#X connect 9 0 12 0;
#X connect 9 0 30 0;
#X connect 10 0 11 0;
#X connect 10 0 29 0;
#X connect 14 0 15 0;
#X connect 14 1 15 1;
#X connect 14 2 15 2;
#X connect 15 0 16 0;
#X connect 16 0 59 0;
#X connect 16 1 58 0;
#X connect 16 2 41 0;
#X connect 16 3 60 0;
#X connect 16 4 62 0;
#X connect 16 5 61 0;
#X connect 16 6 63 0;
#X connect 16 7 64 0;
#X connect 17 0 18 0;
#X connect 18 0 67 0;
#X connect 19 0 20 0;
#X connect 20 0 18 2;
#X connect 21 0 18 1;
#X connect 22 0 21 0;
#X connect 24 0 25 0;
#X connect 25 0 7 0;
#X connect 26 0 27 0;
#X connect 28 0 26 0;
#X connect 31 0 34 0;
#X connect 32 0 33 0;
#X connect 33 0 11 0;
#X connect 34 0 12 0;
#X connect 35 0 36 0;
#X connect 36 0 37 0;
#X connect 36 0 40 0;
#X connect 37 0 38 0;
#X connect 39 0 35 0;
#X connect 42 0 24 0;
#X connect 42 0 43 0;
#X connect 43 0 44 0;
#X connect 44 0 55 0;
#X connect 46 0 47 0;
#X connect 47 0 49 0;
#X connect 49 0 48 0;
#X connect 50 0 46 0;
#X connect 50 0 66 0;
#X connect 51 0 52 0;
#X connect 52 0 5 0;
#X connect 53 0 51 0;
#X connect 54 0 56 0;
#X connect 55 0 45 0;
#X connect 57 0 54 0;
#X connect 66 0 65 0;
#X connect 67 0 13 0;
#X connect 68 0 69 0;
#X connect 69 0 70 0;
#X connect 70 0 1 0;
