#N canvas 19 50 1145 808 10;
#X obj 71 77 osc~ 1;
#X obj 71 179 *~;
#X obj 181 351 +~;
#X text 525 108 fundamental;
#X obj 466 106 phasor~;
#X obj 466 128 *~ -1;
#X obj 467 153 +~ 1;
#X obj 443 178 min~;
#X obj 443 200 *~ 2;
#X obj 443 342 *~;
#X obj 286 449 +~;
#X obj 286 471 tabread4~ wavs-\$1-array;
#X obj 466 29 unpack 0 0;
#X obj 466 81 mtof;
#X obj 286 613 *~;
#X obj 533 409 f;
#X msg 533 445 0 \$1;
#X text 571 412 decay time;
#X obj 533 522 *~;
#X obj 533 376 t b b;
#X obj 533 474 vline~;
#X obj 695 380 t f b, f 10;
#X obj 695 342 * 0.00787402;
#X msg 695 407 \$1 5;
#X obj 533 53 sel 0;
#X obj 466 51 - 20;
#X obj 462 282 +~ 110;
#X obj 466 7 inlet;
#X obj 650 461 del;
#X obj 591 387 + 5;
#X msg 650 483 0;
#X msg 762 417 1;
#X obj 462 258 r wavs-\$1-width-local;
#X obj 71 48 r wavs-\$1-rate-local;
#X obj 89 153 r wavs-\$1-depth-local;
#X obj 285 718 hip~ 4;
#X obj 285 740 throw~ wavs-\$1-voice-out;
#X obj 71 99 *~ 0.5;
#X obj 71 121 +~ 0.5;
#X obj 279 132 r wavs-\$1-filesize;
#X obj 462 304 lop~ 2;
#X obj 551 296 r wavs-\$1-decay-local;
#X obj 198 319 lop~ 0.5;
#X obj 247 78 r wavs-\$1-position-local;
#X obj 247 100 t b f;
#X obj 247 162 f;
#X obj 247 184 *, f 5;
#X obj 247 206 sig~;
#X connect 0 0 37 0;
#X connect 1 0 2 0;
#X connect 2 0 10 0;
#X connect 4 0 5 0;
#X connect 5 0 6 0;
#X connect 5 0 7 0;
#X connect 6 0 7 1;
#X connect 7 0 8 0;
#X connect 8 0 9 0;
#X connect 9 0 10 1;
#X connect 10 0 11 0;
#X connect 11 0 14 0;
#X connect 12 0 25 0;
#X connect 12 1 24 0;
#X connect 13 0 4 0;
#X connect 14 0 35 0;
#X connect 15 0 16 0;
#X connect 16 0 20 0;
#X connect 18 0 14 1;
#X connect 19 0 15 0;
#X connect 19 1 28 0;
#X connect 20 0 18 1;
#X connect 20 0 18 0;
#X connect 21 0 23 0;
#X connect 21 1 31 0;
#X connect 22 0 21 0;
#X connect 23 0 20 0;
#X connect 24 0 19 0;
#X connect 24 1 22 0;
#X connect 25 0 13 0;
#X connect 26 0 40 0;
#X connect 27 0 12 0;
#X connect 28 0 30 0;
#X connect 29 0 28 1;
#X connect 32 0 26 0;
#X connect 33 0 0 0;
#X connect 34 0 1 1;
#X connect 35 0 36 0;
#X connect 37 0 38 0;
#X connect 38 0 1 0;
#X connect 39 0 45 1;
#X connect 40 0 9 1;
#X connect 41 0 15 1;
#X connect 41 0 29 0;
#X connect 42 0 2 1;
#X connect 43 0 44 0;
#X connect 44 0 45 0;
#X connect 44 1 46 1;
#X connect 45 0 46 0;
#X connect 46 0 47 0;
#X connect 47 0 42 0;
