#N canvas 316 50 1444 936 10;
#X obj 81 97 expr 1000/($f1/60);
#X obj 81 67 r master-bpm;
#N canvas 166 50 1750 947 syncseq2 0;
#X obj 860 508 qlist;
#X obj 274 415 f;
#X obj 274 362 sel 1;
#X msg 910 461 rewind;
#X obj 930 509 bng 15 250 50 0 empty empty empty 17 7 0 10 -262144
-1 -1;
#X obj 1068 461 timer;
#X obj 1108 345 unpack;
#X obj 1045 584 pack s 0 s 0 0;
#X msg 1045 511 add;
#X obj 1045 623 route list;
#X obj 1068 383 t b b b b f, f 16;
#X obj 1132 252 spigot 0;
#X obj 1215 222 tgl 15 0 empty empty empty 17 7 0 10 -262144 -1 -1
0 1;
#X msg 979 461 clear;
#X obj 1388 339 f;
#X obj 1425 339 + 1;
#X floatatom 1388 383 5 0 0 0 - - -, f 5;
#X obj 1403 281 sel 1;
#X msg 1403 306 0;
#X obj 1388 418 sel 0;
#X msg 1047 248 0 0;
#X obj 123 418 sel 1;
#X obj 123 591 sel 0 1 2 3, f 54;
#X obj 123 666 t b b;
#X msg 155 731 1;
#X obj 216 642 t b b;
#X msg 240 663 0;
#X msg 357 487 2;
#X obj 274 322 t f f;
#X obj 274 441 sel 1;
#X obj 310 643 t b b;
#X msg 342 738 0;
#X obj 404 626 t b b b;
#X msg 463 653 1;
#X msg 1434 480 3;
#X msg 1215 193 1;
#X msg 1370 140 0;
#X obj 274 469 t b b b;
#X obj 665 741 bag;
#X msg 679 713 flush;
#X obj 665 765 pack 0 0;
#X msg 332 173 Sequencer: Playing;
#X msg 480 173 Sequencer: Stopped;
#X msg 635 173 Sequencer: Enabled;
#X msg 809 172 Sequencer: Recording;
#X text 1146 705 states are: 0 = stopped \, 1 = playing \, 2 = rec
enabled \, 3 = recording, f 70;
#X text 317 66 Controls LED & Screen Infomation:;
#X obj 274 387 del 500;
#X text 96 220 Controls State With Aux Button;
#X text 1001 138 Record Notes To List. First note starts recording.
;
#X text 614 593 Kills notes left on by sequence.;
#N canvas 9 50 1006 722 midi-control 0;
#X obj 95 121 midirealtimein;
#X obj 95 177 sel 248 250 251 252, f 22;
#X obj 260 239 bng 15 250 50 0 empty empty empty 17 7 0 10 -262144
-1 -1;
#X obj 260 355 t b b;
#X msg 292 390 0;
#X obj 369 364 t b b;
#X msg 401 399 0;
#X obj 482 368 t b b b;
#X msg 541 395 1;
#X obj 260 309 sel 1 2 3, f 37;
#X obj 69 243 bng 15 250 50 0 empty empty empty 17 7 0 10 -262144 -1
-1;
#X obj 69 313 sel 0 1 2 3, f 12;
#X text 78 509 states are: 0 = stopped \, 1 = playing \, 2 = rec enabled
\, 3 = recording, f 70;
#X obj 69 351 t b b;
#X msg 101 386 1;
#X text 262 143 MIDI 248 = clock \; 250 = start \; 251 = continue \;
252 = stop, f 18;
#X text 23 15 This subpatch handles MIDI commands for starting/stopping
sequencer., f 69;
#X obj 260 456 s syncseq2-\$1-stop;
#X obj 369 466 s syncseq2-\$1-stop;
#X obj 482 470 s syncseq2-\$1-start;
#X obj 505 442 s syncseq2-\$1-end_seq;
#X obj 541 417 v syncseq2-\$1-state;
#X obj 401 421 v syncseq2-\$1-state;
#X obj 292 412 v syncseq2-\$1-state;
#X obj 101 408 v syncseq2-\$1-state;
#X obj 69 461 s syncseq2-\$1-start;
#X obj 260 272 v syncseq2-\$1-state;
#X obj 69 276 v syncseq2-\$1-state;
#X connect 0 0 1 0;
#X connect 1 1 10 0;
#X connect 1 2 10 0;
#X connect 1 3 2 0;
#X connect 2 0 26 0;
#X connect 3 0 17 0;
#X connect 3 1 4 0;
#X connect 4 0 23 0;
#X connect 5 0 18 0;
#X connect 5 1 6 0;
#X connect 6 0 22 0;
#X connect 7 0 19 0;
#X connect 7 1 20 0;
#X connect 7 2 8 0;
#X connect 8 0 21 0;
#X connect 9 0 3 0;
#X connect 9 1 5 0;
#X connect 9 2 7 0;
#X connect 10 0 27 0;
#X connect 11 0 13 0;
#X connect 13 0 25 0;
#X connect 13 1 14 0;
#X connect 14 0 24 0;
#X connect 26 0 9 0;
#X connect 27 0 11 0;
#X restore 113 164 pd midi-control;
#X obj 930 635 t b b;
#X obj 993 729 sel 0 1 2 3, f 33;
#X obj 993 681 delay 100;
#X text 893 835 Flashes LED at loop & sets color after sequence stop
;
#X obj 1388 450 t b b b;
#X msg 1388 579 1;
#X obj 860 348 spigot 0, f 9;
#X text 865 278 avoid playing 0 len seq;
#X msg 665 404 tempo \$1;
#X obj 1020 205 t b b;
#X obj 523 378 loadbang;
#X obj 523 415 t b b;
#X msg 523 472 1;
#X msg 555 440 read ./sequence.txt;
#N canvas 5 50 450 300 midi-out 0;
#X obj 114 172 noteout 1;
#X obj 114 132 unpack;
#X obj 195 104 r syncseq2-\$1-zero_notes;
#X obj 99 80 r syncseq2-\$1-notes_seq;
#X obj 211 137 r midiCh;
#X connect 1 0 0 0;
#X connect 1 1 0 1;
#X connect 2 0 1 0;
#X connect 3 0 1 0;
#X connect 4 0 0 2;
#X restore 112 128 pd midi-out;
#X obj 332 87 r syncseq2-\$1-start;
#X obj 480 90 r syncseq2-\$1-stop;
#X obj 635 88 r syncseq2-\$1-recenable;
#X obj 809 87 r syncseq2-\$1-record;
#X obj 1020 171 r syncseq2-\$1-end_seq;
#X obj 1215 166 r syncseq2-\$1-recenable;
#X obj 1370 106 r syncseq2-\$1-start;
#X obj 1518 106 r syncseq2-\$1-stop;
#X obj 1411 536 s syncseq2-\$1-record;
#X obj 1388 613 s syncseq2-\$1-something-recorded;
#X obj 523 494 s syncseq2-\$1-something-recorded;
#X obj 665 614 r syncseq2-\$1-notes_seq;
#X obj 679 644 r syncseq2-\$1-stop;
#X obj 665 791 s syncseq2-\$1-zero_notes;
#X obj 123 775 s syncseq2-\$1-start;
#X obj 216 703 s syncseq2-\$1-stop;
#X obj 310 785 s syncseq2-\$1-stop;
#X obj 404 717 s syncseq2-\$1-start;
#X obj 427 695 s syncseq2-\$1-end_seq;
#X obj 155 753 v syncseq2-\$1-state;
#X obj 240 685 v syncseq2-\$1-state;
#X obj 342 760 v syncseq2-\$1-state;
#X obj 463 674 v syncseq2-\$1-state;
#X obj 274 561 s syncseq2-\$1-recenable;
#X obj 297 534 s syncseq2-\$1-stop;
#X obj 357 509 v syncseq2-\$1-state;
#X obj 123 477 v syncseq2-\$1-state;
#X obj 580 247 s syncseq2-\$1-aux-label;
#X obj 993 705 v syncseq2-\$1-state;
#X obj 1254 51 r syncseq2-\$1-zero_notes;
#X obj 1450 51 r syncseq2-\$1-notes_seq;
#X obj 1434 502 v syncseq2-\$1-state;
#X msg 993 756 0;
#X msg 1050 755 3;
#X msg 1107 756 6;
#X msg 1164 756 1;
#X obj 993 798 s syncseq2-\$1-led;
#X msg 930 679 7;
#X obj 860 303 r syncseq2-\$1-start;
#X obj 920 324 r syncseq2-\$1-something-recorded;
#X obj 910 415 r syncseq2-\$1-stop;
#X msg 669 338 write ./sequence.txt;
#X obj 669 313 r saveState;
#X obj 123 243 inlet;
#X obj 1193 106 outlet;
#X obj 1133 36 inlet, f 17;
#X obj 1123 425 \$1;
#X obj 849 135 s syncseq2-\$1-led;
#X msg 848 114 1;
#X obj 675 138 s syncseq2-\$1-led;
#X obj 506 135 s syncseq2-\$1-led;
#X msg 505 114 0;
#X msg 674 117 6;
#X obj 347 129 s syncseq2-\$1-led;
#X msg 346 108 3;
#X obj 692 667 r syncseq2-\$1-quitting;
#X msg 1123 463 symbol syncseq2-\$1-notes_seq;
#X obj 910 437 b;
#X obj 1194 378 t f b b;
#N canvas 618 385 400 356 timer 0;
#X obj 89 105 spigot;
#X obj 89 30 inlet;
#X text 128 29 notes;
#X msg 89 151 0;
#X obj 84 299 outlet;
#X obj 84 249 timer;
#X obj 84 226 t b b;
#X obj 177 124 r syncseq2-\$1-end_seq;
#X obj 128 57 r syncseq2-\$1-recenable;
#X msg 128 79 1;
#X obj 89 129 t b b b;
#X connect 0 0 10 0;
#X connect 1 0 0 0;
#X connect 3 0 0 1;
#X connect 5 0 4 0;
#X connect 6 0 5 0;
#X connect 6 1 5 1;
#X connect 7 0 6 0;
#X connect 8 0 9 0;
#X connect 9 0 0 1;
#X connect 10 0 3 0;
#X connect 10 1 6 0;
#X connect 10 2 5 0;
#X restore 1233 517 pd timer;
#X text 1237 493 total time of seq;
#X obj 1233 539 s syncseq2-\$1-timer-local;
#X obj 123 440 b;
#N canvas 760 222 450 299 eighth-sync 0;
#X obj 112 42 r master-ticks;
#X obj 112 146 t b b;
#X msg 112 168 0;
#X obj 112 124 spigot 0;
#X msg 165 98 1;
#X obj 55 3 inlet;
#X obj 55 25 b;
#X obj 144 198 outlet;
#N canvas 1096 214 450 300 eights 0;
#X obj 73 61 inlet;
#X obj 73 124 outlet;
#X obj 73 90 sel 0 12;
#X text 130 63 master-ticks in;
#X connect 0 0 2 0;
#X connect 2 0 1 0;
#X connect 2 1 1 0;
#X restore 112 78 pd eights;
#X connect 0 0 8 0;
#X connect 1 0 2 0;
#X connect 1 1 7 0;
#X connect 2 0 3 1;
#X connect 3 0 1 0;
#X connect 4 0 3 1;
#X connect 5 0 6 0;
#X connect 6 0 4 0;
#X connect 8 0 3 0;
#X restore 860 392 pd eighth-sync;
#X obj 665 372 r syncseq2-\$1-tempo-local;
#X obj 1168 621 s syncseq2-\$1-tempo-local;
#X msg 1168 599 1;
#X obj 830 583 textfile;
#X connect 0 1 4 0;
#X connect 1 0 29 0;
#X connect 2 0 47 0;
#X connect 3 0 0 0;
#X connect 4 0 52 0;
#X connect 4 0 130 0;
#X connect 5 0 7 1;
#X connect 6 0 10 0;
#X connect 6 1 125 0;
#X connect 7 0 9 0;
#X connect 8 0 7 0;
#X connect 9 0 0 0;
#X connect 10 0 5 0;
#X connect 10 1 8 0;
#X connect 10 2 5 1;
#X connect 10 3 113 0;
#X connect 10 4 7 3;
#X connect 11 0 6 0;
#X connect 12 0 11 1;
#X connect 12 0 17 0;
#X connect 13 0 0 0;
#X connect 14 0 15 0;
#X connect 14 0 16 0;
#X connect 15 0 14 1;
#X connect 16 0 19 0;
#X connect 17 0 18 0;
#X connect 18 0 14 1;
#X connect 19 0 5 0;
#X connect 19 0 13 0;
#X connect 19 0 56 0;
#X connect 20 0 6 0;
#X connect 21 0 129 0;
#X connect 22 0 23 0;
#X connect 22 1 25 0;
#X connect 22 2 30 0;
#X connect 22 3 32 0;
#X connect 23 0 81 0;
#X connect 23 1 24 0;
#X connect 24 0 86 0;
#X connect 25 0 82 0;
#X connect 25 1 26 0;
#X connect 26 0 87 0;
#X connect 27 0 92 0;
#X connect 28 0 2 0;
#X connect 28 1 1 1;
#X connect 29 0 37 0;
#X connect 30 0 83 0;
#X connect 30 1 31 0;
#X connect 31 0 88 0;
#X connect 32 0 84 0;
#X connect 32 1 85 0;
#X connect 32 2 33 0;
#X connect 33 0 89 0;
#X connect 34 0 98 0;
#X connect 35 0 12 0;
#X connect 36 0 12 0;
#X connect 37 0 90 0;
#X connect 37 1 91 0;
#X connect 37 2 27 0;
#X connect 38 0 40 0;
#X connect 39 0 38 0;
#X connect 40 0 80 0;
#X connect 41 0 94 0;
#X connect 42 0 94 0;
#X connect 43 0 94 0;
#X connect 44 0 94 0;
#X connect 47 0 1 0;
#X connect 52 0 104 0;
#X connect 52 1 54 0;
#X connect 53 0 99 0;
#X connect 53 1 100 0;
#X connect 53 2 101 0;
#X connect 53 3 102 0;
#X connect 54 0 95 0;
#X connect 56 0 57 0;
#X connect 56 1 75 0;
#X connect 56 2 34 0;
#X connect 57 0 76 0;
#X connect 58 0 130 0;
#X connect 60 0 0 0;
#X connect 61 1 20 0;
#X connect 62 0 63 0;
#X connect 63 0 64 0;
#X connect 63 1 65 0;
#X connect 64 0 77 0;
#X connect 65 0 0 0;
#X connect 67 0 41 0;
#X connect 67 0 121 0;
#X connect 68 0 42 0;
#X connect 68 0 118 0;
#X connect 69 0 43 0;
#X connect 69 0 119 0;
#X connect 70 0 44 0;
#X connect 70 0 115 0;
#X connect 71 0 61 0;
#X connect 72 0 35 0;
#X connect 73 0 36 0;
#X connect 74 0 36 0;
#X connect 78 0 38 0;
#X connect 79 0 39 0;
#X connect 93 0 22 0;
#X connect 95 0 53 0;
#X connect 96 0 111 0;
#X connect 97 0 111 0;
#X connect 99 0 103 0;
#X connect 100 0 103 0;
#X connect 101 0 103 0;
#X connect 102 0 103 0;
#X connect 104 0 103 0;
#X connect 105 0 58 0;
#X connect 106 0 58 1;
#X connect 107 0 124 0;
#X connect 108 0 0 0;
#X connect 109 0 108 0;
#X connect 110 0 28 0;
#X connect 110 0 21 0;
#X connect 112 0 11 0;
#X connect 112 0 111 0;
#X connect 113 0 123 0;
#X connect 115 0 114 0;
#X connect 118 0 117 0;
#X connect 119 0 116 0;
#X connect 121 0 120 0;
#X connect 122 0 39 0;
#X connect 123 0 7 2;
#X connect 124 0 3 0;
#X connect 125 0 7 4;
#X connect 125 1 14 0;
#X connect 125 2 126 0;
#X connect 126 0 128 0;
#X connect 129 0 93 0;
#X connect 130 0 0 0;
#X connect 131 0 60 0;
#X connect 133 0 132 0;
#X restore 477 484 pd syncseq2;
#X obj 477 424 r syncseq2-\$1-aux;
#X obj 551 451 r syncseq2-\$1-notes-in;
#X obj 477 532 s syncseq2-\$1-notes-out;
#X obj 81 278 *, f 6;
#X obj 99 230 int;
#X obj 99 252 t b f;
#X obj 81 384 s syncseq2-\$1-tempo-local;
#X obj 99 142 r syncseq2-\$1-timer-local;
#X text 177 77 calculate bar length;
#X text 160 208 convert the seq time to bar length(nearest 2000ms)
;
#X obj 81 355 /, f 10;
#X obj 99 164 t f f;
#X floatatom 23 167 5 0 0 0 - - -, f 5;
#X floatatom 121 482 5 0 0 0 - - -, f 5;
#X obj 81 329 f;
#X floatatom 208 258 5 0 0 0 - - -, f 5;
#X obj 81 300 t b f;
#X obj 99 186 expr if($f1 < 500 \, 500 \, $f1);
#X obj 99 208 / 500;
#X text 161 355 compute the relative tempo;
#X text 628 110 This sort of works. no quantization just scales the
over all sequence to the global bpm.;
#X text 628 160 The problem is that 120bpm plays the seq back as it
was played. so... should the new sequence be played at 1 all the time
and then once the bpm changs than it scales?;
#X connect 0 0 6 0;
#X connect 0 0 15 0;
#X connect 1 0 0 0;
#X connect 2 0 5 0;
#X connect 3 0 2 0;
#X connect 4 0 2 1;
#X connect 6 0 19 0;
#X connect 7 0 8 0;
#X connect 8 0 6 0;
#X connect 8 1 6 1;
#X connect 10 0 14 0;
#X connect 10 0 18 0;
#X connect 13 0 9 0;
#X connect 13 0 16 0;
#X connect 14 0 20 0;
#X connect 14 1 17 1;
#X connect 17 0 13 0;
#X connect 19 0 17 0;
#X connect 19 1 13 1;
#X connect 20 0 21 0;
#X connect 21 0 7 0;
