#N canvas 726 79 1085 724 10;
#N canvas 4 50 450 250 (subpatch) 0;
#X array \$0-convert 24 float 3;
#A 0 0 0 0 0 0 0 0 0 0 0 0 0 0 0 0 0 0 0 0 0 0 0 0 0;
#X coords 0 1 24 0 200 140 1 0 0;
#X restore 352 83 graph;
#X obj 70 49 inlet;
#X obj 248 515 tabwrite \$0-convert;
#X obj 211 179 tabread \$0-convert, f 10;
#X obj 120 223 tgl 15 0 empty empty empty 17 7 0 10 -262144 -1 -1 1
1;
#X text 180 78 24 notes;
#X obj 102 98 stripnote;
#X obj 102 120 - 1;
#X obj 102 404 pack 0 0;
#X obj 155 325 sel 0 1, f 10;
#X msg 155 351 0;
#X msg 188 351 100;
#X obj 102 548 outlet;
#X obj 410 388 \$0;
#X msg 410 414 \; \$1-convert const 0;
#X msg 219 352 1;
#X obj 102 342 + 1;
#X obj 102 253 i;
#X obj 102 306 f;
#X obj 102 154 t b b f f f, f 16;
#X obj 102 275 t b f;
#X text 365 248 1-24 (array is 0-23);
#X obj 410 295 loadbang;
#X obj 323 271 inlet;
#X obj 323 293 sel 1;
#X obj 154 484 bag;
#X msg 346 402 flush;
#X obj 102 456 t l l;
#X obj 134 516 list append 0;
#X text 368 270 send a 1 to cancel all voices;
#X text 90 19 Converts a normal midi note stream into on/off toggle
states. Send a 1 to right inlet to kill all notes.;
#X obj 464 586 array sum \$0-convert;
#X obj 70 73 t b a;
#X obj 323 315 t b b b;
#X msg 464 612 Playing \$1 Loops;
#X obj 464 634 outlet;
#X obj 477 495 r page-ready;
#X msg 351 712 0;
#X obj 351 656 sel 0;
#X obj 383 691 b;
#X msg 383 718 3;
#X obj 351 745 s jr-\$1-ledstate;
#X msg 464 560 0;
#X connect 1 0 32 0;
#X connect 3 0 4 0;
#X connect 4 0 17 1;
#X connect 6 0 7 0;
#X connect 7 0 19 0;
#X connect 8 0 27 0;
#X connect 9 0 10 0;
#X connect 9 1 11 0;
#X connect 9 1 15 0;
#X connect 10 0 8 1;
#X connect 10 0 2 0;
#X connect 11 0 8 1;
#X connect 13 0 14 0;
#X connect 15 0 2 0;
#X connect 16 0 8 0;
#X connect 17 0 20 0;
#X connect 18 0 16 0;
#X connect 19 0 17 0;
#X connect 19 1 4 0;
#X connect 19 2 18 1;
#X connect 19 3 2 1;
#X connect 19 4 3 0;
#X connect 20 0 18 0;
#X connect 20 1 9 0;
#X connect 22 0 13 0;
#X connect 23 0 24 0;
#X connect 24 0 33 0;
#X connect 25 0 28 0;
#X connect 26 0 25 0;
#X connect 27 0 12 0;
#X connect 27 1 25 0;
#X connect 28 0 12 0;
#X connect 31 0 34 0;
#X connect 31 0 38 0;
#X connect 32 0 42 0;
#X connect 32 1 6 0;
#X connect 33 0 42 0;
#X connect 33 1 26 0;
#X connect 33 2 13 0;
#X connect 34 0 35 0;
#X connect 36 0 42 0;
#X connect 37 0 41 0;
#X connect 38 0 37 0;
#X connect 38 1 39 0;
#X connect 39 0 40 0;
#X connect 40 0 41 0;
#X connect 42 0 31 0;
