#N canvas 253 50 1185 798 10;
#N canvas 1114 464 415 316 load 0;
#X obj 39 50 load-24 1.wav jr \$1;
#X obj 38 91 load-24 3.wav jr \$1;
#X obj 38 71 load-24 2.wav jr \$1;
#X obj 38 111 load-24 4.wav jr \$1;
#X obj 38 131 load-24 5.wav jr \$1;
#X obj 38 151 load-24 6.wav jr \$1;
#X obj 39 171 load-24 7.wav jr \$1;
#X obj 38 191 load-24 8.wav jr \$1;
#X obj 38 211 load-24 9.wav jr \$1;
#X obj 38 231 load-24 10.wav jr \$1;
#X obj 38 251 load-24 11.wav jr \$1;
#X obj 38 271 load-24 12.wav jr \$1;
#X obj 191 51 load-24 13.wav jr \$1;
#X obj 191 71 load-24 14.wav jr \$1;
#X obj 191 91 load-24 15.wav jr \$1;
#X obj 191 111 load-24 16.wav jr \$1;
#X obj 191 131 load-24 17.wav jr \$1;
#X obj 191 151 load-24 18.wav jr \$1;
#X obj 191 171 load-24 19.wav jr \$1;
#X obj 190 191 load-24 20.wav jr \$1;
#X obj 191 211 load-24 21.wav jr \$1;
#X obj 191 231 load-24 22.wav jr \$1;
#X obj 191 251 load-24 23.wav jr \$1;
#X obj 191 271 load-24 24.wav jr \$1;
#X restore 4 33 pd load sounds;
#X obj 4 280 % 24;
#X obj 4 254 abs;
#X obj 4 213 expr if ($f1 > 59 \, $f1 - 60 \, $f1 - 12);
#X text 10 233 allow all midi notes to trigger samples...;
#X obj 4 332 pack 0 0, f 10;
#X obj 4 171 unpack 0 0;
#X text 106 328 Notes in to Sampler Player;
#X text 116 33 Loads samples to Ram;
#X obj 12 470 int;
#X msg 105 515 Release \$1 ms;
#X obj 326 481 int;
#X obj 4 302 + 1;
#X msg 326 536 Start \$1 %;
#N canvas 308 502 1608 372 Battleship 0;
#X obj 24 125 pack 0 0 0;
#X obj 24 52 inlet;
#X obj 24 166 route 1 2 3 4 5 6 7 8 9 10 11 12 13 14 15 16 17 18 19
20 21 22 23 24, f 244;
#X obj 24 103 poly 24 1, f 10;
#X obj 42 251 jr-voice \$1;
#X obj 412 291 jr-voice \$1;
#X obj 293 291 jr-voice \$1;
#X obj 161 301 jr-voice \$1;
#X obj 1437 288 jr-voice \$1;
#X obj 24 231 jr-voice \$1;
#X obj 144 281 jr-voice \$1;
#X obj 274 271 jr-voice \$1;
#X obj 393 271 jr-voice \$1;
#X obj 524 271 jr-voice \$1;
#X obj 542 291 jr-voice \$1;
#X obj 654 271 jr-voice \$1;
#X obj 672 291 jr-voice \$1;
#X obj 784 272 jr-voice \$1;
#X obj 808 298 jr-voice \$1;
#X obj 909 268 jr-voice \$1;
#X obj 927 288 jr-voice \$1;
#X obj 1039 268 jr-voice \$1;
#X obj 1057 288 jr-voice \$1;
#X obj 1159 268 jr-voice \$1;
#X obj 1177 288 jr-voice \$1;
#X obj 1289 268 jr-voice \$1;
#X obj 1307 288 jr-voice \$1;
#X obj 1420 268 jr-voice \$1;
#X connect 0 0 2 0;
#X connect 1 0 3 0;
#X connect 2 0 9 0;
#X connect 2 1 4 0;
#X connect 2 2 10 0;
#X connect 2 3 7 0;
#X connect 2 4 11 0;
#X connect 2 5 6 0;
#X connect 2 6 12 0;
#X connect 2 7 5 0;
#X connect 2 8 13 0;
#X connect 2 9 14 0;
#X connect 2 10 15 0;
#X connect 2 11 16 0;
#X connect 2 12 17 0;
#X connect 2 13 18 0;
#X connect 2 14 19 0;
#X connect 2 15 20 0;
#X connect 2 16 21 0;
#X connect 2 17 22 0;
#X connect 2 18 23 0;
#X connect 2 19 24 0;
#X connect 2 20 25 0;
#X connect 2 21 26 0;
#X connect 2 22 27 0;
#X connect 2 23 8 0;
#X connect 3 0 0 0;
#X connect 3 1 0 1;
#X connect 3 2 0 2;
#X restore 4 382 pd Battleship;
#X obj 12 448 * 1002;
#X text 147 75 clickless looping;
#X obj 923 499 i;
#X obj 923 443 moses 0.98, f 12;
#X msg 1004 489 bang;
#X msg 923 560 Decay \$1%;
#X msg 1004 560 Decay Off;
#X obj 923 608 s jr-\$1-decay-label;
#X obj 326 299 r jr-\$1-start;
#X obj 14 614 catch~ jr-\$1-voice-out;
#X obj 123 666 s~ jr-\$1-outR;
#X obj 13 666 s~ jr-\$1-outL;
#X obj 12 426 r jr-\$1-release;
#X obj 105 540 s jr-\$1-release-label;
#X obj 12 570 s jr-\$1-release-local;
#X obj 4 144 r jr-\$1-notes-in;
#X obj 326 561 s jr-\$1-start-label;
#X obj 343 428 s jr-\$1-start-local;
#X obj 326 459 * 1001;
#X obj 326 503 * 0.1;
#X obj 923 273 r jr-\$1-decay;
#X obj 962 420 s jr-\$1-decay-local;
#X obj 938 147 * 4;
#X text 966 138 change this to match round time (2000= 4), f 21;
#X obj 938 105 expr 1000/($f1/60);
#X obj 938 35 r master-bpm;
#X obj 938 178 s jr-\$1-bar-length;
#X text 652 507 convert MasterMetro to beat divisions;
#X obj 547 360 r jr-\$1-beatDiv;
#X obj 547 467 s jr-\$1-beatDiv-label;
#X obj 547 404 int;
#X obj 547 382 * 8;
#N canvas 554 485 711 358 print 0;
#X obj 61 36 inlet;
#X obj 61 58 sel 0 1 2 3 4 5 6, f 55;
#X obj 61 80 symbol wholes;
#X obj 78 103 symbol halves;
#X obj 171 80 symbol thirds;
#X obj 188 103 symbol quarters;
#X obj 291 80 symbol eighths;
#X obj 308 102 symbol triplets;
#X obj 401 80 symbol sixteenths;
#X msg 61 208 Beat-Div: \$1;
#X obj 61 230 outlet;
#X connect 0 0 1 0;
#X connect 1 0 2 0;
#X connect 1 1 3 0;
#X connect 1 2 4 0;
#X connect 1 3 5 0;
#X connect 1 4 6 0;
#X connect 1 5 7 0;
#X connect 1 6 8 0;
#X connect 2 0 9 0;
#X connect 3 0 9 0;
#X connect 4 0 9 0;
#X connect 5 0 9 0;
#X connect 6 0 9 0;
#X connect 7 0 9 0;
#X connect 8 0 9 0;
#X connect 9 0 10 0;
#X restore 547 438 pd print beatdiv;
#X obj 492 533 s jr-\$1-beatdiv-local;
#X obj 701 227 s jr-\$1-kill-local;
#X obj 701 190 r jr-\$1-aux;
#X obj 92 309 r jr-\$1-kill-local;
#X obj 923 470 * 100;
#X text 437 69 Argument1: Module Instance Number;
#X obj 492 506 mmetro-divisions jr \$1;
#X text 414 15 Module version of the Jerpahy Patch. Convert incoming
Note Ons into toggles. Loop Samples scaled to the Global Tempo;
#X obj 4 75 crown-window jr \$1;
#X msg 762 684 7;
#X obj 599 632 t b b;
#X obj 599 664 del 125;
#X obj 134 387 s jr-\$1-play-label;
#X obj 599 601 r jr-\$1-wholes;
#X obj 599 741 s jr-\$1-led;
#X obj 4 360 convert-2-toggle \$1;
#X obj 624 684 r jr-\$1-ledstate;
#X obj 599 708 f;
#X connect 1 0 12 0;
#X connect 2 0 1 0;
#X connect 3 0 2 0;
#X connect 5 0 63 0;
#X connect 6 0 3 0;
#X connect 6 1 5 1;
#X connect 9 0 10 0;
#X connect 9 0 29 0;
#X connect 10 0 28 0;
#X connect 11 0 34 0;
#X connect 12 0 5 0;
#X connect 13 0 31 0;
#X connect 15 0 9 0;
#X connect 17 0 20 0;
#X connect 18 0 52 0;
#X connect 18 1 19 0;
#X connect 19 0 21 0;
#X connect 20 0 22 0;
#X connect 21 0 22 0;
#X connect 23 0 32 0;
#X connect 23 0 33 0;
#X connect 24 0 25 0;
#X connect 24 0 26 0;
#X connect 27 0 15 0;
#X connect 30 0 6 0;
#X connect 33 0 11 0;
#X connect 34 0 13 0;
#X connect 35 0 36 0;
#X connect 35 0 18 0;
#X connect 37 0 41 0;
#X connect 39 0 37 0;
#X connect 40 0 39 0;
#X connect 43 0 46 0;
#X connect 45 0 47 0;
#X connect 45 0 54 0;
#X connect 46 0 45 0;
#X connect 47 0 44 0;
#X connect 50 0 49 0;
#X connect 51 0 63 1;
#X connect 52 0 17 0;
#X connect 54 0 48 0;
#X connect 57 0 62 0;
#X connect 58 0 59 0;
#X connect 58 1 57 0;
#X connect 59 0 65 0;
#X connect 61 0 58 0;
#X connect 63 0 14 0;
#X connect 63 1 60 0;
#X connect 64 0 65 0;
#X connect 65 0 62 0;
