#N canvas 581 51 1335 993 10;
#X obj 140 391 array size;
#X obj 207 367 route list;
#X obj 113 69 inlet;
#X obj 165 162 unpack 0 0, f 54;
#X obj 502 292 sel 0, f 17;
#X obj 618 522 vline~;
#X obj 618 552 *~;
#X obj 618 425 * 0.00787402;
#X obj 266 882 *~, f 27;
#X text 982 53 plays a sound file;
#X obj 266 825 *~, f 20;
#X text 292 827 clickless window;
#X obj 266 787 tabread4~;
#X obj 804 695 switch~;
#X msg 548 450 0 \$1;
#X obj 548 423 f;
#X obj 502 425 del;
#X obj 520 398 + 4;
#X obj 502 314 t b b, f 7;
#X msg 804 340 1;
#X msg 502 447 0;
#X obj 267 912 hip~ 5;
#X text 316 911 cut DC;
#X text 842 337 turn on dsp;
#X text 607 404 Velocity Relative Trigger;
#X text 484 471 turn dsp off;
#X obj 618 314 t f b b, f 27;
#X obj 328 633 f;
#X text 219 391 get size of chosen array;
#X text 129 738 point to new array;
#X text 667 333 reset phasor;
#X obj 327 551 t b b;
#X obj 502 266 f;
#X text 343 883 release envelope;
#X obj 266 852 *~, f 24;
#X text 333 853 decay envelope;
#X msg 618 485 \$1 4;
#X text 616 719 re-trigger for decay;
#N canvas 686 52 607 651 decay 0;
#X obj 82 486 outlet~;
#X obj 19 2 inlet;
#X obj 82 453 *~;
#X obj 81 422 vline~;
#X obj 81 329 f 1000;
#X obj 121 293 *;
#X obj 81 357 pack 0 0;
#X obj 121 122 t f f;
#X text 191 143 if knob all the way up \, never decay;
#X text 273 91 do a simple amplitude decay;
#X obj 190 171 expr if($f1 > 0.98 \, 1 \, 0);
#X obj 19 234 t b b;
#X msg 81 386 1 1 \, \$2 \$1 1;
#X text 35 26 trigger;
#X obj 139 258 * 4;
#X msg 39 354 0;
#X obj 139 8 inlet;
#X text 155 29 duration;
#X obj 1079 360 s \$1-\$2-decay-local;
#X obj 121 90 r jr-\$1-decay-local;
#X connect 1 0 11 0;
#X connect 2 0 0 0;
#X connect 3 0 2 0;
#X connect 3 0 2 1;
#X connect 4 0 6 0;
#X connect 5 0 4 1;
#X connect 6 0 12 0;
#X connect 7 0 5 0;
#X connect 7 1 10 0;
#X connect 10 0 6 1;
#X connect 11 0 4 0;
#X connect 11 1 15 0;
#X connect 12 0 3 0;
#X connect 14 0 5 1;
#X connect 15 0 3 0;
#X connect 16 0 14 0;
#X connect 19 0 7 0;
#X restore 569 788 pd decay;
#X obj 569 737 threshold~ 0.0001 0 0.9999 0;
#X obj 107 476 s \$0-duration;
#X obj 140 451 s \$0-duration-ms;
#X obj 140 425 / 44.1;
#X obj 347 685 r \$0-duration;
#X obj 346 597 r jr-\$1-start-local;
#X obj 267 940 throw~ jr-\$1-voice-out;
#X obj 207 340 list prepend symbol;
#X text 980 75 Argument1: Module Shortcut Name;
#X text 982 95 Argument2: Module Number;
#X obj 268 656 s_vphasor;
#X obj 291 583 f;
#X obj 622 762 r \$0-duration-ms;
#X obj 140 223 f, f 4;
#X obj 113 191 t b b;
#X msg 267 550 \$1 20;
#X obj 267 619 vline~;
#X obj 131 717 route list;
#X obj 131 690 list prepend set;
#X obj 140 314 t b a a, f 14;
#N canvas 8 50 450 300 relative-time 0;
#X obj 45 205 expr 1 / ($f1/1000);
#X obj 45 178 *;
#X obj 63 130 int;
#X obj 63 56 r \$0-duration-ms;
#X obj 63 108 / 2000;
#X obj 63 83 expr if($f1 < 2000 \, 2000 \, $f1);
#X obj 45 30 r jr-\$1-bar-length;
#X obj 63 152 t b f;
#X obj 45 227 outlet;
#X connect 0 0 8 0;
#X connect 1 0 0 0;
#X connect 2 0 7 0;
#X connect 3 0 5 0;
#X connect 4 0 2 0;
#X connect 5 0 4 0;
#X connect 6 0 1 0;
#X connect 7 0 1 0;
#X connect 7 1 1 1;
#X restore 267 494 pd relative-time;
#N canvas 693 145 927 517 filter-on-notes 0;
#X obj 113 104 list split 1;
#X obj 153 236 list;
#X obj 153 132 sel 0, f 13;
#X obj 241 186 list;
#X obj 216 225 list;
#X obj 153 338 outlet;
#X obj 113 49 inlet;
#X obj 216 52 inlet;
#X msg 216 279 0;
#X obj 241 166 t b b;
#X msg 273 219 1;
#X obj 113 77 t a a a;
#X obj 216 257 t b a;
#X obj 216 308 spigot 0;
#X connect 0 1 2 0;
#X connect 1 0 5 0;
#X connect 2 0 1 0;
#X connect 2 1 9 0;
#X connect 3 0 4 1;
#X connect 4 0 12 0;
#X connect 6 0 11 0;
#X connect 7 0 4 0;
#X connect 8 0 13 1;
#X connect 9 0 3 0;
#X connect 9 1 10 0;
#X connect 10 0 13 1;
#X connect 11 0 0 0;
#X connect 11 1 1 1;
#X connect 11 2 3 1;
#X connect 12 0 8 0;
#X connect 12 1 13 0;
#X connect 13 0 5 0;
#X restore 113 103 pd filter-on-notes;
#X text 249 102 Note 'on's wait for beatdiv to sync. note 'off's are
passed through immediatley;
#X obj 218 64 r jr-\$1-beatdiv-local;
#X obj 113 139 t b a;
#X obj 140 265 pack 0 \$1;
#X msg 140 289 \$1.wav-jr-array-\$2;
#X floatatom 585 390 5 0 0 0 - - -, f 5;
#X obj 566 359 r jr-\$1-release-local;
#X obj 657 151 r jr-\$1-kill-local;
#X obj 657 173 sel 1;
#X msg 657 195 0;
#X obj 266 738 *~, f 12;
#X obj 266 760 +~ 1;
#X obj 366 760 +~ 1;
#X obj 366 738 *~ 22050, f 12;
#X obj 367 787 tabread4~ jr-\$1-crown;
#X connect 0 0 40 0;
#X connect 0 0 42 0;
#X connect 1 0 0 1;
#X connect 2 0 60 0;
#X connect 3 0 52 1;
#X connect 3 1 32 1;
#X connect 4 0 18 0;
#X connect 4 1 26 0;
#X connect 5 0 6 1;
#X connect 5 0 6 0;
#X connect 6 0 8 1;
#X connect 7 0 36 0;
#X connect 8 0 21 0;
#X connect 10 0 34 0;
#X connect 12 0 10 0;
#X connect 14 0 5 0;
#X connect 15 0 14 0;
#X connect 16 0 20 0;
#X connect 17 0 16 1;
#X connect 18 0 16 0;
#X connect 18 1 15 0;
#X connect 19 0 13 0;
#X connect 20 0 13 0;
#X connect 21 0 45 0;
#X connect 26 0 7 0;
#X connect 26 1 31 0;
#X connect 26 2 19 0;
#X connect 27 0 49 1;
#X connect 31 0 50 0;
#X connect 31 1 27 0;
#X connect 32 0 4 0;
#X connect 34 0 8 0;
#X connect 36 0 5 0;
#X connect 38 0 34 1;
#X connect 39 0 38 0;
#X connect 42 0 41 0;
#X connect 43 0 71 1;
#X connect 44 0 27 1;
#X connect 46 0 1 0;
#X connect 49 0 39 0;
#X connect 49 0 71 0;
#X connect 49 0 74 0;
#X connect 50 0 55 0;
#X connect 51 0 38 1;
#X connect 52 0 64 0;
#X connect 53 0 32 0;
#X connect 53 1 52 0;
#X connect 54 0 55 0;
#X connect 55 0 49 0;
#X connect 56 0 12 0;
#X connect 57 0 56 0;
#X connect 58 0 0 0;
#X connect 58 1 46 0;
#X connect 58 2 57 0;
#X connect 59 0 54 0;
#X connect 59 0 50 1;
#X connect 60 0 63 0;
#X connect 62 0 60 1;
#X connect 63 0 53 0;
#X connect 63 1 3 0;
#X connect 64 0 65 0;
#X connect 65 0 58 0;
#X connect 67 0 17 0;
#X connect 67 0 15 1;
#X connect 67 0 66 0;
#X connect 68 0 69 0;
#X connect 69 0 70 0;
#X connect 70 0 32 0;
#X connect 71 0 72 0;
#X connect 72 0 12 0;
#X connect 73 0 75 0;
#X connect 74 0 73 0;
#X connect 75 0 10 1;
