#N canvas 309 23 1085 814 10;
#N canvas 245 324 450 300 triplets 0;
#X obj 73 41 inlet;
#X obj 73 128 outlet;
#X obj 73 86 sel 0 8 16;
#X text 125 35 master-ticks in;
#X connect 0 0 2 0;
#X connect 2 0 1 0;
#X connect 2 1 1 0;
#X connect 2 2 1 0;
#X restore 240 247 pd triplets;
#N canvas 604 155 450 300 sixteenths 0;
#X obj 73 41 inlet;
#X obj 73 128 outlet;
#X obj 73 86 sel 0 6 12 18;
#X text 127 45 master-ticks in;
#X connect 0 0 2 0;
#X connect 2 0 1 0;
#X connect 2 1 1 0;
#X connect 2 2 1 0;
#X connect 2 3 1 0;
#X restore 343 247 pd sixteenths;
#N canvas 715 648 450 300 quarters 0;
#X obj 73 41 inlet;
#X obj 73 111 outlet;
#X obj 73 75 sel 0 24 48 72;
#X text 134 40 master-beats in;
#X connect 0 0 2 0;
#X connect 2 0 1 0;
#X connect 2 1 1 0;
#X connect 2 2 1 0;
#X connect 2 3 1 0;
#X restore 40 244 pd quarters;
#N canvas 1092 226 450 300 eighths 0;
#X obj 73 61 inlet;
#X obj 73 124 outlet;
#X obj 73 90 sel 0 12;
#X text 130 63 master-ticks in;
#X connect 0 0 2 0;
#X connect 2 0 1 0;
#X connect 2 1 1 0;
#X restore 143 245 pd eighths;
#N canvas 770 536 450 300 wholes 0;
#X obj 73 41 inlet;
#X obj 73 96 outlet;
#X obj 73 63 sel 1;
#X text 120 48 master beats in;
#X connect 0 0 2 0;
#X connect 2 0 1 0;
#X restore 40 93 pd wholes;
#N canvas 771 533 450 300 halves 0;
#X obj 73 41 inlet;
#X obj 73 156 outlet;
#X text 119 38 master-beats in;
#X obj 73 63 sel 1 3;
#X connect 0 0 3 0;
#X connect 3 0 1 0;
#X connect 3 1 1 0;
#X restore 139 93 pd halves;
#X obj 40 18 r master-beats;
#X obj 40 162 r master-ticks;
#X text 327 17 Turn Modular System's MasterMetro into beat divisions
;
#X obj 40 123 s \$1-\$2-wholes;
#X obj 139 123 s \$1-\$2-halves;
#X obj 40 274 s \$1-\$2-quarters;
#X obj 143 274 s \$1-\$2-eighths;
#X obj 240 274 s \$1-\$2-triplets;
#X obj 343 274 s \$1-\$2-sixteenths;
#X obj 420 457 spigot;
#X obj 465 491 spigot;
#X obj 560 457 spigot;
#X obj 591 498 spigot;
#X obj 671 451 spigot;
#X obj 730 481 spigot;
#X obj 565 281 list append 1;
#X obj 858 457 spigot;
#X obj 453 361 route 0 1 2 3 4 5 6, f 22;
#X msg 592 334 0;
#X obj 565 314 t l b;
#X obj 565 48 inlet;
#X obj 420 695 outlet;
#X obj 420 435 r \$1-\$2-wholes;
#X obj 465 469 r \$1-\$2-halves;
#X obj 560 435 r \$1-\$2-thirds;
#X obj 591 476 r \$1-\$2-quarters;
#X obj 672 429 r \$1-\$2-eighths;
#X obj 730 459 r \$1-\$2-triplets;
#X obj 858 435 r \$1-\$2-sixteenths;
#X connect 0 0 13 0;
#X connect 1 0 14 0;
#X connect 2 0 11 0;
#X connect 3 0 12 0;
#X connect 4 0 9 0;
#X connect 5 0 10 0;
#X connect 6 0 4 0;
#X connect 6 0 5 0;
#X connect 7 0 3 0;
#X connect 7 0 0 0;
#X connect 7 0 1 0;
#X connect 7 0 2 0;
#X connect 15 0 27 0;
#X connect 16 0 27 0;
#X connect 17 0 27 0;
#X connect 18 0 27 0;
#X connect 19 0 27 0;
#X connect 20 0 27 0;
#X connect 21 0 25 0;
#X connect 22 0 27 0;
#X connect 23 0 15 1;
#X connect 23 1 16 1;
#X connect 23 2 17 1;
#X connect 23 3 18 1;
#X connect 23 4 19 1;
#X connect 23 5 20 1;
#X connect 23 6 22 1;
#X connect 24 0 22 1;
#X connect 24 0 20 1;
#X connect 24 0 19 1;
#X connect 24 0 18 1;
#X connect 24 0 17 1;
#X connect 24 0 16 1;
#X connect 24 0 15 1;
#X connect 25 0 23 0;
#X connect 25 1 24 0;
#X connect 26 0 21 0;
#X connect 28 0 15 0;
#X connect 29 0 16 0;
#X connect 30 0 17 0;
#X connect 31 0 18 0;
#X connect 32 0 19 0;
#X connect 33 0 20 0;
#X connect 34 0 22 0;
