#N canvas 38 50 631 889 10;
#X msg 362 193 depth \$1;
#X floatatom 362 173 5 0 0 1 depth_(min=1) - -, f 5;
#X obj 363 106 t f f;
#X obj 363 128 *;
#X obj 362 148 * 128;
#N canvas 7 50 612 483 crossfade 0;
#X obj 33 48 inlet~;
#X obj 211 67 inlet;
#X obj 39 327 outlet~;
#X obj 49 194 expr cos($f1 * 3.14159 / 2);
#X obj 244 194 expr sin($f1 * 3.14159 / 2);
#X obj 211 143 clip 0 1;
#N canvas 7 50 594 632 pan_core 0;
#X obj 21 106 inlet~;
#X obj 226 126 inlet;
#X obj 59 259 *~;
#X obj 123 303 outlet~;
#X obj 189 258 *~;
#X obj 205 234 line~;
#X obj 75 234 line~;
#X obj 96 127 inlet;
#X obj 179 104 inlet~;
#X text 223 350 comment;
#X obj 75 195 pack f 5;
#X obj 205 195 pack f 5;
#X text 202 346 Hans-Christoph Steiner \, 2004;
#X text 202 332 Adapted from [pan_core~];
#X connect 0 0 2 0;
#X connect 1 0 11 0;
#X connect 2 0 3 0;
#X connect 4 0 3 0;
#X connect 5 0 4 1;
#X connect 6 0 2 1;
#X connect 7 0 10 0;
#X connect 8 0 4 0;
#X connect 10 0 6 0;
#X connect 11 0 5 0;
#X restore 39 266 pd pan_core;
#X text 165 300 Adapted from [equal_power_pan~] \, Hans-Christoph Steiner
\, 2004;
#X text 320 312 comment;
#X obj 128 46 inlet~;
#X connect 0 0 6 0;
#X connect 1 0 5 0;
#X connect 3 0 6 1;
#X connect 4 0 6 3;
#X connect 5 0 3 0;
#X connect 5 0 4 0;
#X connect 6 0 2 0;
#X connect 9 0 6 2;
#X restore 154 760 pd crossfade;
#X obj 273 671 i;
#X obj 273 648 * 101;
#X obj 195 582 bob~, f 21;
#X obj 225 547 line~;
#X obj 416 547 line~;
#X obj 416 522 pack 0 50;
#X obj 416 484 * 3.8;
#X obj 195 377 mtof;
#X obj 234 288 i;
#X obj 427 367 * 101;
#X obj 427 388 i;
#X obj 155 830 *~ 1;
#X obj 289 824 *~ 1;
#X msg 427 413 Resonance \$1 %;
#X msg 234 309 Cutoff \$1 Hz;
#X text 8 35 Moog Resonant Filter effect module;
#X obj 155 227 e_bitcrusher \$0-bcwhatever 128;
#X text 9 13 Bitcrusher than:;
#X msg 273 694 Bits / Filt \$1 %;
#X obj 454 202 i;
#X msg 454 227 Depth \$1;
#X obj 214 267 r moogBCEnv-cut;
#X obj 154 60 r~ moogBCEnv-in;
#X obj 363 84 r moogBCEnv-depth;
#X obj 454 251 s moogBCEnv-depth-label;
#X obj 427 434 s moogBCEnv-res-label;
#X obj 234 330 s moogBCEnv-cut-label;
#X obj 416 322 r moogBCEnv-res;
#X obj 273 716 s moogBCEnv-xfade-label;
#X obj 273 618 r moogBCEnv-xfade;
#X obj 156 856 s~ moogBCEnv-outL;
#X obj 289 856 s~ moogBCEnv-outR;
#X obj 84 232 env~;
#X obj 225 522 pack 0 20;
#X obj 195 399 * 3, f 6;
#X text 193 9 ***adds an enveolpe follow for the filter***;
#X connect 0 0 22 1;
#X connect 1 0 0 0;
#X connect 2 0 3 0;
#X connect 2 1 3 1;
#X connect 3 0 4 0;
#X connect 4 0 1 0;
#X connect 4 0 25 0;
#X connect 5 0 17 0;
#X connect 5 0 18 0;
#X connect 6 0 24 0;
#X connect 7 0 6 0;
#X connect 8 0 5 1;
#X connect 9 0 8 1;
#X connect 10 0 8 2;
#X connect 11 0 10 0;
#X connect 12 0 11 0;
#X connect 13 0 40 0;
#X connect 14 0 20 0;
#X connect 15 0 16 0;
#X connect 16 0 19 0;
#X connect 17 0 36 0;
#X connect 18 0 37 0;
#X connect 19 0 31 0;
#X connect 20 0 32 0;
#X connect 22 0 8 0;
#X connect 22 0 5 0;
#X connect 24 0 34 0;
#X connect 25 0 26 0;
#X connect 26 0 30 0;
#X connect 27 0 40 1;
#X connect 27 0 14 0;
#X connect 28 0 22 0;
#X connect 28 0 38 0;
#X connect 29 0 2 0;
#X connect 33 0 15 0;
#X connect 33 0 12 0;
#X connect 35 0 5 2;
#X connect 35 0 7 0;
#X connect 38 0 13 0;
#X connect 39 0 9 0;
#X connect 40 0 39 0;
