#N canvas 508 138 961 851 10;
#X obj 142 552 e_circlepan, f 24;
#X obj 306 449 phasor~ 0.1;
#X obj 143 152 r~ circPan-in;
#X obj 103 735 s~ circPan-outL;
#X obj 279 735 s~ circPan-outR;
#X obj 523 480 * 101;
#X obj 523 502 int;
#X msg 523 524 Dry / Wet \$1 %;
#X obj 104 620 c_xfade, f 11;
#X obj 103 571 *~ 1;
#X text 75 14 Pan Module that uses circular pan startegy;
#X obj 463 444 r circPan-dw;
#X obj 523 546 s circPan-dw-label;
#X obj 306 146 t f f;
#X obj 306 168 *, f 5;
#X obj 323 229 * 1001;
#X obj 323 252 int;
#X obj 323 273 * 0.001;
#X obj 104 692 hip~ 5;
#X obj 278 696 hip~ 5;
#X obj 539 218 int;
#X obj 463 556 lop~ 5;
#X obj 278 624 c_xfade, f 9;
#X floatatom 361 382 5 0 0 0 - - -, f 5;
#X obj 450 119 r circPan-rateHFO;
#X obj 306 113 r circPan-rateLFO;
#X obj 323 318 s circPan-rateLFO-label;
#X obj 539 265 s circPan-rateHFO-label;
#X obj 450 163 mtof;
#X msg 539 243 HFO Rate \$1 %;
#X msg 323 295 LFO Rate \$1 Hz;
#X obj 450 141 * 100;
#X obj 306 190 * 10;
#X connect 0 0 8 1;
#X connect 0 1 22 1;
#X connect 1 0 0 1;
#X connect 2 0 9 0;
#X connect 2 0 0 0;
#X connect 5 0 6 0;
#X connect 6 0 7 0;
#X connect 7 0 12 0;
#X connect 8 0 18 0;
#X connect 9 0 8 0;
#X connect 9 0 22 0;
#X connect 11 0 5 0;
#X connect 11 0 21 0;
#X connect 13 0 14 0;
#X connect 13 1 14 1;
#X connect 14 0 32 0;
#X connect 15 0 16 0;
#X connect 16 0 17 0;
#X connect 17 0 30 0;
#X connect 18 0 3 0;
#X connect 19 0 4 0;
#X connect 20 0 29 0;
#X connect 21 0 8 2;
#X connect 21 0 22 2;
#X connect 22 0 19 0;
#X connect 23 0 1 0;
#X connect 24 0 31 0;
#X connect 25 0 13 0;
#X connect 28 0 20 0;
#X connect 28 0 23 0;
#X connect 29 0 27 0;
#X connect 30 0 26 0;
#X connect 31 0 28 0;
#X connect 32 0 15 0;
#X connect 32 0 1 0;
