#N canvas 988 75 828 693 10;
#X msg 533 126 \$1 10;
#X obj 81 458 c_xfade, f 65;
#X obj 22 60 r~ dly-in;
#X obj 533 89 r dly-dw;
#X obj 82 589 s~ dly-outL;
#X obj 172 589 s~ dly-outR;
#X obj 82 112 * 127;
#X obj 82 137 mtof;
#X obj 82 168 int;
#X obj 383 86 r dly-fb;
#X obj 403 118 * 100;
#X obj 403 140 i;
#X obj 403 184 s dly-fb-label;
#X obj 218 168 int;
#X obj 202 60 r dly-time;
#X obj 202 82 t f f;
#X obj 202 104 *;
#X msg 218 190 Time \$1 Ms;
#X obj 218 212 s dly-time-label;
#X obj 593 126 * 101;
#X obj 593 148 int;
#X msg 593 170 Dry / Wet \$1 %;
#X msg 403 162 Feedback \$1 %;
#X obj 593 192 s dly-dw-label;
#X obj 81 520 *~ 0.6;
#X obj 22 171 hip~;
#X msg 82 190 HiPass \$1 Hz;
#X obj 82 212 s dly-hip-label;
#X obj 82 90 r dly-hip;
#X obj 202 132 * 3000;
#X text 33 2 Simple 3 sec Delay Module with a hi-pass filter;
#X obj 22 347 delay3sec 5, f 52;
#X connect 0 0 1 2;
#X connect 1 0 24 0;
#X connect 2 0 1 0;
#X connect 2 0 25 0;
#X connect 3 0 0 0;
#X connect 3 0 19 0;
#X connect 6 0 7 0;
#X connect 7 0 8 0;
#X connect 7 0 25 1;
#X connect 8 0 26 0;
#X connect 9 0 10 0;
#X connect 9 0 31 2;
#X connect 10 0 11 0;
#X connect 11 0 22 0;
#X connect 13 0 17 0;
#X connect 14 0 15 0;
#X connect 15 0 16 0;
#X connect 15 1 16 1;
#X connect 16 0 29 0;
#X connect 17 0 18 0;
#X connect 19 0 20 0;
#X connect 20 0 21 0;
#X connect 21 0 23 0;
#X connect 22 0 12 0;
#X connect 24 0 4 0;
#X connect 24 0 5 0;
#X connect 25 0 31 0;
#X connect 26 0 27 0;
#X connect 28 0 6 0;
#X connect 29 0 13 0;
#X connect 29 0 31 1;
#X connect 31 0 1 1;
