#N canvas 840 223 894 726 10;
#X obj 189 160 *~;
#X obj 206 102 vline~;
#X obj 206 124 *~;
#X obj 109 31 loadbang;
#X msg 109 53 56;
#X obj 109 75 mtof;
#X obj 201 23 tgl 15 0 empty empty empty 17 7 0 10 -262144 -1 -1 0
1;
#X obj 29 304 throw~ outL;
#X obj 138 303 throw~ outR;
#X obj 362 287 r knob1;
#X obj 468 280 r knob2;
#X obj 296 416 s screenLine1;
#X obj 422 416 s screenLine2;
#X floatatom 44 35 5 0 0 0 - - -, f 5;
#X obj 117 107 blsaw;
#X obj 462 33 Delay;
#X obj 542 287 r knob3;
#X obj 364 311 s dly-time;
#X obj 474 311 s dly-fb;
#X obj 655 311 s dly-dw;
#X obj 29 282 r~ dly-outL;
#X obj 139 281 r~ dly-outR;
#X obj 189 190 s~ dly-in;
#X obj 526 416 s screenLine3;
#X obj 642 416 s screenLine4;
#X obj 648 280 r knob4;
#X obj 643 395 r dly-dw-label;
#X obj 423 395 r dly-fb-label;
#X obj 301 395 r dly-time-label;
#X obj 544 311 s dly-hip;
#X obj 531 395 r dly-hip-label;
#X obj 203 58 metro 250;
#X msg 207 80 1 5 \, 0 0 125;
#X floatatom 303 41 5 0 0 0 - - -, f 5;
#X connect 0 0 22 0;
#X connect 1 0 2 0;
#X connect 1 0 2 1;
#X connect 2 0 0 1;
#X connect 3 0 4 0;
#X connect 4 0 5 0;
#X connect 5 0 14 0;
#X connect 6 0 31 0;
#X connect 9 0 17 0;
#X connect 10 0 18 0;
#X connect 13 0 5 0;
#X connect 14 0 0 0;
#X connect 16 0 29 0;
#X connect 20 0 7 0;
#X connect 21 0 8 0;
#X connect 25 0 19 0;
#X connect 26 0 24 0;
#X connect 27 0 12 0;
#X connect 28 0 11 0;
#X connect 30 0 23 0;
#X connect 31 0 32 0;
#X connect 32 0 1 0;
#X connect 33 0 31 1;
