#N canvas 359 68 972 781 10;
#X msg 230 383 attack \$1;
#X msg 352 382 release \$1;
#X floatatom 230 365 5 0.001 1000 0 - - -, f 5;
#X floatatom 352 362 5 0.001 1000 0 - - -, f 5;
#X floatatom 576 364 5 0 1 0 - - -, f 5;
#X text 272 649 Knee smoothening \, from 0 to 1;
#X text 272 663 0 = hard. 1 = smooth. Default = 0;
#X text 272 706 Makeup gain \, in dB. Default = 0 dB.;
#X obj 36 310 r~ comp-inL;
#X obj 126 310 r~ comp-inR;
#X obj 49 577 s~ comp-outL;
#X obj 141 550 s~ comp-outR;
#X text 272 575 Attack in ms. Default = 0.001 ms;
#X text 272 620 Release in ms. Default = 0.001 ms;
#X obj 238 154 r comp-attack;
#X obj 398 154 r comp-release;
#X obj 238 176 t f f;
#X obj 238 198 *, f 5;
#X obj 398 176 t f f;
#X obj 398 198 *, f 5;
#X obj 238 220 * 2000;
#X obj 398 220 * 2000;
#X msg 258 314 Attack \$1 ms;
#X msg 418 314 Release \$1 ms;
#X obj 258 336 s comp-attack-label;
#X obj 418 336 s comp-release-label;
#X obj 552 177 * 101;
#X obj 49 505 tb_peakcomp~ -10 8 10 100 0;
#X msg 747 384 ratio \$1;
#X floatatom 747 365 5 1 100 0 - - -, f 5;
#X floatatom 746 317 5 0 0 0 - - -, f 5;
#X obj 747 186 r comp-ratio;
#X obj 748 238 int;
#X obj 818 326 s comp-ratio-label;
#X obj 747 208 * 100;
#X msg 576 382 threshold \$1;
#X obj 552 155 r comp-threshold;
#X obj 572 253 s comp-threshold-label;
#X obj 552 199 expr 0 - $f1;
#X msg 572 231 Threshold \$1 db;
#X msg 818 305 Ratio \$1 : 1;
#X obj 238 242 * 1000;
#X obj 398 242 * 1000;
#X obj 398 264 int;
#X obj 398 286 * 0.001;
#X obj 238 264 int;
#X obj 238 286 * 0.001;
#X text 32 9 Compressor Module;
#X connect 0 0 27 0;
#X connect 1 0 27 0;
#X connect 2 0 0 0;
#X connect 3 0 1 0;
#X connect 4 0 35 0;
#X connect 8 0 27 0;
#X connect 9 0 27 1;
#X connect 14 0 16 0;
#X connect 15 0 18 0;
#X connect 16 0 17 0;
#X connect 16 1 17 1;
#X connect 17 0 20 0;
#X connect 18 0 19 0;
#X connect 18 1 19 1;
#X connect 19 0 21 0;
#X connect 20 0 41 0;
#X connect 21 0 42 0;
#X connect 22 0 24 0;
#X connect 23 0 25 0;
#X connect 26 0 38 0;
#X connect 27 0 10 0;
#X connect 27 1 11 0;
#X connect 28 0 27 0;
#X connect 29 0 28 0;
#X connect 30 0 29 0;
#X connect 31 0 34 0;
#X connect 32 0 30 0;
#X connect 32 0 40 0;
#X connect 34 0 32 0;
#X connect 35 0 27 0;
#X connect 36 0 26 0;
#X connect 38 0 39 0;
#X connect 38 0 4 0;
#X connect 39 0 37 0;
#X connect 40 0 33 0;
#X connect 41 0 45 0;
#X connect 42 0 43 0;
#X connect 43 0 44 0;
#X connect 44 0 3 0;
#X connect 44 0 23 0;
#X connect 45 0 46 0;
#X connect 46 0 22 0;
#X connect 46 0 2 0;
