#N canvas 39 86 894 726 10;
#X obj 117 107 blsaw;
#X obj 189 160 *~;
#X obj 206 102 vline~;
#X obj 206 124 *~;
#X obj 109 31 loadbang;
#X msg 109 53 56;
#X obj 109 75 mtof;
#X obj 201 23 tgl 15 0 empty empty empty 17 7 0 10 -262144 -1 -1 1
1;
#X obj 29 304 throw~ outL;
#X obj 138 303 throw~ outR;
#X obj 26 416 r knob1;
#X obj 132 409 r knob2;
#X obj 25 516 s screenLine1;
#X floatatom 44 35 5 0 0 0 - - -, f 5;
#X obj 203 58 metro 1000;
#X obj 462 33 Compressor;
#X obj 28 440 s comp-attack;
#X obj 139 440 s comp-release;
#X obj 171 515 s screenLine2;
#X obj 172 494 r comp-release-label;
#X obj 346 416 r knob3;
#X obj 470 410 r knob4;
#X obj 481 515 s screenLine4;
#X obj 325 516 s screenLine3;
#X obj 139 281 r~ comp-outR;
#X obj 29 282 r~ comp-outL;
#X obj 25 494 r comp-attack-label;
#X obj 189 190 s~ comp-inL;
#X obj 279 191 s~ comp-inR;
#X msg 207 80 1 5 \, 0 0 250;
#X obj 477 441 s comp-ratio;
#X obj 482 494 r comp-ratio-label;
#X obj 348 440 s comp-threshold;
#X obj 325 494 r comp-threshold-label;
#X connect 0 0 1 0;
#X connect 1 0 27 0;
#X connect 1 0 28 0;
#X connect 2 0 3 0;
#X connect 2 0 3 1;
#X connect 3 0 1 1;
#X connect 4 0 5 0;
#X connect 5 0 6 0;
#X connect 6 0 0 0;
#X connect 7 0 14 0;
#X connect 10 0 16 0;
#X connect 11 0 17 0;
#X connect 13 0 6 0;
#X connect 14 0 29 0;
#X connect 19 0 18 0;
#X connect 20 0 32 0;
#X connect 21 0 30 0;
#X connect 24 0 9 0;
#X connect 25 0 8 0;
#X connect 26 0 12 0;
#X connect 29 0 2 0;
#X connect 31 0 22 0;
#X connect 33 0 23 0;
