#N canvas 500 325 1015 534 10;
#X obj 62 150 r~ xf3-\$1-in1;
#X obj 162 150 r~ xf3-\$1-in2;
#X obj 262 150 r~ xf3-\$1-in3;
#X obj 61 233 c_mfade3, f 42;
#X text 43 74 Argument 2: Instance Number;
#X text 43 53 Argument 1: Shortcut Name;
#X obj 372 171 sig~;
#X obj 372 74 r xf3-\$1-theknob;
#X obj 61 285 s~ xf3-\$1-outL;
#X obj 161 285 s~ xf3-\$1-outR;
#X text 305 51 Module that crossfades three Mono inputs \, with one
knob;
#X obj 469 245 min 0.33333;
#X obj 469 267 * 3;
#X obj 619 220 clip 0.33333 0.66666;
#X obj 619 242 - 0.33333;
#X obj 619 264 * 3;
#X obj 770 220 max 0.66666;
#X obj 770 242 - 0.66666;
#X obj 770 264 * 3;
#X obj 469 289 * 100;
#X obj 469 311 int;
#X obj 469 358 s xf3-\$1-input1-label;
#X text 47 350 map 'theknob' to first knob \, than the input levels
to the last three knobs \, no input for these just print to screen
;
#X obj 619 358 s xf3-\$1-input2-label;
#X obj 769 358 s xf3-\$1-input3-label;
#X msg 469 333 Input 1: \$1 %;
#X obj 619 290 * 100;
#X obj 619 312 int;
#X msg 619 334 Input 2: \$1 %;
#X obj 770 288 * 100;
#X obj 770 310 int;
#X msg 769 332 Input 3: \$1 %;
#X obj 469 165 f;
#X obj 371 193 lop~ 5;
#X connect 0 0 3 0;
#X connect 1 0 3 1;
#X connect 2 0 3 2;
#X connect 3 0 8 0;
#X connect 3 0 9 0;
#X connect 6 0 33 0;
#X connect 7 0 6 0;
#X connect 7 0 32 0;
#X connect 11 0 12 0;
#X connect 12 0 19 0;
#X connect 13 0 14 0;
#X connect 14 0 15 0;
#X connect 15 0 26 0;
#X connect 16 0 17 0;
#X connect 17 0 18 0;
#X connect 18 0 29 0;
#X connect 19 0 20 0;
#X connect 20 0 25 0;
#X connect 25 0 21 0;
#X connect 26 0 27 0;
#X connect 27 0 28 0;
#X connect 28 0 23 0;
#X connect 29 0 30 0;
#X connect 30 0 31 0;
#X connect 31 0 24 0;
#X connect 32 0 11 0;
#X connect 32 0 13 0;
#X connect 32 0 16 0;
#X connect 33 0 3 3;
