#N canvas 787 350 894 726 10;
#X obj 189 160 *~;
#X obj 206 102 vline~;
#X obj 206 124 *~;
#X obj 109 31 loadbang;
#X msg 109 53 56;
#X obj 109 75 mtof;
#X obj 201 23 tgl 15 0 empty empty empty 17 7 0 10 -262144 -1 -1 0
1;
#X obj 29 304 throw~ outL;
#X obj 138 303 throw~ outR;
#X obj 362 287 r knob1;
#X obj 468 280 r knob2;
#X obj 326 416 s screenLine1;
#X obj 531 447 s screenLine2;
#X floatatom 44 35 5 0 0 0 - - -, f 5;
#X obj 461 33 Tremolo;
#X obj 117 107 blsaw;
#X obj 190 190 s~ trem-in;
#X obj 139 281 r~ trem-outR;
#X obj 29 282 r~ trem-outL;
#X obj 475 311 s trem-dw;
#X obj 530 427 r trem-dw-label;
#X obj 364 311 s trem-freq;
#X obj 325 394 r trem-freq-label;
#X obj 44 98 mtof;
#X obj 52 130 osc~;
#X floatatom 40 63 5 0 0 0 - - -, f 5;
#X obj 203 57 metro 250;
#X msg 208 80 1 5 \, 0 0 125;
#X connect 0 0 16 0;
#X connect 1 0 2 0;
#X connect 1 0 2 1;
#X connect 2 0 0 1;
#X connect 3 0 4 0;
#X connect 4 0 5 0;
#X connect 5 0 15 0;
#X connect 6 0 26 0;
#X connect 9 0 21 0;
#X connect 10 0 19 0;
#X connect 13 0 5 0;
#X connect 15 0 0 0;
#X connect 17 0 8 0;
#X connect 18 0 7 0;
#X connect 20 0 12 0;
#X connect 22 0 11 0;
#X connect 23 0 24 0;
#X connect 24 0 0 0;
#X connect 25 0 23 0;
#X connect 26 0 27 0;
#X connect 27 0 1 0;
