#N canvas 1073 142 627 701 10;
#X msg 259 283 dry \$1;
#X obj 309 152 - 1;
#X obj 309 174 abs;
#X obj 153 125 t f f;
#X obj 153 147 *;
#X obj 153 177 * 128;
#X obj 51 331 e_tremolo mtrem;
#X msg 153 283 freq \$1;
#X obj 51 460 *~ 1;
#X obj 192 461 *~ 1;
#X obj 52 43 r~ trem-in;
#X obj 51 490 s~ trem-outL;
#X obj 193 490 s~ trem-outR;
#X text 9 2 Tremolo Effects Module;
#X obj 153 48 r trem-freq;
#X obj 309 47 r trem-dw;
#X obj 384 200 i;
#X obj 384 175 * 101;
#X msg 384 228 Dry / Wet \$1 %;
#X obj 384 252 s trem-dw-label;
#X obj 182 203 i;
#X msg 182 229 Freq \$1 Hz;
#X obj 182 253 s trem-freq-label;
#X connect 0 0 6 1;
#X connect 1 0 2 0;
#X connect 2 0 0 0;
#X connect 3 0 4 0;
#X connect 3 1 4 1;
#X connect 4 0 5 0;
#X connect 5 0 7 0;
#X connect 5 0 20 0;
#X connect 6 0 8 0;
#X connect 6 0 9 0;
#X connect 7 0 6 1;
#X connect 8 0 11 0;
#X connect 9 0 12 0;
#X connect 10 0 6 0;
#X connect 14 0 3 0;
#X connect 15 0 1 0;
#X connect 15 0 17 0;
#X connect 16 0 18 0;
#X connect 17 0 16 0;
#X connect 18 0 19 0;
#X connect 20 0 21 0;
#X connect 21 0 22 0;
