#N canvas 169 189 1324 702 10;
#X obj 1080 111 + 10;
#X obj 1080 85 * 300;
#X text 6 13 always running. mute incoming BPM to turn off in other
Modules;
#X obj 1080 33 r mm-bpmDial;
#X obj 503 194 r master-ticks;
#X obj 503 216 sel 0;
#X obj 503 238 f;
#X obj 543 238 + 1;
#X obj 503 350 % 4;
#X obj 503 372 + 1;
#X obj 661 136 r mm-beats;
#X text 674 113 Beats per Measure;
#X obj 661 168 * 16;
#X obj 661 190 int;
#X obj 661 212 + 1;
#X obj 661 234 t f f;
#X msg 463 176 0;
#X obj 463 152 b;
#X obj 463 122 r mm-restart;
#X obj 545 418 s master-beats;
#X obj 703 284 s master-timeSig;
#X text 425 8 Master Metro Module. Only use one for each Modular Patch.
Sends 24 ticks per Beat (master-ticks). Sends a Beat count relative
to set time signature (master-beats). master-timeSig sends how many
beats in a measure to use in other modules;
#X msg 503 447 Current Beat: \$1;
#X msg 693 447 Time Sig: \$1 / 4;
#X obj 693 469 s mm-beats-label;
#X obj 503 469 s mm-currentBeat-label;
#N canvas 13 50 1265 660 LINK 0;
#X msg 727 160 tempo \$1;
#X msg 516 161 resolution \$1;
#X msg 619 181 reset \$1 \$2;
#X obj 619 160 pack f f;
#X floatatom 638 281 5 0 0 1 beat_time - -, f 5;
#X floatatom 631 316 5 0 0 1 phase - -, f 5;
#X floatatom 552 319 5 0 0 1 step - -, f 5;
#X floatatom 663 258 5 0 0 1 tempo - -, f 5;
#X obj 431 139 tgl 15 0 empty empty empty 17 7 0 10 -262144 -1 -1 1
1;
#X obj 552 233 abl_link~ 1 0 4 134;
#X floatatom 727 141 5 0 0 2 tempo - -, f 5;
#X floatatom 664 141 5 0 0 2 quantum - -, f 5;
#X floatatom 619 141 5 0 0 2 beat - -, f 5;
#X floatatom 516 141 5 0 0 2 resolution - -, f 5;
#X msg 431 159 connect \$1;
#X floatatom 790 250 5 0 0 0 - - -, f 5;
#X obj 790 228 r #abl_link_num_peers;
#X obj 501 344 t b;
#X obj 404 79 loadbang;
#X obj 404 101 delay 100;
#X obj 651 376 wrap;
#X floatatom 660 406 5 0 0 0 - - -, f 5;
#X obj 660 425 * 24;
#X obj 660 447 i;
#X floatatom 660 469 5 0 0 0 - - -, f 5;
#X obj 653 487 change;
#X obj 657 65 inlet;
#X obj 746 307 i;
#X obj 746 329 s bpm;
#X obj 597 72 bng 15 250 50 0 empty empty empty 17 7 0 10 -262144 -1
-1;
#X obj 636 510 outlet;
#X connect 0 0 9 0;
#X connect 1 0 9 0;
#X connect 2 0 9 0;
#X connect 3 0 2 0;
#X connect 5 0 20 0;
#X connect 6 0 17 0;
#X connect 7 0 27 0;
#X connect 8 0 14 0;
#X connect 9 0 6 0;
#X connect 9 1 5 0;
#X connect 9 2 4 0;
#X connect 9 3 7 0;
#X connect 10 0 0 0;
#X connect 11 0 3 1;
#X connect 12 0 3 0;
#X connect 13 0 1 0;
#X connect 14 0 9 0;
#X connect 16 0 15 0;
#X connect 18 0 19 0;
#X connect 19 0 8 0;
#X connect 20 0 21 0;
#X connect 21 0 22 0;
#X connect 22 0 23 0;
#X connect 23 0 24 0;
#X connect 24 0 25 0;
#X connect 25 0 30 0;
#X connect 26 0 10 0;
#X connect 27 0 28 0;
#X connect 29 0 12 0;
#X restore 1162 254 pd LINK;
#X obj 952 279 i;
#X obj 990 286 r #abl_link_num_peers;
#X obj 970 318 pack 0 0;
#X obj 1105 200 i;
#X obj 1112 229 change;
#X obj 1162 312 s master-ticks;
#X obj 897 388 s mm-bpmDial-label;
#X msg 909 342 LINK \$1 BPM \$2 p;
#X connect 0 0 30 0;
#X connect 1 0 0 0;
#X connect 3 0 1 0;
#X connect 4 0 5 0;
#X connect 5 0 6 0;
#X connect 6 0 7 0;
#X connect 6 0 8 0;
#X connect 7 0 6 1;
#X connect 8 0 9 0;
#X connect 9 0 22 0;
#X connect 9 0 19 0;
#X connect 10 0 12 0;
#X connect 12 0 13 0;
#X connect 13 0 14 0;
#X connect 14 0 15 0;
#X connect 15 0 8 1;
#X connect 15 1 20 0;
#X connect 15 1 23 0;
#X connect 16 0 6 0;
#X connect 17 0 16 0;
#X connect 18 0 17 0;
#X connect 22 0 25 0;
#X connect 23 0 24 0;
#X connect 26 0 32 0;
#X connect 27 0 29 0;
#X connect 28 0 29 1;
#X connect 29 0 34 0;
#X connect 30 0 31 0;
#X connect 30 0 27 0;
#X connect 31 0 26 0;
#X connect 34 0 33 0;
