#N canvas 578 77 967 842 10;
#X msg 655 266 \$1 10;
#X obj 204 252 * 127;
#X obj 204 277 mtof;
#X obj 204 308 int;
#X obj 525 258 * 100;
#X obj 525 280 i;
#X obj 715 266 * 101;
#X obj 715 288 int;
#X msg 715 310 Dry / Wet \$1 %;
#X msg 525 302 Feedback \$1 %;
#X obj 81 620 *~ 0.6;
#X obj 144 311 hip~;
#X msg 204 330 HiPass \$1 Hz;
#X text 33 2 Simple 3 sec Delay Module with a hi-pass filter;
#X obj 81 558 c_xfade, f 65;
#X obj 292 140 random 500, f 12;
#X obj 292 86 metro 500;
#X obj 292 59 loadbang;
#X obj 396 156 s dlyRand-range-label;
#X obj 373 66 * 3000;
#X obj 373 88 int;
#X msg 396 134 Rand Range \$1 Ms;
#X msg 211 40 0;
#X obj 204 230 r dlyRand-hip;
#X obj 373 44 r dlyRand-range;
#X obj 204 352 s dlyRand-hip-label;
#X obj 525 324 s dlyRand-fb-label;
#X obj 715 332 s dlyRand-dw-label;
#X obj 655 229 r dlyRand-dw;
#X obj 505 226 r dlyRand-fb;
#X obj 144 200 r~ dlyRand-in;
#X obj 82 689 s~ dlyRand-outL;
#X obj 212 689 s~ dlyRand-outR;
#X obj 292 162 t f f;
#X obj 238 114 f;
#X obj 144 487 delay3sec 5, f 52;
#X connect 0 0 14 2;
#X connect 1 0 2 0;
#X connect 2 0 3 0;
#X connect 2 0 11 1;
#X connect 3 0 12 0;
#X connect 4 0 5 0;
#X connect 5 0 9 0;
#X connect 6 0 7 0;
#X connect 7 0 8 0;
#X connect 8 0 27 0;
#X connect 9 0 26 0;
#X connect 10 0 31 0;
#X connect 10 0 32 0;
#X connect 11 0 35 0;
#X connect 12 0 25 0;
#X connect 14 0 10 0;
#X connect 15 0 33 0;
#X connect 16 0 15 0;
#X connect 17 0 16 0;
#X connect 19 0 20 0;
#X connect 20 0 15 1;
#X connect 20 0 21 0;
#X connect 21 0 18 0;
#X connect 22 0 16 0;
#X connect 23 0 1 0;
#X connect 24 0 19 0;
#X connect 28 0 0 0;
#X connect 28 0 6 0;
#X connect 29 0 4 0;
#X connect 29 0 35 2;
#X connect 30 0 11 0;
#X connect 30 0 14 0;
#X connect 33 0 34 0;
#X connect 33 1 35 1;
#X connect 34 0 16 1;
#X connect 35 0 14 1;
