#N canvas 344 167 894 726 10;
#X obj 189 160 *~;
#X obj 206 102 vline~;
#X obj 206 124 *~;
#X obj 109 31 loadbang;
#X msg 109 53 56;
#X obj 109 75 mtof;
#X obj 201 23 tgl 15 0 empty empty empty 17 7 0 10 -262144 -1 -1 0
1;
#X obj 29 304 throw~ outL;
#X obj 158 303 throw~ outR;
#X obj 362 287 r knob1;
#X obj 468 280 r knob2;
#X obj 206 416 s screenLine1;
#X obj 362 416 s screenLine2;
#X floatatom 44 35 5 0 0 0 - - -, f 5;
#X obj 117 107 blsaw;
#X obj 582 287 r knob3;
#X obj 496 416 s screenLine3;
#X obj 642 416 s screenLine4;
#X obj 688 280 r knob4;
#X obj 203 58 metro 250;
#X msg 207 80 1 5 \, 0 0 125;
#X floatatom 303 41 5 0 0 0 - - -, f 5;
#X obj 462 33 DelayRandom;
#X obj 29 282 r~ dlyRand-outL;
#X obj 159 281 r~ dlyRand-outR;
#X obj 189 190 s~ dlyRand-in;
#X obj 474 311 s dlyRand-fb;
#X obj 584 311 s dlyRand-hip;
#X obj 695 311 s dlyRand-dw;
#X obj 643 395 r dlyRand-dw-label;
#X obj 501 395 r dlyRand-hip-label;
#X obj 363 395 r dlyRand-fb-label;
#X obj 364 311 s dlyRand-range;
#X obj 211 396 r dlyRand-range-label;
#X connect 0 0 25 0;
#X connect 1 0 2 0;
#X connect 1 0 2 1;
#X connect 2 0 0 1;
#X connect 3 0 4 0;
#X connect 4 0 5 0;
#X connect 5 0 14 0;
#X connect 6 0 19 0;
#X connect 9 0 32 0;
#X connect 10 0 26 0;
#X connect 13 0 5 0;
#X connect 14 0 0 0;
#X connect 15 0 27 0;
#X connect 18 0 28 0;
#X connect 19 0 20 0;
#X connect 20 0 1 0;
#X connect 21 0 19 1;
#X connect 23 0 7 0;
#X connect 24 0 8 0;
#X connect 29 0 17 0;
#X connect 30 0 16 0;
#X connect 31 0 12 0;
#X connect 33 0 11 0;
